<?xml version="1.0" encoding="UTF-8" standalone="no"?>
<svg
   xmlns:dc="http://purl.org/dc/elements/1.1/"
   xmlns:cc="http://creativecommons.org/ns#"
   xmlns:rdf="http://www.w3.org/1999/02/22-rdf-syntax-ns#"
   xmlns:svg="http://www.w3.org/2000/svg"
   xmlns="http://www.w3.org/2000/svg"
   xmlns:sodipodi="http://sodipodi.sourceforge.net/DTD/sodipodi-0.dtd"
   xmlns:inkscape="http://www.inkscape.org/namespaces/inkscape"
   width="18"
   height="18"
   viewBox="0 0 18 18"
   version="1.1"
   id="svg8"
   sodipodi:docname="audio.svg"
   inkscape:version="0.92.4 5da689c313, 2019-01-14">
  <metadata
     id="metadata14">
    <rdf:RDF>
      <cc:Work
         rdf:about="">
        <dc:format>image/svg+xml</dc:format>
        <dc:type
           rdf:resource="http://purl.org/dc/dcmitype/StillImage" />
        <dc:title />
      </cc:Work>
    </rdf:RDF>
  </metadata>
  <defs
     id="defs12">
    <style
       id="current-color-scheme-7"
       type="text/css">
   .ColorScheme-Text { color:#424242; } .ColorScheme-Highlight { color:#eeeeee; }
  </style>
    <style
       id="current-color-scheme-9"
       type="text/css">
   .ColorScheme-Text { color:#424242; } .ColorScheme-Highlight { color:#eeeeee; }
  </style>
    <style
       id="current-color-scheme-93"
       type="text/css">
   .ColorScheme-Text { color:#424242; } .ColorScheme-Highlight { color:#eeeeee; }
  </style>
    <style
       id="current-color-scheme-6"
       type="text/css">
   .ColorScheme-Text { color:#424242; } .ColorScheme-Highlight { color:#eeeeee; }
  </style>
    <style
       id="style7"
       type="text/css">
   .ColorScheme-Text { color:#3f3f3f; } .ColorScheme-Highlight { color:#eeeeee; }
  </style>
    <style
       id="current-color-scheme-2"
       type="text/css">
   .ColorScheme-Text { color:#424242; } .ColorScheme-Highlight { color:#eeeeee; }
  </style>
    <style
       id="current-color-scheme-22"
       type="text/css">
   .ColorScheme-Text { color:#424242; } .ColorScheme-Highlight { color:#eeeeee; }
  </style>
    <style
       id="style7-7"
       type="text/css">
   .ColorScheme-Text { color:#3f3f3f; } .ColorScheme-Highlight { color:#eeeeee; }
  </style>
    <style
       id="current-color-scheme"
       type="text/css">
   .ColorScheme-Text { color:#424242; } .ColorScheme-Highlight { color:#eeeeee; }
  </style>
    <defs
       id="defs990">
      <style
         id="style988"
         type="text/css">
   .ColorScheme-Text { color:#424242; } .ColorScheme-Highlight { color:#eeeeee; }
  </style>
    </defs>
    <defs
       id="defs996">
      <style
         id="style994"
         type="text/css">
   .ColorScheme-Text { color:#3f3f3f; } .ColorScheme-Highlight { color:#eeeeee; }
  </style>
    </defs>
    <defs
       id="defs3-2">
      <style
         type="text/css"
         id="style890">
   .ColorScheme-Text { color:#424242; } .ColorScheme-Highlight { color:#eeeeee; }
  </style>
    </defs>
    <defs
       id="defs9">
      <style
         type="text/css"
         id="style894">
   .ColorScheme-Text { color:#3f3f3f; } .ColorScheme-Highlight { color:#eeeeee; }
  </style>
    </defs>
    <defs
       id="defs3-20">
      <style
         type="text/css"
         id="style908">
   .ColorScheme-Text { color:#424242; } .ColorScheme-Highlight { color:#eeeeee; }
  </style>
    </defs>
    <defs
       id="defs3-9">
      <style
         type="text/css"
         id="style926">
   .ColorScheme-Text { color:#424242; } .ColorScheme-Highlight { color:#eeeeee; }
  </style>
    </defs>
    <defs
       id="defs9-9">
      <style
         type="text/css"
         id="style930">
   .ColorScheme-Text { color:#3f3f3f; } .ColorScheme-Highlight { color:#eeeeee; }
  </style>
    </defs>
    <defs
       id="defs1012">
      <style
         id="style1010"
         type="text/css">
   .ColorScheme-Text { color:#424242; } .ColorScheme-Highlight { color:#eeeeee; }
  </style>
    </defs>
    <defs
       id="defs1018">
      <style
         id="style1016"
         type="text/css">
   .ColorScheme-Text { color:#3f3f3f; } .ColorScheme-Highlight { color:#eeeeee; }
  </style>
    </defs>
    <defs
       id="defs1048">
      <style
         id="style1046"
         type="text/css">
   .ColorScheme-Text { color:#424242; } .ColorScheme-Highlight { color:#eeeeee; }
  </style>
    </defs>
    <defs
       id="defs1034">
      <style
         id="style1032"
         type="text/css">
   .ColorScheme-Text { color:#424242; } .ColorScheme-Highlight { color:#eeeeee; }
  </style>
    </defs>
    <defs
       id="defs1040">
      <style
         id="style1038"
         type="text/css">
   .ColorScheme-Text { color:#3f3f3f; } .ColorScheme-Highlight { color:#eeeeee; }
  </style>
    </defs>
    <defs
       id="defs3">
      <style
         type="text/css"
         id="style969">
   .ColorScheme-Text { color:#424242; } .ColorScheme-Highlight { color:#eeeeee; }
  </style>
    </defs>
    <defs
       id="defs976">
      <style
         id="style974"
         type="text/css">
   .ColorScheme-Text { color:#424242; } .ColorScheme-Highlight { color:#eeeeee; }
  </style>
    </defs>
    <defs
       id="defs982">
      <style
         id="style980"
         type="text/css">
   .ColorScheme-Text { color:#3f3f3f; } .ColorScheme-Highlight { color:#eeeeee; }
  </style>
    </defs>
  </defs>
  <sodipodi:namedview
     pagecolor="#ffffff"
     bordercolor="#666666"
     borderopacity="1"
     objecttolerance="10"
     gridtolerance="10"
     guidetolerance="10"
     inkscape:pageopacity="0"
     inkscape:pageshadow="2"
     inkscape:window-width="1920"
     inkscape:window-height="1023"
     id="namedview10"
     showgrid="false"
     inkscape:zoom="5.3636363"
     inkscape:cx="91.398499"
     inkscape:cy="-11.059106"
     inkscape:window-x="0"
     inkscape:window-y="28"
     inkscape:window-maximized="1"
     inkscape:current-layer="svg8">
    <inkscape:grid
       type="xygrid"
       id="grid837" />
  </sodipodi:namedview>
  <g
     id="22-22-audio-volume-low">
    <rect
       y="2.220446e-16"
       x="46"
       height="18"
       width="18"
       id="rect881"
       style="fill:#eeeeee;fill-opacity:0;stroke:none;stroke-width:4.09425926;stroke-linecap:round;stroke-linejoin:round;stroke-miterlimit:4;stroke-dasharray:none;stroke-opacity:1" />
    <path
       inkscape:connector-curvature="0"
       style="color:#424242;fill:#eeeeee"
       class="ColorScheme-Text"
       d="m 55,2 -4,4 v 6 l 4,4 z m -7,4 v 6 h 2 V 6 Z m 0,0"
       id="path5-18" />
    <path
       inkscape:connector-curvature="0"
       style="color:#3f3f3f;fill:#eeeeee;fill-opacity:0.3137255"
       class="ColorScheme-Text"
       d="m 56,3 v 2 c 2.214844,0 4,1.785156 4,4 0,2.214844 -1.785156,4 -4,4 v 2 c 3.324219,0 6,-2.675781 6,-6 0,-3.324219 -2.675781,-6 -6,-6 z m 0,3 v 2 c 0.554688,0 1,0.445312 1,1 0,0.554688 -0.445312,1 -1,1 v 2 c 1.660156,0 3,-1.339844 3,-3 0,-1.660156 -1.339844,-3 -3,-3 z m 0,0"
       id="path11" />
  </g>
  <g
     id="22-22-audio-volume-high">
    <rect
       style="fill:#eeeeee;fill-opacity:0;stroke:none;stroke-width:4.09425926;stroke-linecap:round;stroke-linejoin:round;stroke-miterlimit:4;stroke-dasharray:none;stroke-opacity:1"
       id="rect883"
       width="18"
       height="18"
       x="-6.6613381e-16"
       y="2.220446e-16" />
    <path
       inkscape:connector-curvature="0"
       style="color:#424242;fill:#eeeeee"
       class="ColorScheme-Text"
       d="M 9,2 5,6 v 6 l 4,4 z m 1,1 v 2 c 2.214844,0 4,1.785156 4,4 0,2.214844 -1.785156,4 -4,4 v 2 c 3.324219,0 6,-2.675781 6,-6 C 16,5.675781 13.324219,3 10,3 Z M 2,6 v 6 H 4 V 6 Z m 8,0 v 2 c 0.554688,0 1,0.445312 1,1 0,0.554688 -0.445312,1 -1,1 v 2 c 1.660156,0 3,-1.339844 3,-3 0,-1.660156 -1.339844,-3 -3,-3 z m 0,0"
       id="path5-3" />
  </g>
  <g
     id="22-22-audio-volume-medium">
    <rect
       style="fill:#eeeeee;fill-opacity:0;stroke:none;stroke-width:4.09425926;stroke-linecap:round;stroke-linejoin:round;stroke-miterlimit:4;stroke-dasharray:none;stroke-opacity:1"
       id="rect892"
       width="18"
       height="18"
       x="24"
       y="2.220446e-16" />
    <path
       inkscape:connector-curvature="0"
       style="color:#424242;fill:#eeeeee"
       class="ColorScheme-Text"
       d="m 33,2 -4,4 v 6 l 4,4 z m -7,4 v 6 h 2 V 6 Z m 8,0 v 2 c 0.554688,0 1,0.445312 1,1 0,0.554688 -0.445312,1 -1,1 v 2 c 1.660156,0 3,-1.339844 3,-3 0,-1.660156 -1.339844,-3 -3,-3 z m 0,0"
       id="path5-8" />
    <path
       inkscape:connector-curvature="0"
       style="color:#3f3f3f;fill:#eeeeee;fill-opacity:0.3137255"
       class="ColorScheme-Text"
       d="m 34,3 v 2 c 2.214844,0 4,1.785156 4,4 0,2.214844 -1.785156,4 -4,4 v 2 c 3.324219,0 6,-2.675781 6,-6 0,-3.324219 -2.675781,-6 -6,-6 z m 0,0"
       id="path11-3" />
  </g>
  <g
     id="16-16-audio-volume-low">
    <rect
       style="fill:#212121;fill-opacity:0;stroke:none;stroke-width:3.63934159;stroke-linecap:round;stroke-linejoin:round;stroke-miterlimit:4;stroke-dasharray:none;stroke-opacity:1"
       id="rect894"
       width="16"
       height="16"
       x="47"
       y="23" />
    <path
       id="path896"
       d="m 55,24 -4,4 v 6 l 4,4 z m -7,4 v 6 h 2 v -6 z m 0,0"
       class="ColorScheme-Text"
       style="color:#424242;fill:#eeeeee"
       inkscape:connector-curvature="0" />
    <path
       id="path898"
       d="m 56,25 v 2 c 2.214844,0 4,1.785156 4,4 0,2.214844 -1.785156,4 -4,4 v 2 c 3.324219,0 6,-2.675781 6,-6 0,-3.324219 -2.675781,-6 -6,-6 z m 0,3 v 2 c 0.554688,0 1,0.445312 1,1 0,0.554688 -0.445312,1 -1,1 v 2 c 1.660156,0 3,-1.339844 3,-3 0,-1.660156 -1.339844,-3 -3,-3 z m 0,0"
       class="ColorScheme-Text"
       style="color:#3f3f3f;fill:#eeeeee;fill-opacity:0.3137255"
       inkscape:connector-curvature="0" />
  </g>
  <g
     id="16-16-audio-volume-high">
    <rect
       y="23"
       x="3"
       height="16"
       width="16"
       id="rect902"
       style="fill:#212121;fill-opacity:0;stroke:none;stroke-width:3.63934159;stroke-linecap:round;stroke-linejoin:round;stroke-miterlimit:4;stroke-dasharray:none;stroke-opacity:1" />
    <path
       id="path904"
       d="m 11,24 -4,4 v 6 l 4,4 z m 1,1 v 2 c 2.214844,0 4,1.785156 4,4 0,2.214844 -1.785156,4 -4,4 v 2 c 3.324219,0 6,-2.675781 6,-6 0,-3.324219 -2.675781,-6 -6,-6 z m -8,3 v 6 h 2 v -6 z m 8,0 v 2 c 0.554688,0 1,0.445312 1,1 0,0.554688 -0.445312,1 -1,1 v 2 c 1.660156,0 3,-1.339844 3,-3 0,-1.660156 -1.339844,-3 -3,-3 z m 0,0"
       class="ColorScheme-Text"
       style="color:#424242;fill:#eeeeee"
       inkscape:connector-curvature="0" />
  </g>
  <g
     id="16-16-audio-volume-medium">
    <rect
       y="23"
       x="25"
       height="16"
       width="16"
       id="rect908"
       style="fill:#212121;fill-opacity:0;stroke:none;stroke-width:3.63934159;stroke-linecap:round;stroke-linejoin:round;stroke-miterlimit:4;stroke-dasharray:none;stroke-opacity:1" />
    <path
       id="path910"
       d="m 33,24 -4,4 v 6 l 4,4 z m -7,4 v 6 h 2 v -6 z m 8,0 v 2 c 0.554688,0 1,0.445312 1,1 0,0.554688 -0.445312,1 -1,1 v 2 c 1.660156,0 3,-1.339844 3,-3 0,-1.660156 -1.339844,-3 -3,-3 z m 0,0"
       class="ColorScheme-Text"
       style="color:#424242;fill:#eeeeee"
       inkscape:connector-curvature="0" />
    <path
       id="path912"
       d="m 34,25 v 2 c 2.214844,0 4,1.785156 4,4 0,2.214844 -1.785156,4 -4,4 v 2 c 3.324219,0 6,-2.675781 6,-6 0,-3.324219 -2.675781,-6 -6,-6 z m 0,0"
       class="ColorScheme-Text"
       style="color:#3f3f3f;fill:#eeeeee;fill-opacity:0.3137255"
       inkscape:connector-curvature="0" />
  </g>
  <g
     id="16-16-audio-volume-muted">
    <rect
       y="23"
       x="69"
       height="16"
       width="16"
       id="rect918"
       style="fill:#212121;fill-opacity:0;stroke:none;stroke-width:3.63934159;stroke-linecap:round;stroke-linejoin:round;stroke-miterlimit:4;stroke-dasharray:none;stroke-opacity:1" />
    <path
       style="fill:#eeeeee;fill-opacity:1;fill-rule:nonzero;stroke:none"
       d="M 77 24 L 73 28 L 73 34 L 77 38 L 77 24 z M 70 28 L 70 34 L 72 34 L 72 28 L 70 28 z "
       id="path907" />
    <path
       style="fill:#ee514f;fill-opacity:1;fill-rule:nonzero;stroke:none"
       d="M 79.757812,28.171875 78.34375,29.585938 79.757812,31 l -1.414062,1.414062 1.414062,1.414063 1.414063,-1.414063 1.414063,1.414063 L 84,32.414062 82.585938,31 84,29.585938 82.585938,28.171875 81.171875,29.585938 Z"
       id="path903" />
    <path
       style="fill:#ee514f;fill-opacity:1;fill-rule:nonzero;stroke:none"
       d="M 79.757812,28.171875"
       id="path916" />
  </g>
  <g
     id="audio-volume-low">
    <rect
       y="-26"
       x="47"
       height="20"
       width="20"
       id="rect922"
       style="fill:#424242;fill-opacity:0;stroke:none;stroke-width:4.54917717;stroke-linecap:round;stroke-linejoin:round;stroke-miterlimit:4;stroke-dasharray:none;stroke-opacity:1" />
    <path
       inkscape:connector-curvature="0"
       style="color:#424242;fill:#eeeeee"
       class="ColorScheme-Text"
       d="m 57,-23 -4,4 v 6 l 4,4 z m -7,4 v 6 h 2 v -6 z m 0,0"
       id="path924" />
    <path
       inkscape:connector-curvature="0"
       style="color:#3f3f3f;fill:#eeeeee;fill-opacity:0.3137255"
       class="ColorScheme-Text"
       d="m 58,-22 v 2 c 2.214844,0 4,1.785156 4,4 0,2.214844 -1.785156,4 -4,4 v 2 c 3.324219,0 6,-2.675781 6,-6 0,-3.324219 -2.675781,-6 -6,-6 z m 0,3 v 2 c 0.554688,0 1,0.445312 1,1 0,0.554688 -0.445312,1 -1,1 v 2 c 1.660156,0 3,-1.339844 3,-3 0,-1.660156 -1.339844,-3 -3,-3 z m 0,0"
       id="path926" />
  </g>
  <g
     id="audio-volume-high">
    <rect
       style="fill:#424242;fill-opacity:0;stroke:none;stroke-width:4.54917717;stroke-linecap:round;stroke-linejoin:round;stroke-miterlimit:4;stroke-dasharray:none;stroke-opacity:1"
       id="rect930"
       width="20"
       height="20"
       x="-1"
       y="-26" />
    <path
       inkscape:connector-curvature="0"
       style="color:#424242;fill:#eeeeee"
       class="ColorScheme-Text"
       d="m 9,-23 -4,4 v 6 l 4,4 z m 1,1 v 2 c 2.214844,0 4,1.785156 4,4 0,2.214844 -1.785156,4 -4,4 v 2 c 3.324219,0 6,-2.675781 6,-6 0,-3.324219 -2.675781,-6 -6,-6 z m -8,3 v 6 h 2 v -6 z m 8,0 v 2 c 0.554688,0 1,0.445312 1,1 0,0.554688 -0.445312,1 -1,1 v 2 c 1.660156,0 3,-1.339844 3,-3 0,-1.660156 -1.339844,-3 -3,-3 z m 0,0"
       id="path932" />
  </g>
  <g
     id="audio-volume-medium">
    <rect
       style="fill:#424242;fill-opacity:0;stroke:none;stroke-width:4.54917717;stroke-linecap:round;stroke-linejoin:round;stroke-miterlimit:4;stroke-dasharray:none;stroke-opacity:1"
       id="rect936"
       width="20"
       height="20"
       x="23"
       y="-26" />
    <path
       inkscape:connector-curvature="0"
       style="color:#424242;fill:#eeeeee"
       class="ColorScheme-Text"
       d="m 33,-23 -4,4 v 6 l 4,4 z m -7,4 v 6 h 2 v -6 z m 8,0 v 2 c 0.554688,0 1,0.445312 1,1 0,0.554688 -0.445312,1 -1,1 v 2 c 1.660156,0 3,-1.339844 3,-3 0,-1.660156 -1.339844,-3 -3,-3 z m 0,0"
       id="path938" />
    <path
       inkscape:connector-curvature="0"
       style="color:#3f3f3f;fill:#eeeeee;fill-opacity:0.3137255"
       class="ColorScheme-Text"
       d="m 34,-22 v 2 c 2.214844,0 4,1.785156 4,4 0,2.214844 -1.785156,4 -4,4 v 2 c 3.324219,0 6,-2.675781 6,-6 0,-3.324219 -2.675781,-6 -6,-6 z m 0,0"
       id="path940" />
  </g>
  <g
     id="audio-volume-muted">
    <path
       style="fill:#eeeeee;fill-opacity:1;fill-rule:nonzero;stroke:none"
       d="M 81 -23 L 77 -19 L 77 -13 L 81 -9 L 81 -23 z M 74 -19 L 74 -13 L 76 -13 L 76 -19 L 74 -19 z "
       id="path899" />
    <path
       style="fill:#ee514f;fill-opacity:1;fill-rule:nonzero;stroke:none"
       d="M 83.757812,-18.828125 82.34375,-17.414062 83.757812,-16 l -1.414062,1.414062 1.414062,1.414063 1.414063,-1.414063 1.414063,1.414063 L 88,-14.585938 86.585938,-16 88,-17.414062 l -1.414062,-1.414063 -1.414063,1.414063 z"
       id="path895" />
    <path
       style="fill:#ee514f;fill-opacity:1;fill-rule:nonzero;stroke:none"
       d="M 83.757812,-18.828125"
       id="path944" />
    <rect
       style="fill:#424242;fill-opacity:0;stroke:none;stroke-width:4.54917717;stroke-linecap:round;stroke-linejoin:round;stroke-miterlimit:4;stroke-dasharray:none;stroke-opacity:1"
       id="rect946"
       width="20"
       height="20"
       x="71"
       y="-26" />
  </g>
  <g
     id="22-22-audio-volume-muted">
    <rect
       style="fill:#eeeeee;fill-opacity:0;stroke:none;stroke-width:4.09425926;stroke-linecap:round;stroke-linejoin:round;stroke-miterlimit:4;stroke-dasharray:none;stroke-opacity:1"
       id="rect916"
       width="18"
       height="18"
       x="68"
       y="2.220446e-16" />
    <path
       style="fill:#eeeeee;fill-opacity:1;fill-rule:nonzero;stroke:none"
       d="M 77 2 L 73 6 L 73 12 L 77 16 L 77 2 z M 70 6 L 70 12 L 72 12 L 72 6 L 70 6 z "
       id="path915" />
    <path
       style="fill:#ee514f;fill-opacity:1;fill-rule:nonzero;stroke:none"
       d="M 79.757812,6.171875 78.34375,7.585938 79.757812,9 l -1.414062,1.414062 1.414062,1.414063 1.414063,-1.414063 1.414063,1.414063 L 84,10.414062 82.585938,9 84,7.585938 82.585938,6.171875 81.171875,7.585938 Z"
       id="path911" />
    <path
       style="fill:#ee514f;fill-opacity:1;fill-rule:nonzero;stroke:none"
       d="M 79.757812,6.171875"
       id="path2" />
  </g>
</svg>
