<?xml version="1.0" encoding="UTF-8" standalone="no"?>
<svg
   xmlns:dc="http://purl.org/dc/elements/1.1/"
   xmlns:cc="http://creativecommons.org/ns#"
   xmlns:rdf="http://www.w3.org/1999/02/22-rdf-syntax-ns#"
   xmlns:svg="http://www.w3.org/2000/svg"
   xmlns="http://www.w3.org/2000/svg"
   xmlns:sodipodi="http://sodipodi.sourceforge.net/DTD/sodipodi-0.dtd"
   xmlns:inkscape="http://www.inkscape.org/namespaces/inkscape"
   width="18"
   height="18"
   viewBox="0 0 18 18"
   version="1.1"
   id="svg8"
   sodipodi:docname="battery.svg"
   inkscape:version="0.92.4 5da689c313, 2019-01-14">
  <metadata
     id="metadata14">
    <rdf:RDF>
      <cc:Work
         rdf:about="">
        <dc:format>image/svg+xml</dc:format>
        <dc:type
           rdf:resource="http://purl.org/dc/dcmitype/StillImage" />
        <dc:title />
      </cc:Work>
    </rdf:RDF>
  </metadata>
  <defs
     id="defs12">
    <style
       id="current-color-scheme-7"
       type="text/css">
   .ColorScheme-Text { color:#424242; } .ColorScheme-Highlight { color:#eeeeee; }
  </style>
    <style
       id="current-color-scheme-9"
       type="text/css">
   .ColorScheme-Text { color:#424242; } .ColorScheme-Highlight { color:#eeeeee; }
  </style>
    <style
       id="current-color-scheme-93"
       type="text/css">
   .ColorScheme-Text { color:#424242; } .ColorScheme-Highlight { color:#eeeeee; }
  </style>
    <style
       id="current-color-scheme-6"
       type="text/css">
   .ColorScheme-Text { color:#424242; } .ColorScheme-Highlight { color:#eeeeee; }
  </style>
    <style
       id="style7"
       type="text/css">
   .ColorScheme-Text { color:#3f3f3f; } .ColorScheme-Highlight { color:#eeeeee; }
  </style>
    <style
       id="current-color-scheme-2"
       type="text/css">
   .ColorScheme-Text { color:#424242; } .ColorScheme-Highlight { color:#eeeeee; }
  </style>
    <style
       id="current-color-scheme-22"
       type="text/css">
   .ColorScheme-Text { color:#424242; } .ColorScheme-Highlight { color:#eeeeee; }
  </style>
    <style
       id="style7-7"
       type="text/css">
   .ColorScheme-Text { color:#3f3f3f; } .ColorScheme-Highlight { color:#eeeeee; }
  </style>
    <style
       id="current-color-scheme"
       type="text/css">
   .ColorScheme-Text { color:#424242; } .ColorScheme-Highlight { color:#eeeeee; }
  </style>
    <defs
       id="defs990">
      <style
         id="style988"
         type="text/css">
   .ColorScheme-Text { color:#424242; } .ColorScheme-Highlight { color:#eeeeee; }
  </style>
    </defs>
    <defs
       id="defs996">
      <style
         id="style994"
         type="text/css">
   .ColorScheme-Text { color:#3f3f3f; } .ColorScheme-Highlight { color:#eeeeee; }
  </style>
    </defs>
    <defs
       id="defs3-2">
      <style
         type="text/css"
         id="style890">
   .ColorScheme-Text { color:#424242; } .ColorScheme-Highlight { color:#eeeeee; }
  </style>
    </defs>
    <defs
       id="defs9">
      <style
         type="text/css"
         id="style894">
   .ColorScheme-Text { color:#3f3f3f; } .ColorScheme-Highlight { color:#eeeeee; }
  </style>
    </defs>
    <defs
       id="defs3-20">
      <style
         type="text/css"
         id="style908">
   .ColorScheme-Text { color:#424242; } .ColorScheme-Highlight { color:#eeeeee; }
  </style>
    </defs>
    <defs
       id="defs3-9">
      <style
         type="text/css"
         id="style926">
   .ColorScheme-Text { color:#424242; } .ColorScheme-Highlight { color:#eeeeee; }
  </style>
    </defs>
    <defs
       id="defs9-9">
      <style
         type="text/css"
         id="style930">
   .ColorScheme-Text { color:#3f3f3f; } .ColorScheme-Highlight { color:#eeeeee; }
  </style>
    </defs>
    <defs
       id="defs1012">
      <style
         id="style1010"
         type="text/css">
   .ColorScheme-Text { color:#424242; } .ColorScheme-Highlight { color:#eeeeee; }
  </style>
    </defs>
    <defs
       id="defs1018">
      <style
         id="style1016"
         type="text/css">
   .ColorScheme-Text { color:#3f3f3f; } .ColorScheme-Highlight { color:#eeeeee; }
  </style>
    </defs>
    <defs
       id="defs1048">
      <style
         id="style1046"
         type="text/css">
   .ColorScheme-Text { color:#424242; } .ColorScheme-Highlight { color:#eeeeee; }
  </style>
    </defs>
    <defs
       id="defs1034">
      <style
         id="style1032"
         type="text/css">
   .ColorScheme-Text { color:#424242; } .ColorScheme-Highlight { color:#eeeeee; }
  </style>
    </defs>
    <defs
       id="defs1040">
      <style
         id="style1038"
         type="text/css">
   .ColorScheme-Text { color:#3f3f3f; } .ColorScheme-Highlight { color:#eeeeee; }
  </style>
    </defs>
    <defs
       id="defs3">
      <style
         type="text/css"
         id="style969">
   .ColorScheme-Text { color:#424242; } .ColorScheme-Highlight { color:#eeeeee; }
  </style>
    </defs>
    <defs
       id="defs976">
      <style
         id="style974"
         type="text/css">
   .ColorScheme-Text { color:#424242; } .ColorScheme-Highlight { color:#eeeeee; }
  </style>
    </defs>
    <defs
       id="defs982">
      <style
         id="style980"
         type="text/css">
   .ColorScheme-Text { color:#3f3f3f; } .ColorScheme-Highlight { color:#eeeeee; }
  </style>
    </defs>
    <style
       id="current-color-scheme-67"
       type="text/css">
   .ColorScheme-Text { color:#424242; } .ColorScheme-Highlight { color:#eeeeee; }
  </style>
    <style
       id="current-color-scheme-62"
       type="text/css">
   .ColorScheme-Text { color:#424242; } .ColorScheme-Highlight { color:#eeeeee; }
  </style>
    <style
       id="current-color-scheme-0"
       type="text/css">
   .ColorScheme-Text { color:#424242; } .ColorScheme-Highlight { color:#eeeeee; }
  </style>
    <style
       id="current-color-scheme-5"
       type="text/css">
   .ColorScheme-Text { color:#424242; } .ColorScheme-Highlight { color:#eeeeee; }
  </style>
    <style
       id="current-color-scheme-1"
       type="text/css">
   .ColorScheme-Text { color:#424242; } .ColorScheme-Highlight { color:#eeeeee; }
  </style>
    <style
       id="current-color-scheme-60"
       type="text/css">
   .ColorScheme-Text { color:#424242; } .ColorScheme-Highlight { color:#eeeeee; }
  </style>
    <defs
       id="defs969">
      <style
         id="style967"
         type="text/css">
   .ColorScheme-Text { color:#424242; } .ColorScheme-Highlight { color:#eeeeee; }
  </style>
    </defs>
    <defs
       id="defs3-27">
      <style
         type="text/css"
         id="style953">
   .ColorScheme-Text { color:#424242; } .ColorScheme-Highlight { color:#eeeeee; }
  </style>
    </defs>
    <defs
       id="defs3-3">
      <style
         type="text/css"
         id="style905">
   .ColorScheme-Text { color:#424242; } .ColorScheme-Highlight { color:#eeeeee; }
  </style>
    </defs>
    <defs
       id="defs3-5">
      <style
         type="text/css"
         id="style929">
   .ColorScheme-Text { color:#424242; } .ColorScheme-Highlight { color:#eeeeee; }
  </style>
    </defs>
    <defs
       id="defs979">
      <style
         id="style977"
         type="text/css">
   .ColorScheme-Text { color:#424242; } .ColorScheme-Highlight { color:#eeeeee; }
  </style>
    </defs>
    <defs
       id="defs1087">
      <style
         type="text/css"
         id="style1085">
   .ColorScheme-Text { color:#424242; } .ColorScheme-Highlight { color:#eeeeee; }
  </style>
    </defs>
    <defs
       id="defs117">
      <style
         type="text/css"
         id="style115">
   .ColorScheme-Text { color:#424242; } .ColorScheme-Highlight { color:#eeeeee; }
  </style>
    </defs>
    <defs
       id="defs3-53">
      <style
         type="text/css"
         id="style1341">
   .ColorScheme-Text { color:#424242; } .ColorScheme-Highlight { color:#eeeeee; }
  </style>
    </defs>
    <defs
       id="defs1357">
      <style
         id="style1355"
         type="text/css">
   .ColorScheme-Text { color:#424242; } .ColorScheme-Highlight { color:#eeeeee; }
  </style>
    </defs>
    <defs
       id="defs1369">
      <style
         id="style1367"
         type="text/css">
   .ColorScheme-Text { color:#424242; } .ColorScheme-Highlight { color:#eeeeee; }
  </style>
    </defs>
    <defs
       id="defs1381">
      <style
         type="text/css"
         id="style1379">
   .ColorScheme-Text { color:#424242; } .ColorScheme-Highlight { color:#eeeeee; }
  </style>
    </defs>
    <defs
       id="defs3-29">
      <style
         type="text/css"
         id="style1404">
   .ColorScheme-Text { color:#424242; } .ColorScheme-Highlight { color:#eeeeee; }
  </style>
    </defs>
    <style
       type="text/css"
       id="style1295">
   .ColorScheme-Text { color:#424242; } .ColorScheme-Highlight { color:#eeeeee; }
  </style>
    <defs
       id="defs916">
      <style
         id="style914"
         type="text/css">
   .ColorScheme-Text { color:#424242; } .ColorScheme-Highlight { color:#eeeeee; }
  </style>
    </defs>
    <style
       id="current-color-scheme-75"
       type="text/css">
   .ColorScheme-Text { color:#424242; } .ColorScheme-Highlight { color:#eeeeee; }
  </style>
    <defs
       id="defs3-6">
      <style
         type="text/css"
         id="style958">
   .ColorScheme-Text { color:#424242; } .ColorScheme-Highlight { color:#eeeeee; }
  </style>
    </defs>
    <defs
       id="defs993">
      <style
         id="style991"
         type="text/css">
   .ColorScheme-Text { color:#424242; } .ColorScheme-Highlight { color:#eeeeee; }
  </style>
    </defs>
    <defs
       id="defs1176">
      <style
         type="text/css"
         id="style1174">
   .ColorScheme-Text { color:#424242; } .ColorScheme-Highlight { color:#eeeeee; }
  </style>
    </defs>
    <defs
       id="defs1763">
      <style
         id="style1761"
         type="text/css">
   .ColorScheme-Text { color:#424242; } .ColorScheme-Highlight { color:#eeeeee; }
  </style>
    </defs>
    <defs
       id="defs1775">
      <style
         type="text/css"
         id="style1773">
   .ColorScheme-Text { color:#424242; } .ColorScheme-Highlight { color:#eeeeee; }
  </style>
    </defs>
  </defs>
  <sodipodi:namedview
     pagecolor="#ffffff"
     bordercolor="#666666"
     borderopacity="1"
     objecttolerance="10"
     gridtolerance="10"
     guidetolerance="10"
     inkscape:pageopacity="0"
     inkscape:pageshadow="2"
     inkscape:window-width="1920"
     inkscape:window-height="1023"
     id="namedview10"
     showgrid="false"
     inkscape:zoom="1.5238381"
     inkscape:cx="58.399891"
     inkscape:cy="36.712544"
     inkscape:window-x="0"
     inkscape:window-y="28"
     inkscape:window-maximized="1"
     inkscape:current-layer="svg8"
     inkscape:pagecheckerboard="false">
    <inkscape:grid
       type="xygrid"
       id="grid837" />
  </sodipodi:namedview>
  <g
     id="g1140"
     transform="translate(24,-34)">
    <defs
       id="defs1136">
      <style
         type="text/css"
         id="style1134">
   .ColorScheme-Text { color:#424242; } .ColorScheme-Highlight { color:#eeeeee; }
  </style>
    </defs>
    <path
       id="path1138"
       d="M 8,4 V 5 H 6 V 6 H 16 V 5 H 14 V 4 Z M 6,7 V 9 H 16 V 7 Z m 0,3 v 2 h 10 v -2 z m 0,3 v 2 h 10 v -2 z m 0,3 v 2 h 10 v -2 z m 0,0"
       class="ColorScheme-Text"
       style="color:#424242;fill:#eeeeee"
       inkscape:connector-curvature="0" />
  </g>
  <g
     transform="translate(0,-34)"
     id="g1125">
    <defs
       id="defs1121">
      <style
         id="style1119"
         type="text/css">
   .ColorScheme-Text { color:#424242; } .ColorScheme-Highlight { color:#eeeeee; }
  </style>
    </defs>
    <path
       inkscape:connector-curvature="0"
       style="color:#424242;fill:#eeeeee"
       class="ColorScheme-Text"
       d="M 8,4 V 5 H 6 V 6 H 16 V 5 H 14 V 4 Z M 6,7 V 9 H 16 V 7 Z m 0,3 v 2 h 10 v -2 z m 0,3 v 2 h 10 v -2 z m 0,3 v 2 h 10 v -2 z m 0,0"
       id="path1123" />
  </g>
  <g
     transform="translate(-0.75,-4.25)"
     id="surface1" />
  <g
     id="22-22-Fill100">
    <rect
       style="fill:#eeeeee;fill-opacity:0;stroke:none;stroke-width:4.09425926;stroke-linecap:round;stroke-linejoin:round;stroke-miterlimit:4;stroke-dasharray:none;stroke-opacity:1"
       id="rect1241"
       width="18"
       height="18"
       x="-6.6613381e-16"
       y="2.220446e-16" />
    <path
       inkscape:connector-curvature="0"
       style="color:#424242;fill:#eeeeee"
       class="ColorScheme-Text"
       d="M 6,2 V 3 H 4 V 4 H 14 V 3 H 12 V 2 Z M 4,5 V 7 H 14 V 5 Z m 0,3 v 2 H 14 V 8 Z m 0,3 v 2 h 10 v -2 z m 0,3 v 2 h 10 v -2 z m 0,0"
       id="path5" />
  </g>
  <g
     id="22-22-Fill90">
    <rect
       y="2.220446e-16"
       x="22"
       height="18"
       width="18"
       id="rect989"
       style="fill:#eeeeee;fill-opacity:0;stroke:none;stroke-width:4.09425926;stroke-linecap:round;stroke-linejoin:round;stroke-miterlimit:4;stroke-dasharray:none;stroke-opacity:1" />
    <path
       inkscape:connector-curvature="0"
       id="path1071"
       d="M 28,2 V 3 H 26 V 4 H 36 V 3 H 34 V 2 Z"
       style="color:#424242;fill:#eeeeee;fill-opacity:0.3137255" />
    <path
       inkscape:connector-curvature="0"
       id="path1069"
       d="M 26,5 V 7 H 36 V 5 Z m 0,3 v 2 H 36 V 8 Z m 0,3 v 2 h 10 v -2 z m 0,3 v 2 h 10 v -2 z"
       style="color:#424242;fill:#eeeeee" />
    <path
       inkscape:connector-curvature="0"
       id="path995"
       d="M 26.909091,13.090909"
       style="color:#424242;fill:currentColor;stroke-width:0.81818181" />
  </g>
  <g
     id="22-22-Fill80">
    <rect
       style="fill:#eeeeee;fill-opacity:0;stroke:none;stroke-width:4.09425926;stroke-linecap:round;stroke-linejoin:round;stroke-miterlimit:4;stroke-dasharray:none;stroke-opacity:1"
       id="rect1001"
       width="18"
       height="18"
       x="44"
       y="2.220446e-16" />
    <g
       transform="translate(42,-2)"
       id="g1009">
      <defs
         id="defs1005">
        <style
           type="text/css"
           id="style1003">
   .ColorScheme-Text { color:#424242; } .ColorScheme-Highlight { color:#eeeeee; }
  </style>
      </defs>
      <path
         style="color:#424242;fill:#eeeeee;fill-opacity:0.3137255"
         d="M 52,4 V 5 H 50 V 6 H 60 V 5 H 58 V 4 Z M 50,7 V 8 H 60 V 7 Z"
         transform="translate(-44)"
         id="path1084"
         inkscape:connector-curvature="0" />
      <path
         style="color:#424242;fill:#eeeeee"
         d="M 50,8 V 9 H 60 V 8 Z m 0,2 v 2 h 10 v -2 z m 0,3 v 2 h 10 v -2 z m 0,3 v 2 h 10 v -2 z"
         transform="translate(-44)"
         id="path1082"
         inkscape:connector-curvature="0" />
      <path
         style="color:#424242;fill:currentColor"
         d="M 6,16"
         id="path1007"
         inkscape:connector-curvature="0" />
    </g>
  </g>
  <g
     id="22-22-Fill70">
    <rect
       y="2.220446e-16"
       x="66"
       height="18"
       width="18"
       id="rect1013"
       style="fill:#eeeeee;fill-opacity:0;stroke:none;stroke-width:4.09425926;stroke-linecap:round;stroke-linejoin:round;stroke-miterlimit:4;stroke-dasharray:none;stroke-opacity:1" />
    <g
       transform="translate(64,-2)"
       id="g1021">
      <defs
         id="defs1017">
        <style
           id="style1015"
           type="text/css">
   .ColorScheme-Text { color:#424242; } .ColorScheme-Highlight { color:#eeeeee; }
  </style>
      </defs>
      <path
         style="color:#424242;fill:#eeeeee;fill-opacity:0.3137255"
         d="M 74,4 V 5 H 72 V 6 H 82 V 5 H 80 V 4 Z M 72,7 V 9 H 82 V 7 Z"
         transform="translate(-66)"
         id="path1099"
         inkscape:connector-curvature="0" />
      <path
         style="color:#424242;fill:#eeeeee"
         d="m 72,10 v 2 h 10 v -2 z m 0,3 v 2 h 10 v -2 z m 0,3 v 2 h 10 v -2 z"
         transform="translate(-66)"
         id="path1095"
         inkscape:connector-curvature="0" />
      <path
         style="color:#424242;fill:currentColor"
         d="M 6,16"
         id="path1019"
         inkscape:connector-curvature="0" />
    </g>
  </g>
  <g
     id="22-22-Fill60">
    <rect
       style="fill:#eeeeee;fill-opacity:0;stroke:none;stroke-width:4.09425926;stroke-linecap:round;stroke-linejoin:round;stroke-miterlimit:4;stroke-dasharray:none;stroke-opacity:1"
       id="rect1025"
       width="18"
       height="18"
       x="88"
       y="2.220446e-16" />
    <g
       transform="translate(86,-2)"
       id="g1033">
      <defs
         id="defs1029">
        <style
           type="text/css"
           id="style1027">
   .ColorScheme-Text { color:#424242; } .ColorScheme-Highlight { color:#eeeeee; }
  </style>
      </defs>
      <path
         style="color:#424242;fill:#eeeeee;fill-opacity:0.3137255"
         d="m 96,4 v 1 h -2 v 1 h 10 V 5 h -2 V 4 Z m -2,3 v 2 h 10 V 7 Z m 0,3 v 1 h 10 v -1 z"
         transform="translate(-88)"
         id="path1112"
         inkscape:connector-curvature="0" />
      <path
         style="color:#424242;fill:#eeeeee"
         d="m 94,11 v 1 h 10 v -1 z m 0,2 v 2 h 10 v -2 z m 0,3 v 2 h 10 v -2 z"
         transform="translate(-88)"
         id="path1108"
         inkscape:connector-curvature="0" />
      <path
         style="color:#424242;fill:currentColor"
         d="M 6,16"
         id="path1031"
         inkscape:connector-curvature="0" />
    </g>
  </g>
  <g
     id="22-22-Fill50">
    <rect
       y="2.220446e-16"
       x="110"
       height="18"
       width="18"
       id="rect1037"
       style="fill:#eeeeee;fill-opacity:0;stroke:none;stroke-width:4.09425926;stroke-linecap:round;stroke-linejoin:round;stroke-miterlimit:4;stroke-dasharray:none;stroke-opacity:1" />
    <g
       transform="translate(108,-2)"
       id="g1045">
      <defs
         id="defs1041">
        <style
           id="style1039"
           type="text/css">
   .ColorScheme-Text { color:#424242; } .ColorScheme-Highlight { color:#eeeeee; }
  </style>
      </defs>
      <path
         style="color:#424242;fill:#eeeeee;fill-opacity:0.3137255"
         d="m 118,4 v 1 h -2 v 1 h 10 V 5 h -2 V 4 Z m -2,3 v 2 h 10 V 7 Z m 0,3 v 2 h 10 v -2 z"
         transform="translate(-110)"
         id="path1126"
         inkscape:connector-curvature="0" />
      <path
         style="color:#424242;fill:#eeeeee"
         d="m 116,13 v 2 h 10 v -2 z m 0,3 v 2 h 10 v -2 z"
         transform="translate(-110)"
         id="path1120"
         inkscape:connector-curvature="0" />
      <path
         style="color:#424242;fill:currentColor"
         d="M 6,16"
         id="path1043"
         inkscape:connector-curvature="0" />
    </g>
  </g>
  <g
     id="22-22-Fill40">
    <rect
       style="fill:#eeeeee;fill-opacity:0;stroke:none;stroke-width:4.09425926;stroke-linecap:round;stroke-linejoin:round;stroke-miterlimit:4;stroke-dasharray:none;stroke-opacity:1"
       id="rect1049"
       width="18"
       height="18"
       x="132"
       y="2.220446e-16" />
    <g
       transform="translate(130,-2)"
       id="g1057">
      <defs
         id="defs1053">
        <style
           type="text/css"
           id="style1051">
   .ColorScheme-Text { color:#424242; } .ColorScheme-Highlight { color:#eeeeee; }
  </style>
      </defs>
      <path
         style="color:#424242;fill:#eeeeee;fill-opacity:0.3137255"
         d="m 140,4 v 1 h -2 v 1 h 10 V 5 h -2 V 4 Z m -2,3 v 2 h 10 V 7 Z m 0,3 v 2 h 10 v -2 z m 0,3 v 1 h 10 v -1 z"
         transform="translate(-132)"
         id="path1142"
         inkscape:connector-curvature="0" />
      <path
         style="color:#424242;fill:#eeeeee"
         d="m 138,14 v 1 h 10 v -1 z m 0,2 v 2 h 10 v -2 z"
         transform="translate(-132)"
         id="path1136"
         inkscape:connector-curvature="0" />
      <path
         style="color:#424242;fill:currentColor"
         d="M 6,16"
         id="path1055"
         inkscape:connector-curvature="0" />
    </g>
  </g>
  <g
     id="g1242">
    <rect
       style="fill:#eeeeee;fill-opacity:0;stroke:none;stroke-width:4.09425926;stroke-linecap:round;stroke-linejoin:round;stroke-miterlimit:4;stroke-dasharray:none;stroke-opacity:1"
       id="rect1148"
       width="18"
       height="18"
       x="154"
       y="2.220446e-16" />
    <g
       transform="translate(152,-2)"
       id="g1160">
      <defs
         id="defs1152">
        <style
           type="text/css"
           id="style1150">
   .ColorScheme-Text { color:#424242; } .ColorScheme-Highlight { color:#eeeeee; }
  </style>
      </defs>
      <path
         style="color:#424242;fill:#eeeeee;fill-opacity:0.3137255"
         d="m 162,4 v 1 h -2 v 1 h 10 V 5 h -2 V 4 Z m -2,3 v 2 h 10 V 7 Z m 0,3 v 2 h 10 v -2 z m 0,3 v 2 h 10 v -2 z"
         transform="translate(-154)"
         id="path1154"
         inkscape:connector-curvature="0" />
      <path
         style="color:#424242;fill:#eeeeee"
         d="m 116,16 v 2 h 10 v -2 z"
         transform="translate(-110)"
         id="path1156"
         inkscape:connector-curvature="0" />
      <path
         id="path1158"
         d="M 6,16"
         style="color:#424242;fill:currentColor"
         inkscape:connector-curvature="0" />
    </g>
  </g>
  <g
     id="22-22-Fill20">
    <rect
       y="2.220446e-16"
       x="176"
       height="18"
       width="18"
       id="rect1169"
       style="fill:#eeeeee;fill-opacity:0;stroke:none;stroke-width:4.09425926;stroke-linecap:round;stroke-linejoin:round;stroke-miterlimit:4;stroke-dasharray:none;stroke-opacity:1" />
    <g
       transform="translate(174,-2)"
       id="g1181">
      <defs
         id="defs1173">
        <style
           id="style1171"
           type="text/css">
   .ColorScheme-Text { color:#424242; } .ColorScheme-Highlight { color:#eeeeee; }
  </style>
      </defs>
      <path
         style="color:#424242;fill:#eeeeee;fill-opacity:0.3137255"
         d="m 184,4 v 1 h -2 v 1 h 10 V 5 h -2 V 4 Z m -2,3 v 2 h 10 V 7 Z m 0,3 v 2 h 10 v -2 z m 0,3 v 2 h 10 v -2 z m 0,3 v 1 h 10 v -1 z"
         transform="translate(-176)"
         id="path1175"
         inkscape:connector-curvature="0" />
      <path
         id="path1177"
         transform="translate(-110)"
         d="m 116,17 v 1 h 10 v -1 z"
         style="color:#424242;fill:#eeeeee"
         inkscape:connector-curvature="0"
         sodipodi:nodetypes="ccccc" />
      <path
         inkscape:connector-curvature="0"
         style="color:#424242;fill:currentColor"
         d="M 6,16"
         id="path1179" />
    </g>
  </g>
  <g
     id="22-22-Fill10">
    <rect
       style="fill:#eeeeee;fill-opacity:0;stroke:none;stroke-width:4.09425926;stroke-linecap:round;stroke-linejoin:round;stroke-miterlimit:4;stroke-dasharray:none;stroke-opacity:1"
       id="rect1188"
       width="18"
       height="18"
       x="198"
       y="2.220446e-16" />
    <g
       transform="translate(196,-2)"
       id="g1200">
      <defs
         id="defs1192">
        <style
           type="text/css"
           id="style1190">
   .ColorScheme-Text { color:#424242; } .ColorScheme-Highlight { color:#eeeeee; }
  </style>
      </defs>
      <path
         id="path1194"
         transform="translate(-176)"
         d="m 184,4 v 1 h -2 v 1 h 10 V 5 h -2 V 4 Z m -2,3 v 2 h 10 V 7 Z m 0,3 v 2 h 10 v -2 z m 0,3 v 2 h 10 v -2 z m 0,3 v 1 h 10 v -1 z"
         style="color:#424242;fill:#eeeeee;fill-opacity:0.3137255"
         inkscape:connector-curvature="0" />
      <path
         sodipodi:nodetypes="ccccc"
         inkscape:connector-curvature="0"
         style="color:#424242;fill:#ef5350"
         d="m 116,17 v 1 h 10 v -1 z"
         transform="translate(-110)"
         id="path1196" />
      <path
         id="path1198"
         d="M 6,16"
         style="color:#424242;fill:currentColor"
         inkscape:connector-curvature="0" />
    </g>
  </g>
  <g
     id="22-22-Fill0">
    <rect
       y="2.220446e-16"
       x="220"
       height="18"
       width="18"
       id="rect1204"
       style="fill:#eeeeee;fill-opacity:0;stroke:none;stroke-width:4.09425926;stroke-linecap:round;stroke-linejoin:round;stroke-miterlimit:4;stroke-dasharray:none;stroke-opacity:1" />
    <g
       transform="translate(218,-2)"
       id="g1216">
      <defs
         id="defs1208">
        <style
           id="style1206"
           type="text/css">
   .ColorScheme-Text { color:#424242; } .ColorScheme-Highlight { color:#eeeeee; }
  </style>
      </defs>
      <path
         style="color:#424242;fill:#ef5350;fill-opacity:1"
         d="m 228,4 v 1 h -2 v 1 h 10 V 5 h -2 V 4 Z m -2,3 v 2 h 10 V 7 Z m 0,3 v 2 h 10 v -2 z m 0,3 v 2 h 10 v -2 z m 0,3 v 1 1 h 10 v -1 -1 z"
         transform="translate(-220)"
         id="path1210"
         inkscape:connector-curvature="0" />
      <path
         inkscape:connector-curvature="0"
         style="color:#424242;fill:currentColor"
         d="M 6,16"
         id="path1214" />
    </g>
  </g>
  <g
     id="Fill100">
    <rect
       y="-59"
       x="1"
       height="20"
       width="20"
       id="rect1297"
       style="fill:#424242;fill-opacity:0;stroke:none;stroke-width:4.54917717;stroke-linecap:round;stroke-linejoin:round;stroke-miterlimit:4;stroke-dasharray:none;stroke-opacity:1" />
    <g
       transform="translate(0,-60)"
       id="g1305">
      <defs
         id="defs1301">
        <style
           id="style1299"
           type="text/css">
   .ColorScheme-Text { color:#424242; } .ColorScheme-Highlight { color:#eeeeee; }
  </style>
      </defs>
      <path
         inkscape:connector-curvature="0"
         style="color:#424242;fill:#eeeeee"
         class="ColorScheme-Text"
         d="M 8,4 V 5 H 6 V 6 H 16 V 5 H 14 V 4 Z M 6,7 V 9 H 16 V 7 Z m 0,3 v 2 h 10 v -2 z m 0,3 v 2 h 10 v -2 z m 0,3 v 2 h 10 v -2 z m 0,0"
         id="path1303" />
    </g>
  </g>
  <g
     id="Fill90">
    <rect
       style="fill:#424242;fill-opacity:0;stroke:none;stroke-width:4.54917717;stroke-linecap:round;stroke-linejoin:round;stroke-miterlimit:4;stroke-dasharray:none;stroke-opacity:1"
       id="rect1309"
       width="20"
       height="20"
       x="25"
       y="-59" />
    <g
       transform="translate(23.999999,-60)"
       id="g1321">
      <defs
         id="defs1313">
        <style
           type="text/css"
           id="style1311">
   .ColorScheme-Text { color:#424242; } .ColorScheme-Highlight { color:#eeeeee; }
  </style>
      </defs>
      <path
         id="path1315"
         d="M 8,4 V 5 H 6 V 6 H 16 V 5 H 14 V 4 Z"
         style="color:#424242;fill:#eeeeee;fill-opacity:0.3137255"
         inkscape:connector-curvature="0" />
      <path
         id="path1317"
         transform="translate(-22)"
         d="M 28,7 V 9 H 38 V 7 Z m 0,3 v 2 h 10 v -2 z m 0,3 v 2 h 10 v -2 z m 0,3 v 2 h 10 v -2 z"
         style="color:#424242;fill:#eeeeee"
         inkscape:connector-curvature="0" />
      <path
         id="path1319"
         d="M 6,16"
         style="color:#424242;fill:currentColor"
         inkscape:connector-curvature="0" />
    </g>
  </g>
  <g
     id="Fill80">
    <rect
       y="-59"
       x="49"
       height="20"
       width="20"
       id="rect1325"
       style="fill:#424242;fill-opacity:0;stroke:none;stroke-width:4.54917717;stroke-linecap:round;stroke-linejoin:round;stroke-miterlimit:4;stroke-dasharray:none;stroke-opacity:1" />
    <g
       transform="translate(47.999999,-60)"
       id="g1343">
      <defs
         id="defs1329">
        <style
           id="style1327"
           type="text/css">
   .ColorScheme-Text { color:#424242; } .ColorScheme-Highlight { color:#eeeeee; }
  </style>
      </defs>
      <path
         id="path1331"
         transform="translate(-44)"
         d="M 52,4 V 5 H 50 V 6 H 60 V 5 H 58 V 4 Z M 50,7 V 8 H 60 V 7 Z"
         style="color:#424242;fill:#eeeeee;fill-opacity:0.3137255"
         inkscape:connector-curvature="0" />
      <path
         style="color:#424242;fill:#eeeeee"
         d="m 54,-48 v 1 h 10 v -1 z m 0,2 v 2 h 10 v -2 z m 0,3 v 2 h 10 v -2 z m 0,3 v 2 h 10 v -2 z"
         transform="translate(-47.999999,56)"
         id="path1333"
         inkscape:connector-curvature="0" />
      <path
         id="path1341"
         d="M 6,16"
         style="color:#424242;fill:currentColor"
         inkscape:connector-curvature="0" />
    </g>
  </g>
  <g
     id="Fill70">
    <rect
       style="fill:#424242;fill-opacity:0;stroke:none;stroke-width:4.54917717;stroke-linecap:round;stroke-linejoin:round;stroke-miterlimit:4;stroke-dasharray:none;stroke-opacity:1"
       id="rect1347"
       width="20"
       height="20"
       x="73"
       y="-59" />
    <g
       transform="translate(72.000003,-60)"
       id="g1359">
      <defs
         id="defs1351">
        <style
           type="text/css"
           id="style1349">
   .ColorScheme-Text { color:#424242; } .ColorScheme-Highlight { color:#eeeeee; }
  </style>
      </defs>
      <path
         id="path1353"
         transform="translate(-66)"
         d="M 74,4 V 5 H 72 V 6 H 82 V 5 H 80 V 4 Z M 72,7 V 9 H 82 V 7 Z"
         style="color:#424242;fill:#eeeeee;fill-opacity:0.3137255"
         inkscape:connector-curvature="0" />
      <path
         id="path1355"
         transform="translate(-66)"
         d="m 72,10 v 2 h 10 v -2 z m 0,3 v 2 h 10 v -2 z m 0,3 v 2 h 10 v -2 z"
         style="color:#424242;fill:#eeeeee"
         inkscape:connector-curvature="0" />
      <path
         id="path1357"
         d="M 6,16"
         style="color:#424242;fill:currentColor"
         inkscape:connector-curvature="0" />
    </g>
  </g>
  <g
     id="Fill60">
    <rect
       y="-59"
       x="97"
       height="20"
       width="20"
       id="rect1363"
       style="fill:#424242;fill-opacity:0;stroke:none;stroke-width:4.54917717;stroke-linecap:round;stroke-linejoin:round;stroke-miterlimit:4;stroke-dasharray:none;stroke-opacity:1" />
    <g
       transform="translate(96.000011,-60)"
       id="g1379">
      <defs
         id="defs1367">
        <style
           id="style1365"
           type="text/css">
   .ColorScheme-Text { color:#424242; } .ColorScheme-Highlight { color:#eeeeee; }
  </style>
      </defs>
      <path
         style="color:#424242;fill:#eeeeee;fill-opacity:0.3137255"
         d="m 104,-52 v 1 h -2 v 1 h 10 v -1 h -2 v -1 z m -2,3 v 2 h 10 v -2 z m 0,3 v 1 h 10 v -1 z"
         transform="translate(-96.000011,56)"
         id="path1369"
         inkscape:connector-curvature="0" />
      <path
         id="path1373"
         transform="translate(-88)"
         d="m 94,11 v 1 h 10 v -1 z m 0,2 v 2 h 10 v -2 z m 0,3 v 2 h 10 v -2 z"
         style="color:#424242;fill:#eeeeee"
         inkscape:connector-curvature="0" />
      <path
         id="path1375"
         d="M 6,16"
         style="color:#424242;fill:currentColor"
         inkscape:connector-curvature="0" />
    </g>
  </g>
  <g
     id="Fill50">
    <rect
       style="fill:#424242;fill-opacity:0;stroke:none;stroke-width:4.54917717;stroke-linecap:round;stroke-linejoin:round;stroke-miterlimit:4;stroke-dasharray:none;stroke-opacity:1"
       id="rect1383"
       width="20"
       height="20"
       x="121"
       y="-59" />
    <g
       transform="translate(120.00002,-60)"
       id="g1395">
      <defs
         id="defs1387">
        <style
           type="text/css"
           id="style1385">
   .ColorScheme-Text { color:#424242; } .ColorScheme-Highlight { color:#eeeeee; }
  </style>
      </defs>
      <path
         id="path1389"
         transform="translate(-110)"
         d="m 118,4 v 1 h -2 v 1 h 10 V 5 h -2 V 4 Z m -2,3 v 2 h 10 V 7 Z m 0,3 v 2 h 10 v -2 z"
         style="color:#424242;fill:#eeeeee;fill-opacity:0.3137255"
         inkscape:connector-curvature="0" />
      <path
         id="path1391"
         transform="translate(-110)"
         d="m 116,13 v 2 h 10 v -2 z m 0,3 v 2 h 10 v -2 z"
         style="color:#424242;fill:#eeeeee"
         inkscape:connector-curvature="0" />
      <path
         id="path1393"
         d="M 6,16"
         style="color:#424242;fill:currentColor"
         inkscape:connector-curvature="0" />
    </g>
  </g>
  <g
     id="Fill40">
    <rect
       y="-59"
       x="145"
       height="20"
       width="20"
       id="rect1399"
       style="fill:#424242;fill-opacity:0;stroke:none;stroke-width:4.54917717;stroke-linecap:round;stroke-linejoin:round;stroke-miterlimit:4;stroke-dasharray:none;stroke-opacity:1" />
    <g
       transform="translate(144,-60)"
       id="g1411">
      <defs
         id="defs1403">
        <style
           id="style1401"
           type="text/css">
   .ColorScheme-Text { color:#424242; } .ColorScheme-Highlight { color:#eeeeee; }
  </style>
      </defs>
      <path
         id="path1405"
         transform="translate(-132)"
         d="m 140,4 v 1 h -2 v 1 h 10 V 5 h -2 V 4 Z m -2,3 v 2 h 10 V 7 Z m 0,3 v 2 h 10 v -2 z m 0,3 v 1 h 10 v -1 z"
         style="color:#424242;fill:#eeeeee;fill-opacity:0.3137255"
         inkscape:connector-curvature="0" />
      <path
         id="path1407"
         transform="translate(-132)"
         d="m 138,14 v 1 h 10 v -1 z m 0,2 v 2 h 10 v -2 z"
         style="color:#424242;fill:#eeeeee"
         inkscape:connector-curvature="0" />
      <path
         id="path1409"
         d="M 6,16"
         style="color:#424242;fill:currentColor"
         inkscape:connector-curvature="0" />
    </g>
  </g>
  <g
     id="Fill30">
    <rect
       y="-59"
       x="169"
       height="20"
       width="20"
       id="rect1415"
       style="fill:#424242;fill-opacity:0;stroke:none;stroke-width:4.54917717;stroke-linecap:round;stroke-linejoin:round;stroke-miterlimit:4;stroke-dasharray:none;stroke-opacity:1" />
    <g
       transform="translate(168,-60)"
       id="g1427">
      <defs
         id="defs1419">
        <style
           id="style1417"
           type="text/css">
   .ColorScheme-Text { color:#424242; } .ColorScheme-Highlight { color:#eeeeee; }
  </style>
      </defs>
      <path
         id="path1421"
         transform="translate(-154)"
         d="m 162,4 v 1 h -2 v 1 h 10 V 5 h -2 V 4 Z m -2,3 v 2 h 10 V 7 Z m 0,3 v 2 h 10 v -2 z m 0,3 v 2 h 10 v -2 z"
         style="color:#424242;fill:#eeeeee;fill-opacity:0.3137255"
         inkscape:connector-curvature="0" />
      <path
         id="path1423"
         transform="translate(-110)"
         d="m 116,16 v 2 h 10 v -2 z"
         style="color:#424242;fill:#eeeeee"
         inkscape:connector-curvature="0" />
      <path
         inkscape:connector-curvature="0"
         style="color:#424242;fill:currentColor"
         d="M 6,16"
         id="path1425" />
    </g>
  </g>
  <g
     id="Fill20">
    <rect
       style="fill:#424242;fill-opacity:0;stroke:none;stroke-width:4.54917717;stroke-linecap:round;stroke-linejoin:round;stroke-miterlimit:4;stroke-dasharray:none;stroke-opacity:1"
       id="rect1431"
       width="20"
       height="20"
       x="193"
       y="-59" />
    <g
       style="fill:#424242;fill-opacity:0.62598422"
       transform="translate(192,-60)"
       id="g1443">
      <defs
         id="defs1435">
        <style
           type="text/css"
           id="style1433">
   .ColorScheme-Text { color:#424242; } .ColorScheme-Highlight { color:#eeeeee; }
  </style>
      </defs>
      <path
         id="path1437"
         transform="translate(-176)"
         d="m 184,4 v 1 h -2 v 1 h 10 V 5 h -2 V 4 Z m -2,3 v 2 h 10 V 7 Z m 0,3 v 2 h 10 v -2 z m 0,3 v 2 h 10 v -2 z m 0,3 v 1 h 10 v -1 z"
         style="color:#424242;fill:#eeeeee;fill-opacity:0.3137255"
         inkscape:connector-curvature="0" />
      <path
         sodipodi:nodetypes="ccccc"
         inkscape:connector-curvature="0"
         style="color:#424242;fill:#eeeeee;fill-opacity:1"
         d="m 116,17 v 1 h 10 v -1 z"
         transform="translate(-110)"
         id="path1439" />
      <path
         id="path1441"
         d="M 6,16"
         style="color:#424242;fill:#424242;fill-opacity:0.62598422"
         inkscape:connector-curvature="0" />
    </g>
  </g>
  <g
     id="Fill10">
    <rect
       y="-59"
       x="217"
       height="20"
       width="20"
       id="rect1447"
       style="fill:#424242;fill-opacity:0;stroke:none;stroke-width:4.54917717;stroke-linecap:round;stroke-linejoin:round;stroke-miterlimit:4;stroke-dasharray:none;stroke-opacity:1" />
    <g
       style="fill:#424242;fill-opacity:0.62598422"
       transform="translate(216,-60)"
       id="g1459">
      <defs
         id="defs1451">
        <style
           id="style1449"
           type="text/css">
   .ColorScheme-Text { color:#424242; } .ColorScheme-Highlight { color:#eeeeee; }
  </style>
      </defs>
      <path
         inkscape:connector-curvature="0"
         style="color:#424242;fill:#eeeeee;fill-opacity:0.3137255"
         d="m 184,4 v 1 h -2 v 1 h 10 V 5 h -2 V 4 Z m -2,3 v 2 h 10 V 7 Z m 0,3 v 2 h 10 v -2 z m 0,3 v 2 h 10 v -2 z m 0,3 v 1 h 10 v -1 z"
         transform="translate(-176)"
         id="path1453" />
      <path
         id="path1455"
         transform="translate(-110)"
         d="m 116,17 v 1 h 10 v -1 z"
         style="color:#424242;fill:#ef5350;fill-opacity:1"
         inkscape:connector-curvature="0"
         sodipodi:nodetypes="ccccc" />
      <path
         inkscape:connector-curvature="0"
         style="color:#424242;fill:#424242;fill-opacity:0.62598422"
         d="M 6,16"
         id="path1457" />
    </g>
  </g>
  <g
     id="Fill0">
    <rect
       style="fill:#424242;fill-opacity:0;stroke:none;stroke-width:4.54917669;stroke-linecap:round;stroke-linejoin:round;stroke-miterlimit:4;stroke-dasharray:none;stroke-opacity:1"
       id="rect1463"
       width="20"
       height="20"
       x="241"
       y="-59" />
    <g
       style="fill:#424242;fill-opacity:0.62598422"
       transform="translate(240,-60)"
       id="g1473">
      <defs
         id="defs1467">
        <style
           type="text/css"
           id="style1465">
   .ColorScheme-Text { color:#424242; } .ColorScheme-Highlight { color:#eeeeee; }
  </style>
      </defs>
      <path
         id="path1469"
         transform="translate(-220)"
         d="m 228,4 v 1 h -2 v 1 h 10 V 5 h -2 V 4 Z m -2,3 v 2 h 10 V 7 Z m 0,3 v 2 h 10 v -2 z m 0,3 v 2 h 10 v -2 z m 0,3 v 1 1 h 10 v -1 -1 z"
         style="color:#424242;fill:#ef5350;fill-opacity:1"
         inkscape:connector-curvature="0" />
      <path
         id="path1471"
         d="M 6,16"
         style="color:#424242;fill:#424242;fill-opacity:0.62598422"
         inkscape:connector-curvature="0" />
    </g>
  </g>
  <g
     id="22-22-Battery">
    <rect
       style="fill:#eeeeee;fill-opacity:0;stroke:none;stroke-width:4.09425926;stroke-linecap:round;stroke-linejoin:round;stroke-miterlimit:4;stroke-dasharray:none;stroke-opacity:1"
       id="rect1731"
       width="18"
       height="18"
       x="-22"
       y="2.220446e-16" />
    <g
       transform="translate(-24,-2)"
       id="g1741">
      <defs
         id="defs1735">
        <style
           type="text/css"
           id="style1733">
   .ColorScheme-Text { color:#424242; } .ColorScheme-Highlight { color:#eeeeee; }
  </style>
      </defs>
      <path
         id="path1737"
         transform="translate(-220)"
         d="m 228,4 v 1 h -2 v 1 h 10 V 5 h -2 V 4 Z m -2,3 v 2 h 10 V 7 Z m 0,3 v 2 h 10 v -2 z m 0,3 v 2 h 10 v -2 z m 0,3 v 1 1 h 10 v -1 -1 z"
         style="color:#424242;fill:#eeeeee;fill-opacity:0.3137255"
         inkscape:connector-curvature="0" />
      <path
         id="path1739"
         d="M 6,16"
         style="color:#424242;fill:currentColor"
         inkscape:connector-curvature="0" />
    </g>
  </g>
  <g
     id="Battery">
    <rect
       y="-59"
       x="-23"
       height="20"
       width="20"
       id="rect1745"
       style="fill:#424242;fill-opacity:0;stroke:none;stroke-width:4.54917669;stroke-linecap:round;stroke-linejoin:round;stroke-miterlimit:4;stroke-dasharray:none;stroke-opacity:1" />
    <g
       id="g1755"
       transform="translate(-24,-60)"
       style="fill:#424242;fill-opacity:0.62598422">
      <defs
         id="defs1749">
        <style
           id="style1747"
           type="text/css">
   .ColorScheme-Text { color:#424242; } .ColorScheme-Highlight { color:#eeeeee; }
  </style>
      </defs>
      <path
         inkscape:connector-curvature="0"
         style="color:#424242;fill:#eeeeee;fill-opacity:0.3137255"
         d="m 228,4 v 1 h -2 v 1 h 10 V 5 h -2 V 4 Z m -2,3 v 2 h 10 V 7 Z m 0,3 v 2 h 10 v -2 z m 0,3 v 2 h 10 v -2 z m 0,3 v 1 1 h 10 v -1 -1 z"
         transform="translate(-220)"
         id="path1751" />
      <path
         inkscape:connector-curvature="0"
         style="color:#424242;fill:#424242;fill-opacity:0.62598422"
         d="M 6,16"
         id="path1753" />
    </g>
  </g>
  <g
     id="battery-ups">
    <rect
       style="fill:#424242;fill-opacity:0;stroke:none;stroke-width:4.54917717;stroke-linecap:round;stroke-linejoin:round;stroke-miterlimit:4;stroke-dasharray:none;stroke-opacity:1"
       id="rect1771"
       width="20"
       height="20"
       x="-47"
       y="-59" />
    <path
       inkscape:connector-curvature="0"
       style="color:#424242;fill:#eeeeee"
       class="ColorScheme-Text"
       d="m -40,-56 v 1 h -2 v 1 h 10 v -1 h -2 v -1 z m -2,3 v 2 h 10 v -2 z m 0,3 v 2 h 10 v -2 z m 0,3 v 2 h 10 v -2 z m 0,3 v 2 h 10 v -2 z m 0,0"
       id="path1777" />
    <path
       id="path7-5"
       d="m -35.75,-54 -3.75,5 2.5,1.25 -1.25,3.75 3.75,-5 -2.5,-1.25 z m 0,0"
       style="fill:#ff7043;fill-opacity:1;fill-rule:nonzero;stroke:none;stroke-width:1.25"
       inkscape:connector-curvature="0" />
  </g>
  <g
     id="22-22-battery-ups">
    <rect
       y="2.220446e-16"
       x="-44"
       height="18"
       width="18"
       id="rect1759"
       style="fill:#eeeeee;fill-opacity:0;stroke:none;stroke-width:4.09425926;stroke-linecap:round;stroke-linejoin:round;stroke-miterlimit:4;stroke-dasharray:none;stroke-opacity:1" />
    <path
       id="path1765"
       d="m -38,2 v 1 h -2 v 1 h 10 V 3 h -2 V 2 Z m -2,3 v 2 h 10 V 5 Z m 0,3 v 2 h 10 V 8 Z m 0,3 v 2 h 10 v -2 z m 0,3 v 2 h 10 v -2 z m 0,0"
       class="ColorScheme-Text"
       style="color:#424242;fill:#eeeeee"
       inkscape:connector-curvature="0" />
    <path
       inkscape:connector-curvature="0"
       style="fill:#ff7043;fill-opacity:1;fill-rule:nonzero;stroke:none;stroke-width:1.25"
       d="M -33.75,4 -37.5,9 -35,10.25 -36.25,14 -32.5,9 -35,7.75 Z m 0,0"
       id="path1791" />
  </g>
  <g
     id="AcAdapter">
    <rect
       y="-33"
       x="25"
       height="20"
       width="20"
       id="rect1134"
       style="fill:#424242;fill-opacity:0;stroke:none;stroke-width:4.54917717;stroke-linecap:round;stroke-linejoin:round;stroke-miterlimit:4;stroke-dasharray:none;stroke-opacity:1" />
    <path
       inkscape:connector-curvature="0"
       style="fill:#ff7043;fill-opacity:1;fill-rule:nonzero;stroke:none;stroke-width:1.25"
       d="m 36.25,-28 -3.75,5 2.5,1.25 -1.25,3.75 3.75,-5 -2.5,-1.25 z m 0,0"
       id="path1144" />
  </g>
  <g
     transform="matrix(0.81818182,0,0,0.81818182,-21,25)"
     id="g1233">
    <rect
       style="fill:#eeeeee;fill-opacity:0;stroke:none;stroke-width:5.0040946;stroke-linecap:round;stroke-linejoin:round;stroke-miterlimit:4;stroke-dasharray:none;stroke-opacity:1"
       id="rect1221"
       width="22"
       height="22"
       x="0"
       y="0" />
    <g
       id="g1231">
      <defs
         id="defs1225">
        <style
           type="text/css"
           id="style1223">
   .ColorScheme-Text { color:#424242; } .ColorScheme-Highlight { color:#eeeeee; }
  </style>
      </defs>
      <path
         id="path1229"
         d="M 6,16"
         style="color:#424242;fill:currentColor"
         inkscape:connector-curvature="0" />
    </g>
  </g>
  <path
     id="path1115"
     d="m 3,27 v 1 H 1 v 1 H 11 V 28 H 9 v -1 z m -2,3 v 2 h 10 v -2 z m 0,3 v 2 h 10 v -2 z m 0,3 v 2 h 10 v -2 z m 0,3 v 2 h 10 v -2 z m 0,0"
     class="ColorScheme-Text"
     style="color:#424242;fill:#eeeeee"
     inkscape:connector-curvature="0" />
  <g
     id="22-22-Unavailable">
    <rect
       style="fill:#eeeeee;fill-opacity:0;stroke:none;stroke-width:4.09425926;stroke-linecap:round;stroke-linejoin:round;stroke-miterlimit:4;stroke-dasharray:none;stroke-opacity:1"
       id="rect1172"
       width="18"
       height="18"
       x="-3"
       y="25" />
    <path
       inkscape:connector-curvature="0"
       id="rect1149"
       d="m 7.1715721,37.757359 1.414213,1.414214 -1.414213,1.414214 L 8.5857851,42 10,40.585787 11.414213,42 12.828427,40.585787 11.414213,39.171573 12.828427,37.757359 11.414213,36.343146 10,37.757359 8.5857851,36.343146 Z"
       style="fill:#ef5350;fill-opacity:1;stroke:none;stroke-width:34.01574707;stroke-linecap:round;stroke-linejoin:bevel;stroke-miterlimit:4;stroke-dasharray:none;stroke-opacity:1" />
  </g>
  <g
     id="Unavailable">
    <g
       style="fill:#424242;fill-opacity:0"
       transform="matrix(0.9090909,0,0,0.9090909,1.0000002,-33)"
       id="g1487">
      <rect
         style="fill:#424242;fill-opacity:0;stroke:none;stroke-width:5.0040946;stroke-linecap:round;stroke-linejoin:round;stroke-miterlimit:4;stroke-dasharray:none;stroke-opacity:1"
         id="rect1477"
         width="22"
         height="22"
         x="0"
         y="0" />
      <g
         style="fill:#424242;fill-opacity:0"
         id="g1485">
        <defs
           id="defs1481">
          <style
             type="text/css"
             id="style1479">
   .ColorScheme-Text { color:#424242; } .ColorScheme-Highlight { color:#eeeeee; }
  </style>
        </defs>
        <path
           id="path1483"
           d="M 6,16"
           style="color:#424242;fill:#424242;fill-opacity:0"
           inkscape:connector-curvature="0" />
      </g>
    </g>
    <path
       style="fill:#ef5350;fill-opacity:1;stroke:none;stroke-width:34.01574707;stroke-linecap:round;stroke-linejoin:bevel;stroke-miterlimit:4;stroke-dasharray:none;stroke-opacity:1"
       d="m 12.171572,-19.242641 1.414213,1.414214 -1.414213,1.414214 L 13.585785,-15 15,-16.414213 16.414213,-15 l 1.414214,-1.414213 -1.414214,-1.414214 1.414214,-1.414214 -1.414214,-1.414213 L 15,-19.242641 13.585785,-20.656854 Z"
       id="path1191"
       inkscape:connector-curvature="0" />
  </g>
  <g
     id="22-22-AcAdapter">
    <rect
       style="fill:#424242;fill-opacity:0;stroke:none;stroke-width:4.09425926;stroke-linecap:round;stroke-linejoin:round;stroke-miterlimit:4;stroke-dasharray:none;stroke-opacity:1"
       id="rect1242"
       width="18"
       height="18"
       x="21"
       y="25" />
    <path
       id="path1244"
       d="M 31.25,29 27.5,34 30,35.25 28.75,39 32.5,34 30,32.75 Z m 0,0"
       style="fill:#ff7043;fill-opacity:1;fill-rule:nonzero;stroke:none;stroke-width:1.25"
       inkscape:connector-curvature="0" />
  </g>
</svg>
