<?xml version="1.0" encoding="UTF-8" standalone="no"?>
<svg
   xmlns:dc="http://purl.org/dc/elements/1.1/"
   xmlns:cc="http://creativecommons.org/ns#"
   xmlns:rdf="http://www.w3.org/1999/02/22-rdf-syntax-ns#"
   xmlns:svg="http://www.w3.org/2000/svg"
   xmlns="http://www.w3.org/2000/svg"
   xmlns:sodipodi="http://sodipodi.sourceforge.net/DTD/sodipodi-0.dtd"
   xmlns:inkscape="http://www.inkscape.org/namespaces/inkscape"
   width="18"
   height="18"
   viewBox="0 0 18 18"
   version="1.1"
   id="svg8"
   sodipodi:docname="configure.svg"
   inkscape:version="0.92.4 5da689c313, 2019-01-14">
  <metadata
     id="metadata14">
    <rdf:RDF>
      <cc:Work
         rdf:about="">
        <dc:format>image/svg+xml</dc:format>
        <dc:type
           rdf:resource="http://purl.org/dc/dcmitype/StillImage" />
        <dc:title></dc:title>
      </cc:Work>
    </rdf:RDF>
  </metadata>
  <defs
     id="defs12">
    <style
       id="current-color-scheme-7"
       type="text/css">
   .ColorScheme-Text { color:#424242; } .ColorScheme-Highlight { color:#eeeeee; }
  </style>
    <style
       id="current-color-scheme-9"
       type="text/css">
   .ColorScheme-Text { color:#424242; } .ColorScheme-Highlight { color:#eeeeee; }
  </style>
    <style
       id="current-color-scheme-93"
       type="text/css">
   .ColorScheme-Text { color:#424242; } .ColorScheme-Highlight { color:#eeeeee; }
  </style>
    <style
       id="current-color-scheme-6"
       type="text/css">
   .ColorScheme-Text { color:#424242; } .ColorScheme-Highlight { color:#eeeeee; }
  </style>
    <style
       id="style7"
       type="text/css">
   .ColorScheme-Text { color:#3f3f3f; } .ColorScheme-Highlight { color:#eeeeee; }
  </style>
    <style
       id="current-color-scheme-2"
       type="text/css">
   .ColorScheme-Text { color:#424242; } .ColorScheme-Highlight { color:#eeeeee; }
  </style>
    <style
       id="current-color-scheme-22"
       type="text/css">
   .ColorScheme-Text { color:#424242; } .ColorScheme-Highlight { color:#eeeeee; }
  </style>
    <style
       id="style7-7"
       type="text/css">
   .ColorScheme-Text { color:#3f3f3f; } .ColorScheme-Highlight { color:#eeeeee; }
  </style>
    <style
       id="current-color-scheme"
       type="text/css">
   .ColorScheme-Text { color:#424242; } .ColorScheme-Highlight { color:#eeeeee; }
  </style>
    <defs
       id="defs990">
      <style
         id="style988"
         type="text/css">
   .ColorScheme-Text { color:#424242; } .ColorScheme-Highlight { color:#eeeeee; }
  </style>
    </defs>
    <defs
       id="defs996">
      <style
         id="style994"
         type="text/css">
   .ColorScheme-Text { color:#3f3f3f; } .ColorScheme-Highlight { color:#eeeeee; }
  </style>
    </defs>
    <defs
       id="defs3-2">
      <style
         type="text/css"
         id="style890">
   .ColorScheme-Text { color:#424242; } .ColorScheme-Highlight { color:#eeeeee; }
  </style>
    </defs>
    <defs
       id="defs9">
      <style
         type="text/css"
         id="style894">
   .ColorScheme-Text { color:#3f3f3f; } .ColorScheme-Highlight { color:#eeeeee; }
  </style>
    </defs>
    <defs
       id="defs3-20">
      <style
         type="text/css"
         id="style908">
   .ColorScheme-Text { color:#424242; } .ColorScheme-Highlight { color:#eeeeee; }
  </style>
    </defs>
    <defs
       id="defs3-9">
      <style
         type="text/css"
         id="style926">
   .ColorScheme-Text { color:#424242; } .ColorScheme-Highlight { color:#eeeeee; }
  </style>
    </defs>
    <defs
       id="defs9-9">
      <style
         type="text/css"
         id="style930">
   .ColorScheme-Text { color:#3f3f3f; } .ColorScheme-Highlight { color:#eeeeee; }
  </style>
    </defs>
    <defs
       id="defs1012">
      <style
         id="style1010"
         type="text/css">
   .ColorScheme-Text { color:#424242; } .ColorScheme-Highlight { color:#eeeeee; }
  </style>
    </defs>
    <defs
       id="defs1018">
      <style
         id="style1016"
         type="text/css">
   .ColorScheme-Text { color:#3f3f3f; } .ColorScheme-Highlight { color:#eeeeee; }
  </style>
    </defs>
    <defs
       id="defs1048">
      <style
         id="style1046"
         type="text/css">
   .ColorScheme-Text { color:#424242; } .ColorScheme-Highlight { color:#eeeeee; }
  </style>
    </defs>
    <defs
       id="defs1034">
      <style
         id="style1032"
         type="text/css">
   .ColorScheme-Text { color:#424242; } .ColorScheme-Highlight { color:#eeeeee; }
  </style>
    </defs>
    <defs
       id="defs1040">
      <style
         id="style1038"
         type="text/css">
   .ColorScheme-Text { color:#3f3f3f; } .ColorScheme-Highlight { color:#eeeeee; }
  </style>
    </defs>
    <defs
       id="defs3">
      <style
         type="text/css"
         id="style969">
   .ColorScheme-Text { color:#424242; } .ColorScheme-Highlight { color:#eeeeee; }
  </style>
    </defs>
    <defs
       id="defs976">
      <style
         id="style974"
         type="text/css">
   .ColorScheme-Text { color:#424242; } .ColorScheme-Highlight { color:#eeeeee; }
  </style>
    </defs>
    <defs
       id="defs982">
      <style
         id="style980"
         type="text/css">
   .ColorScheme-Text { color:#3f3f3f; } .ColorScheme-Highlight { color:#eeeeee; }
  </style>
    </defs>
    <style
       id="current-color-scheme-67"
       type="text/css">
   .ColorScheme-Text { color:#424242; } .ColorScheme-Highlight { color:#eeeeee; }
  </style>
    <style
       id="current-color-scheme-62"
       type="text/css">
   .ColorScheme-Text { color:#424242; } .ColorScheme-Highlight { color:#eeeeee; }
  </style>
    <style
       id="current-color-scheme-0"
       type="text/css">
   .ColorScheme-Text { color:#424242; } .ColorScheme-Highlight { color:#eeeeee; }
  </style>
    <style
       id="current-color-scheme-5"
       type="text/css">
   .ColorScheme-Text { color:#424242; } .ColorScheme-Highlight { color:#eeeeee; }
  </style>
    <style
       id="current-color-scheme-1"
       type="text/css">
   .ColorScheme-Text { color:#424242; } .ColorScheme-Highlight { color:#eeeeee; }
  </style>
    <style
       id="current-color-scheme-60"
       type="text/css">
   .ColorScheme-Text { color:#424242; } .ColorScheme-Highlight { color:#eeeeee; }
  </style>
    <defs
       id="defs969">
      <style
         id="style967"
         type="text/css">
   .ColorScheme-Text { color:#424242; } .ColorScheme-Highlight { color:#eeeeee; }
  </style>
    </defs>
    <defs
       id="defs3-27">
      <style
         type="text/css"
         id="style953">
   .ColorScheme-Text { color:#424242; } .ColorScheme-Highlight { color:#eeeeee; }
  </style>
    </defs>
    <defs
       id="defs3-3">
      <style
         type="text/css"
         id="style905">
   .ColorScheme-Text { color:#424242; } .ColorScheme-Highlight { color:#eeeeee; }
  </style>
    </defs>
    <defs
       id="defs3-5">
      <style
         type="text/css"
         id="style929">
   .ColorScheme-Text { color:#424242; } .ColorScheme-Highlight { color:#eeeeee; }
  </style>
    </defs>
    <defs
       id="defs979">
      <style
         id="style977"
         type="text/css">
   .ColorScheme-Text { color:#424242; } .ColorScheme-Highlight { color:#eeeeee; }
  </style>
    </defs>
    <defs
       id="defs1087">
      <style
         type="text/css"
         id="style1085">
   .ColorScheme-Text { color:#424242; } .ColorScheme-Highlight { color:#eeeeee; }
  </style>
    </defs>
    <defs
       id="defs117">
      <style
         type="text/css"
         id="style115">
   .ColorScheme-Text { color:#424242; } .ColorScheme-Highlight { color:#eeeeee; }
  </style>
    </defs>
    <defs
       id="defs3-53">
      <style
         type="text/css"
         id="style1341">
   .ColorScheme-Text { color:#424242; } .ColorScheme-Highlight { color:#eeeeee; }
  </style>
    </defs>
    <defs
       id="defs1357">
      <style
         id="style1355"
         type="text/css">
   .ColorScheme-Text { color:#424242; } .ColorScheme-Highlight { color:#eeeeee; }
  </style>
    </defs>
    <defs
       id="defs1369">
      <style
         id="style1367"
         type="text/css">
   .ColorScheme-Text { color:#424242; } .ColorScheme-Highlight { color:#eeeeee; }
  </style>
    </defs>
    <defs
       id="defs1381">
      <style
         type="text/css"
         id="style1379">
   .ColorScheme-Text { color:#424242; } .ColorScheme-Highlight { color:#eeeeee; }
  </style>
    </defs>
    <defs
       id="defs3-29">
      <style
         type="text/css"
         id="style1404">
   .ColorScheme-Text { color:#424242; } .ColorScheme-Highlight { color:#eeeeee; }
  </style>
    </defs>
    <style
       id="style1207"
       type="text/css">
   .ColorScheme-Text { color:#424242; } .ColorScheme-Highlight { color:#eeeeee; }
  </style>
  </defs>
  <sodipodi:namedview
     pagecolor="#ffffff"
     bordercolor="#666666"
     borderopacity="1"
     objecttolerance="10"
     gridtolerance="10"
     guidetolerance="10"
     inkscape:pageopacity="0"
     inkscape:pageshadow="2"
     inkscape:window-width="1920"
     inkscape:window-height="1023"
     id="namedview10"
     showgrid="false"
     inkscape:zoom="5.3636363"
     inkscape:cx="-16.702358"
     inkscape:cy="2.1868246"
     inkscape:window-x="0"
     inkscape:window-y="28"
     inkscape:window-maximized="1"
     inkscape:current-layer="svg8">
    <inkscape:grid
       type="xygrid"
       id="grid837" />
  </sodipodi:namedview>
  <g
     transform="translate(-0.75,-4.25)"
     id="surface1" />
  <g
     transform="translate(20,-20)"
     id="configure">
    <rect
       style="fill:#eeeeee;fill-opacity:0;stroke:none;stroke-width:4.09425926;stroke-linecap:round;stroke-linejoin:round;stroke-miterlimit:4;stroke-dasharray:none;stroke-opacity:1"
       id="rect1154"
       width="18"
       height="18"
       x="-20"
       y="20" />
    <g
       id="g1213"
       transform="translate(-22,18)">
      <defs
         id="defs1209">
        <style
           id="style901"
           type="text/css">
   .ColorScheme-Text { color:#424242; } .ColorScheme-Highlight { color:#eeeeee; }
  </style>
      </defs>
      <path
         inkscape:connector-curvature="0"
         style="color:#424242;fill:#eeeeee"
         class="ColorScheme-Text"
         d="M 8,4 C 8.742188,4 9.386719,4.402344 9.730469,5 H 18 V 7 H 9.730469 C 9.386719,7.597656 8.742188,8 8,8 7.257812,8 6.613281,7.597656 6.269531,7 H 4 V 5 H 6.269531 C 6.613281,4.402344 7.257812,4 8,4 Z M 8,5 C 7.445312,5 7,5.445312 7,6 7,6.554688 7.445312,7 8,7 8.554688,7 9,6.554688 9,6 9,5.445312 8.554688,5 8,5 Z m 6,4 c 0.742188,0 1.386719,0.402344 1.730469,1 H 18 v 2 H 15.730469 C 15.386719,12.597656 14.742188,13 14,13 13.257812,13 12.613281,12.597656 12.269531,12 H 4 v -2 h 8.269531 C 12.613281,9.402344 13.257812,9 14,9 Z m 0,1 c -0.554688,0 -1,0.445312 -1,1 0,0.554688 0.445312,1 1,1 0.554688,0 1,-0.445312 1,-1 0,-0.554688 -0.445312,-1 -1,-1 z m -3,4 c 0.742188,0 1.386719,0.402344 1.730469,1 H 18 v 2 H 12.730469 C 12.386719,17.597656 11.742188,18 11,18 10.257812,18 9.613281,17.597656 9.269531,17 H 4 V 15 H 9.269531 C 9.613281,14.402344 10.257812,14 11,14 Z m 0,1 c -0.554688,0 -1,0.445312 -1,1 0,0.554688 0.445312,1 1,1 0.554688,0 1,-0.445312 1,-1 0,-0.554688 -0.445312,-1 -1,-1 z m 0,0"
         id="path1211" />
    </g>
  </g>
  <g
     id="16-16-configure">
    <rect
       y="21"
       x="1"
       height="16"
       width="16"
       id="rect907"
       style="fill:#eeeeee;fill-opacity:0;stroke:none;stroke-width:3.63934159;stroke-linecap:round;stroke-linejoin:round;stroke-miterlimit:4;stroke-dasharray:none;stroke-opacity:1" />
    <g
       transform="translate(-2,18)"
       id="g915">
      <defs
         id="defs911">
        <style
           type="text/css"
           id="style909">
   .ColorScheme-Text { color:#424242; } .ColorScheme-Highlight { color:#eeeeee; }
  </style>
      </defs>
      <path
         id="path913"
         d="M 8,4 C 8.742188,4 9.386719,4.402344 9.730469,5 H 18 V 7 H 9.730469 C 9.386719,7.597656 8.742188,8 8,8 7.257812,8 6.613281,7.597656 6.269531,7 H 4 V 5 H 6.269531 C 6.613281,4.402344 7.257812,4 8,4 Z M 8,5 C 7.445312,5 7,5.445312 7,6 7,6.554688 7.445312,7 8,7 8.554688,7 9,6.554688 9,6 9,5.445312 8.554688,5 8,5 Z m 6,4 c 0.742188,0 1.386719,0.402344 1.730469,1 H 18 v 2 H 15.730469 C 15.386719,12.597656 14.742188,13 14,13 13.257812,13 12.613281,12.597656 12.269531,12 H 4 v -2 h 8.269531 C 12.613281,9.402344 13.257812,9 14,9 Z m 0,1 c -0.554688,0 -1,0.445312 -1,1 0,0.554688 0.445312,1 1,1 0.554688,0 1,-0.445312 1,-1 0,-0.554688 -0.445312,-1 -1,-1 z m -3,4 c 0.742188,0 1.386719,0.402344 1.730469,1 H 18 v 2 H 12.730469 C 12.386719,17.597656 11.742188,18 11,18 10.257812,18 9.613281,17.597656 9.269531,17 H 4 V 15 H 9.269531 C 9.613281,14.402344 10.257812,14 11,14 Z m 0,1 c -0.554688,0 -1,0.445312 -1,1 0,0.554688 0.445312,1 1,1 0.554688,0 1,-0.445312 1,-1 0,-0.554688 -0.445312,-1 -1,-1 z m 0,0"
         class="ColorScheme-Text"
         style="color:#424242;fill:#eeeeee"
         inkscape:connector-curvature="0" />
    </g>
  </g>
</svg>
