<?xml version="1.0" encoding="UTF-8" standalone="no"?>
<svg
   xmlns:dc="http://purl.org/dc/elements/1.1/"
   xmlns:cc="http://creativecommons.org/ns#"
   xmlns:rdf="http://www.w3.org/1999/02/22-rdf-syntax-ns#"
   xmlns:svg="http://www.w3.org/2000/svg"
   xmlns="http://www.w3.org/2000/svg"
   xmlns:sodipodi="http://sodipodi.sourceforge.net/DTD/sodipodi-0.dtd"
   xmlns:inkscape="http://www.inkscape.org/namespaces/inkscape"
   width="18"
   height="18"
   viewBox="0 0 18 18"
   version="1.1"
   id="svg8"
   sodipodi:docname="input.svg"
   inkscape:version="0.92.4 5da689c313, 2019-01-14">
  <metadata
     id="metadata14">
    <rdf:RDF>
      <cc:Work
         rdf:about="">
        <dc:format>image/svg+xml</dc:format>
        <dc:type
           rdf:resource="http://purl.org/dc/dcmitype/StillImage" />
        <dc:title />
      </cc:Work>
    </rdf:RDF>
  </metadata>
  <defs
     id="defs12">
    <style
       id="current-color-scheme-7"
       type="text/css">
   .ColorScheme-Text { color:#424242; } .ColorScheme-Highlight { color:#eeeeee; }
  </style>
    <style
       id="current-color-scheme-9"
       type="text/css">
   .ColorScheme-Text { color:#424242; } .ColorScheme-Highlight { color:#eeeeee; }
  </style>
    <style
       id="current-color-scheme-93"
       type="text/css">
   .ColorScheme-Text { color:#424242; } .ColorScheme-Highlight { color:#eeeeee; }
  </style>
    <style
       id="current-color-scheme-6"
       type="text/css">
   .ColorScheme-Text { color:#424242; } .ColorScheme-Highlight { color:#eeeeee; }
  </style>
    <style
       id="style7"
       type="text/css">
   .ColorScheme-Text { color:#3f3f3f; } .ColorScheme-Highlight { color:#eeeeee; }
  </style>
    <style
       id="current-color-scheme-2"
       type="text/css">
   .ColorScheme-Text { color:#424242; } .ColorScheme-Highlight { color:#eeeeee; }
  </style>
    <style
       id="current-color-scheme-22"
       type="text/css">
   .ColorScheme-Text { color:#424242; } .ColorScheme-Highlight { color:#eeeeee; }
  </style>
    <style
       id="style7-7"
       type="text/css">
   .ColorScheme-Text { color:#3f3f3f; } .ColorScheme-Highlight { color:#eeeeee; }
  </style>
    <style
       id="current-color-scheme"
       type="text/css">
   .ColorScheme-Text { color:#424242; } .ColorScheme-Highlight { color:#eeeeee; }
  </style>
    <defs
       id="defs990">
      <style
         id="style988"
         type="text/css">
   .ColorScheme-Text { color:#424242; } .ColorScheme-Highlight { color:#eeeeee; }
  </style>
    </defs>
    <defs
       id="defs996">
      <style
         id="style994"
         type="text/css">
   .ColorScheme-Text { color:#3f3f3f; } .ColorScheme-Highlight { color:#eeeeee; }
  </style>
    </defs>
    <defs
       id="defs3-2">
      <style
         type="text/css"
         id="style890">
   .ColorScheme-Text { color:#424242; } .ColorScheme-Highlight { color:#eeeeee; }
  </style>
    </defs>
    <defs
       id="defs9">
      <style
         type="text/css"
         id="style894">
   .ColorScheme-Text { color:#3f3f3f; } .ColorScheme-Highlight { color:#eeeeee; }
  </style>
    </defs>
    <defs
       id="defs3-20">
      <style
         type="text/css"
         id="style908">
   .ColorScheme-Text { color:#424242; } .ColorScheme-Highlight { color:#eeeeee; }
  </style>
    </defs>
    <defs
       id="defs3-9">
      <style
         type="text/css"
         id="style926">
   .ColorScheme-Text { color:#424242; } .ColorScheme-Highlight { color:#eeeeee; }
  </style>
    </defs>
    <defs
       id="defs9-9">
      <style
         type="text/css"
         id="style930">
   .ColorScheme-Text { color:#3f3f3f; } .ColorScheme-Highlight { color:#eeeeee; }
  </style>
    </defs>
    <defs
       id="defs1012">
      <style
         id="style1010"
         type="text/css">
   .ColorScheme-Text { color:#424242; } .ColorScheme-Highlight { color:#eeeeee; }
  </style>
    </defs>
    <defs
       id="defs1018">
      <style
         id="style1016"
         type="text/css">
   .ColorScheme-Text { color:#3f3f3f; } .ColorScheme-Highlight { color:#eeeeee; }
  </style>
    </defs>
    <defs
       id="defs1048">
      <style
         id="style1046"
         type="text/css">
   .ColorScheme-Text { color:#424242; } .ColorScheme-Highlight { color:#eeeeee; }
  </style>
    </defs>
    <defs
       id="defs1034">
      <style
         id="style1032"
         type="text/css">
   .ColorScheme-Text { color:#424242; } .ColorScheme-Highlight { color:#eeeeee; }
  </style>
    </defs>
    <defs
       id="defs1040">
      <style
         id="style1038"
         type="text/css">
   .ColorScheme-Text { color:#3f3f3f; } .ColorScheme-Highlight { color:#eeeeee; }
  </style>
    </defs>
    <defs
       id="defs3">
      <style
         type="text/css"
         id="style969">
   .ColorScheme-Text { color:#424242; } .ColorScheme-Highlight { color:#eeeeee; }
  </style>
    </defs>
    <defs
       id="defs976">
      <style
         id="style974"
         type="text/css">
   .ColorScheme-Text { color:#424242; } .ColorScheme-Highlight { color:#eeeeee; }
  </style>
    </defs>
    <defs
       id="defs982">
      <style
         id="style980"
         type="text/css">
   .ColorScheme-Text { color:#3f3f3f; } .ColorScheme-Highlight { color:#eeeeee; }
  </style>
    </defs>
    <style
       id="current-color-scheme-67"
       type="text/css">
   .ColorScheme-Text { color:#424242; } .ColorScheme-Highlight { color:#eeeeee; }
  </style>
    <style
       id="current-color-scheme-62"
       type="text/css">
   .ColorScheme-Text { color:#424242; } .ColorScheme-Highlight { color:#eeeeee; }
  </style>
    <style
       id="current-color-scheme-0"
       type="text/css">
   .ColorScheme-Text { color:#424242; } .ColorScheme-Highlight { color:#eeeeee; }
  </style>
    <style
       id="current-color-scheme-5"
       type="text/css">
   .ColorScheme-Text { color:#424242; } .ColorScheme-Highlight { color:#eeeeee; }
  </style>
    <style
       id="current-color-scheme-1"
       type="text/css">
   .ColorScheme-Text { color:#424242; } .ColorScheme-Highlight { color:#eeeeee; }
  </style>
    <style
       id="current-color-scheme-60"
       type="text/css">
   .ColorScheme-Text { color:#424242; } .ColorScheme-Highlight { color:#eeeeee; }
  </style>
    <defs
       id="defs969">
      <style
         id="style967"
         type="text/css">
   .ColorScheme-Text { color:#424242; } .ColorScheme-Highlight { color:#eeeeee; }
  </style>
    </defs>
    <defs
       id="defs3-27">
      <style
         type="text/css"
         id="style953">
   .ColorScheme-Text { color:#424242; } .ColorScheme-Highlight { color:#eeeeee; }
  </style>
    </defs>
    <defs
       id="defs3-3">
      <style
         type="text/css"
         id="style905">
   .ColorScheme-Text { color:#424242; } .ColorScheme-Highlight { color:#eeeeee; }
  </style>
    </defs>
    <defs
       id="defs3-5">
      <style
         type="text/css"
         id="style929">
   .ColorScheme-Text { color:#424242; } .ColorScheme-Highlight { color:#eeeeee; }
  </style>
    </defs>
    <defs
       id="defs979">
      <style
         id="style977"
         type="text/css">
   .ColorScheme-Text { color:#424242; } .ColorScheme-Highlight { color:#eeeeee; }
  </style>
    </defs>
    <defs
       id="defs1087">
      <style
         type="text/css"
         id="style1085">
   .ColorScheme-Text { color:#424242; } .ColorScheme-Highlight { color:#eeeeee; }
  </style>
    </defs>
    <defs
       id="defs117">
      <style
         type="text/css"
         id="style115">
   .ColorScheme-Text { color:#424242; } .ColorScheme-Highlight { color:#eeeeee; }
  </style>
    </defs>
    <defs
       id="defs3-53">
      <style
         type="text/css"
         id="style1341">
   .ColorScheme-Text { color:#424242; } .ColorScheme-Highlight { color:#eeeeee; }
  </style>
    </defs>
    <defs
       id="defs1357">
      <style
         id="style1355"
         type="text/css">
   .ColorScheme-Text { color:#424242; } .ColorScheme-Highlight { color:#eeeeee; }
  </style>
    </defs>
    <defs
       id="defs1369">
      <style
         id="style1367"
         type="text/css">
   .ColorScheme-Text { color:#424242; } .ColorScheme-Highlight { color:#eeeeee; }
  </style>
    </defs>
    <defs
       id="defs1381">
      <style
         type="text/css"
         id="style1379">
   .ColorScheme-Text { color:#424242; } .ColorScheme-Highlight { color:#eeeeee; }
  </style>
    </defs>
    <defs
       id="defs3-29">
      <style
         type="text/css"
         id="style1404">
   .ColorScheme-Text { color:#424242; } .ColorScheme-Highlight { color:#eeeeee; }
  </style>
    </defs>
  </defs>
  <sodipodi:namedview
     pagecolor="#ffffff"
     bordercolor="#666666"
     borderopacity="1"
     objecttolerance="10"
     gridtolerance="10"
     guidetolerance="10"
     inkscape:pageopacity="0"
     inkscape:pageshadow="2"
     inkscape:window-width="1920"
     inkscape:window-height="1023"
     id="namedview10"
     showgrid="false"
     inkscape:zoom="10.727273"
     inkscape:cx="-28.837688"
     inkscape:cy="-2.1640207"
     inkscape:window-x="0"
     inkscape:window-y="28"
     inkscape:window-maximized="1"
     inkscape:current-layer="svg8">
    <inkscape:grid
       type="xygrid"
       id="grid837" />
  </sodipodi:namedview>
  <g
     transform="translate(-0.75,-4.25)"
     id="surface1" />
  <g
     id="22-22-input-keyboard-battery">
    <path
       style="fill:#eeeeee;fill-opacity:1;stroke:none;stroke-width:6.00376701;stroke-linecap:round;stroke-linejoin:round;stroke-miterlimit:4;stroke-dasharray:none;stroke-dashoffset:200.12594604;stroke-opacity:1;paint-order:fill markers stroke"
       d="M 2 2 L 2 5 L 5 5 L 5 2 L 2 2 z M 7 2 L 7 5 L 10 5 L 10 2 L 7 2 z M 12 2 L 12 5 L 15 5 L 15 2 L 12 2 z M 3 7 L 3 10 L 6 10 L 6 7 L 3 7 z M 8 7 L 8 10 L 10 10 L 11 9 L 11 7 L 8 7 z M 2 12 L 2 15 L 5 15 L 5 12 L 2 12 z M 7 12 L 7 15 L 10 15 L 10 12 L 7 12 z "
       id="path1133" />
    <rect
       y="2.220446e-16"
       x="-6.6613381e-16"
       height="18"
       width="18"
       id="rect965"
       style="fill:#eeeeee;fill-opacity:0;stroke:none;stroke-width:4.09425926;stroke-linecap:round;stroke-linejoin:round;stroke-miterlimit:4;stroke-dasharray:none;stroke-opacity:1" />
    <path
       id="path1244"
       d="M 14.75,6 11,11 13.5,12.25 12.25,16 16,11 13.5,9.75 Z m 0,0"
       style="fill:#ff7043;fill-opacity:1;fill-rule:nonzero;stroke:none;stroke-width:1.25"
       inkscape:connector-curvature="0" />
  </g>
  <g
     id="input-mouse-battery">
    <rect
       y="23"
       x="22"
       height="18"
       width="18"
       id="rect1030"
       style="fill:#eeeeee;fill-opacity:0;stroke:none;stroke-width:4.09425926;stroke-linecap:round;stroke-linejoin:round;stroke-miterlimit:4;stroke-dasharray:none;stroke-opacity:1" />
    <path
       style="fill:#eeeeee;fill-opacity:1;stroke:none;stroke-width:1.01835024;stroke-linecap:round;stroke-linejoin:round;stroke-miterlimit:4;stroke-dasharray:none;stroke-opacity:1"
       d="m 29,25 c -1.662,0 -3,1.338 -3,3 v 8 c 0,1.662 1.338,3 3,3 h 3 v -2 h -2 -1 c -0.554,0 -1,-0.446 -1,-1 v -1 -6 -1 c 0,-0.554 0.446,-1 1,-1 h 1 2 1 c 0.554,0 1,0.446 1,1 v 2 l 2,-2 c 0,-1.662 -1.338,-3 -3,-3 z"
       id="rect1038"
       inkscape:connector-curvature="0"
       sodipodi:nodetypes="sssscccssccssccssccss" />
    <rect
       ry="0"
       rx="0"
       y="28"
       x="30"
       height="5"
       width="2"
       id="rect1043"
       style="fill:#eeeeee;fill-opacity:1;stroke:none;stroke-width:1;stroke-linecap:round;stroke-linejoin:round;stroke-miterlimit:4;stroke-dasharray:none;stroke-opacity:1" />
    <rect
       y="31"
       x="27"
       height="1"
       width="5"
       id="rect1045"
       style="fill:#eeeeee;fill-opacity:1;stroke:none;stroke-width:1;stroke-linecap:round;stroke-linejoin:round;stroke-miterlimit:4;stroke-dasharray:none;stroke-opacity:1" />
    <path
       inkscape:connector-curvature="0"
       style="fill:#ff7043;fill-opacity:1;fill-rule:nonzero;stroke:none;stroke-width:1.25"
       d="M 36.75,29 33,34 35.5,35.25 34.25,39 38,34 35.5,32.75 Z m 0,0"
       id="path1054" />
  </g>
  <g
     id="input-keyboard">
    <rect
       style="fill:#eeeeee;fill-opacity:0;stroke:none;stroke-width:4.09425926;stroke-linecap:round;stroke-linejoin:round;stroke-miterlimit:4;stroke-dasharray:none;stroke-opacity:1"
       id="rect1015"
       width="18"
       height="18"
       x="-6.6613381e-16"
       y="23" />
    <path
       id="rect831"
       d="m 2.000003,25 v 2.999999 H 5.000002 V 25 Z m 4.999998,0 v 2.999999 h 3 V 25 Z m 5,0 v 2.999999 H 15 V 25 Z m -8.999998,4.999996 v 2.999999 h 2.999999 v -2.999999 z m 4.999998,0 v 2.999999 h 3 v -2.999999 z m 4.999999,0 v 2.999999 h 2.999999 V 29.999996 Z M 2.000003,35.000001 V 38 h 2.999999 v -2.999999 z m 4.999998,0 V 38 h 3 v -2.999999 z m 5,0 V 38 H 15 v -2.999999 z"
       style="fill:#eeeeee;fill-opacity:1;stroke:none;stroke-width:6.00376701;stroke-linecap:round;stroke-linejoin:round;stroke-miterlimit:4;stroke-dasharray:none;stroke-dashoffset:200.12594604;stroke-opacity:1;paint-order:fill markers stroke"
       inkscape:connector-curvature="0" />
  </g>
  <g
     id="22-22-input-keyboard-brightness"
     transform="translate(-26)">
    <path
       inkscape:connector-curvature="0"
       id="rect979"
       d="m 57.498034,16 c 2.493,0 4.5,-2.007 4.5,-4.5 0,-2.493 -2.007,-4.5 -4.5,-4.5 -2.493001,0 -4.5,2.007 -4.5,4.5 0,2.493 2.006999,4.5 4.5,4.5 z m 0.0293,-2 c -1.385,0 -2.5,-1.115 -2.5,-2.5 0,-1.385 1.115,-2.5 2.5,-2.5 0.0034,0 0.0064,0.0019 0.0098,0.002 v 4.996047 c -0.0034,10e-6 -0.0064,0.002 -0.0098,0.002 z"
       style="fill:#eeeeee;fill-opacity:1;stroke:none;stroke-width:1;stroke-linecap:round;stroke-linejoin:round;stroke-miterlimit:4;stroke-dasharray:none;stroke-opacity:1" />
    <path
       id="path1147"
       d="m 48,2 v 3 h 3 V 2 Z m 5,0 v 3 h 3 V 2 Z m 5,0 v 3 h 3 V 2 Z m -9,5 v 3 h 3 V 7 Z m 5,0 V 7.25 C 54.108053,7.1609905 54.221153,7.0806643 54.335938,7 Z m 6.664062,0 C 61.18359,7.3650952 61.634905,7.8164098 62,8.3359375 V 7 Z M 48,12 v 3 h 3 v -3 z m 5,2.664062 V 15 h 0.25 C 53.16099,14.891947 53.080664,14.778847 53,14.664062 Z"
       style="fill:#eeeeee;fill-opacity:1;stroke:none;stroke-width:6.00376701;stroke-linecap:round;stroke-linejoin:round;stroke-miterlimit:4;stroke-dasharray:none;stroke-dashoffset:200.12594604;stroke-opacity:1;paint-order:fill markers stroke"
       inkscape:connector-curvature="0" />
    <rect
       style="fill:#eeeeee;fill-opacity:0;stroke:none;stroke-width:4.09425926;stroke-linecap:round;stroke-linejoin:round;stroke-miterlimit:4;stroke-dasharray:none;stroke-opacity:1"
       id="rect1149"
       width="18"
       height="18"
       x="46"
       y="2.220446e-16" />
  </g>
  <g
     id="input-keyboard-battery">
    <path
       style="fill:#eeeeee;fill-opacity:1;stroke:none;stroke-width:6.00376701;stroke-linecap:round;stroke-linejoin:round;stroke-miterlimit:4;stroke-dasharray:none;stroke-dashoffset:200.12594604;stroke-opacity:1;paint-order:fill markers stroke"
       d="M 2 -22 L 2 -19 L 5 -19 L 5 -22 L 2 -22 z M 7 -22 L 7 -19 L 10 -19 L 10 -22 L 7 -22 z M 12 -22 L 12 -19 L 15 -19 L 15 -22 L 12 -22 z M 3 -17 L 3 -14 L 6 -14 L 6 -17 L 3 -17 z M 8 -17 L 8 -14 L 10 -14 L 11 -15 L 11 -17 L 8 -17 z M 2 -12 L 2 -9 L 5 -9 L 5 -12 L 2 -12 z M 7 -12 L 7 -9 L 10 -9 L 10 -12 L 7 -12 z "
       id="path1166" />
    <rect
       style="fill:#eeeeee;fill-opacity:0;stroke:none;stroke-width:4.5491786;stroke-linecap:round;stroke-linejoin:round;stroke-miterlimit:4;stroke-dasharray:none;stroke-opacity:1"
       id="rect1168"
       width="20.000008"
       height="20.000008"
       x="-1.0000038"
       y="-25" />
    <path
       inkscape:connector-curvature="0"
       style="fill:#ff7043;fill-opacity:1;fill-rule:nonzero;stroke:none;stroke-width:1.25"
       d="m 14.75,-17.999997 -3.75,5 2.5,1.25 -1.25,3.75 3.75,-5 -2.5,-1.25 z m 0,0"
       id="path1170" />
  </g>
  <g
     id="input-keyboard-brightness">
    <path
       style="fill:#eeeeee;fill-opacity:1;stroke:none;stroke-width:1;stroke-linecap:round;stroke-linejoin:round;stroke-miterlimit:4;stroke-dasharray:none;stroke-opacity:1"
       d="m 31.498034,-8 c 2.493,0 4.5,-2.007 4.5,-4.5 0,-2.493 -2.007,-4.5 -4.5,-4.5 -2.493001,0 -4.5,2.007 -4.5,4.5 0,2.493 2.006999,4.5 4.5,4.5 z m 0.0293,-2 c -1.385,0 -2.5,-1.115 -2.5,-2.5 0,-1.385 1.115,-2.5 2.5,-2.5 0.0034,0 0.0064,0.0019 0.0098,0.002 v 4.996047 c -0.0034,10e-6 -0.0064,0.002 -0.0098,0.002 z"
       id="path1182"
       inkscape:connector-curvature="0" />
    <path
       inkscape:connector-curvature="0"
       style="fill:#eeeeee;fill-opacity:1;stroke:none;stroke-width:6.00376701;stroke-linecap:round;stroke-linejoin:round;stroke-miterlimit:4;stroke-dasharray:none;stroke-dashoffset:200.12594604;stroke-opacity:1;paint-order:fill markers stroke"
       d="m 22,-22 v 3 h 3 v -3 z m 5,0 v 3 h 3 v -3 z m 5,0 v 3 h 3 v -3 z m -9,5 v 3 h 3 v -3 z m 5,0 v 0.25 c 0.108053,-0.08901 0.221153,-0.169336 0.335938,-0.25 z m 6.664062,0 c 0.519528,0.365095 0.970843,0.81641 1.335938,1.335937 V -17 Z M 22,-12 v 3 h 3 v -3 z m 5,2.664062 V -9 h 0.25 C 27.16099,-9.108053 27.080664,-9.221153 27,-9.335938 Z"
       id="path1184" />
    <rect
       y="-25"
       x="19"
       height="20"
       width="20"
       id="rect1186"
       style="fill:#eeeeee;fill-opacity:0;stroke:none;stroke-width:4.54917717;stroke-linecap:round;stroke-linejoin:round;stroke-miterlimit:4;stroke-dasharray:none;stroke-opacity:1" />
  </g>
</svg>
