<?xml version="1.0" encoding="UTF-8" standalone="no"?>
<svg
   xmlns:dc="http://purl.org/dc/elements/1.1/"
   xmlns:cc="http://creativecommons.org/ns#"
   xmlns:rdf="http://www.w3.org/1999/02/22-rdf-syntax-ns#"
   xmlns:svg="http://www.w3.org/2000/svg"
   xmlns="http://www.w3.org/2000/svg"
   xmlns:sodipodi="http://sodipodi.sourceforge.net/DTD/sodipodi-0.dtd"
   xmlns:inkscape="http://www.inkscape.org/namespaces/inkscape"
   width="18"
   height="18"
   viewBox="0 0 18 18"
   version="1.1"
   id="svg8"
   sodipodi:docname="update.svg"
   inkscape:version="0.92.4 5da689c313, 2019-01-14">
  <metadata
     id="metadata14">
    <rdf:RDF>
      <cc:Work
         rdf:about="">
        <dc:format>image/svg+xml</dc:format>
        <dc:type
           rdf:resource="http://purl.org/dc/dcmitype/StillImage" />
        <dc:title />
      </cc:Work>
    </rdf:RDF>
  </metadata>
  <defs
     id="defs12">
    <style
       id="current-color-scheme-7"
       type="text/css">
   .ColorScheme-Text { color:#424242; } .ColorScheme-Highlight { color:#eeeeee; }
  </style>
    <style
       id="current-color-scheme-9"
       type="text/css">
   .ColorScheme-Text { color:#424242; } .ColorScheme-Highlight { color:#eeeeee; }
  </style>
    <style
       id="current-color-scheme-93"
       type="text/css">
   .ColorScheme-Text { color:#424242; } .ColorScheme-Highlight { color:#eeeeee; }
  </style>
    <style
       id="current-color-scheme-6"
       type="text/css">
   .ColorScheme-Text { color:#424242; } .ColorScheme-Highlight { color:#eeeeee; }
  </style>
    <style
       id="style7"
       type="text/css">
   .ColorScheme-Text { color:#3f3f3f; } .ColorScheme-Highlight { color:#eeeeee; }
  </style>
    <style
       id="current-color-scheme-2"
       type="text/css">
   .ColorScheme-Text { color:#424242; } .ColorScheme-Highlight { color:#eeeeee; }
  </style>
    <style
       id="current-color-scheme-22"
       type="text/css">
   .ColorScheme-Text { color:#424242; } .ColorScheme-Highlight { color:#eeeeee; }
  </style>
    <style
       id="style7-7"
       type="text/css">
   .ColorScheme-Text { color:#3f3f3f; } .ColorScheme-Highlight { color:#eeeeee; }
  </style>
    <style
       id="current-color-scheme"
       type="text/css">
   .ColorScheme-Text { color:#424242; } .ColorScheme-Highlight { color:#eeeeee; }
  </style>
    <defs
       id="defs990">
      <style
         id="style988"
         type="text/css">
   .ColorScheme-Text { color:#424242; } .ColorScheme-Highlight { color:#eeeeee; }
  </style>
    </defs>
    <defs
       id="defs996">
      <style
         id="style994"
         type="text/css">
   .ColorScheme-Text { color:#3f3f3f; } .ColorScheme-Highlight { color:#eeeeee; }
  </style>
    </defs>
    <defs
       id="defs3-2">
      <style
         type="text/css"
         id="style890">
   .ColorScheme-Text { color:#424242; } .ColorScheme-Highlight { color:#eeeeee; }
  </style>
    </defs>
    <defs
       id="defs9">
      <style
         type="text/css"
         id="style894">
   .ColorScheme-Text { color:#3f3f3f; } .ColorScheme-Highlight { color:#eeeeee; }
  </style>
    </defs>
    <defs
       id="defs3-20">
      <style
         type="text/css"
         id="style908">
   .ColorScheme-Text { color:#424242; } .ColorScheme-Highlight { color:#eeeeee; }
  </style>
    </defs>
    <defs
       id="defs3-9">
      <style
         type="text/css"
         id="style926">
   .ColorScheme-Text { color:#424242; } .ColorScheme-Highlight { color:#eeeeee; }
  </style>
    </defs>
    <defs
       id="defs9-9">
      <style
         type="text/css"
         id="style930">
   .ColorScheme-Text { color:#3f3f3f; } .ColorScheme-Highlight { color:#eeeeee; }
  </style>
    </defs>
    <defs
       id="defs1012">
      <style
         id="style1010"
         type="text/css">
   .ColorScheme-Text { color:#424242; } .ColorScheme-Highlight { color:#eeeeee; }
  </style>
    </defs>
    <defs
       id="defs1018">
      <style
         id="style1016"
         type="text/css">
   .ColorScheme-Text { color:#3f3f3f; } .ColorScheme-Highlight { color:#eeeeee; }
  </style>
    </defs>
    <defs
       id="defs1048">
      <style
         id="style1046"
         type="text/css">
   .ColorScheme-Text { color:#424242; } .ColorScheme-Highlight { color:#eeeeee; }
  </style>
    </defs>
    <defs
       id="defs1034">
      <style
         id="style1032"
         type="text/css">
   .ColorScheme-Text { color:#424242; } .ColorScheme-Highlight { color:#eeeeee; }
  </style>
    </defs>
    <defs
       id="defs1040">
      <style
         id="style1038"
         type="text/css">
   .ColorScheme-Text { color:#3f3f3f; } .ColorScheme-Highlight { color:#eeeeee; }
  </style>
    </defs>
    <defs
       id="defs3">
      <style
         type="text/css"
         id="style969">
   .ColorScheme-Text { color:#424242; } .ColorScheme-Highlight { color:#eeeeee; }
  </style>
    </defs>
    <defs
       id="defs976">
      <style
         id="style974"
         type="text/css">
   .ColorScheme-Text { color:#424242; } .ColorScheme-Highlight { color:#eeeeee; }
  </style>
    </defs>
    <defs
       id="defs982">
      <style
         id="style980"
         type="text/css">
   .ColorScheme-Text { color:#3f3f3f; } .ColorScheme-Highlight { color:#eeeeee; }
  </style>
    </defs>
    <style
       id="current-color-scheme-67"
       type="text/css">
   .ColorScheme-Text { color:#424242; } .ColorScheme-Highlight { color:#eeeeee; }
  </style>
    <style
       id="current-color-scheme-62"
       type="text/css">
   .ColorScheme-Text { color:#424242; } .ColorScheme-Highlight { color:#eeeeee; }
  </style>
    <style
       id="current-color-scheme-0"
       type="text/css">
   .ColorScheme-Text { color:#424242; } .ColorScheme-Highlight { color:#eeeeee; }
  </style>
    <style
       id="current-color-scheme-5"
       type="text/css">
   .ColorScheme-Text { color:#424242; } .ColorScheme-Highlight { color:#eeeeee; }
  </style>
    <style
       id="current-color-scheme-1"
       type="text/css">
   .ColorScheme-Text { color:#424242; } .ColorScheme-Highlight { color:#eeeeee; }
  </style>
    <style
       id="current-color-scheme-60"
       type="text/css">
   .ColorScheme-Text { color:#424242; } .ColorScheme-Highlight { color:#eeeeee; }
  </style>
    <defs
       id="defs969">
      <style
         id="style967"
         type="text/css">
   .ColorScheme-Text { color:#424242; } .ColorScheme-Highlight { color:#eeeeee; }
  </style>
    </defs>
    <defs
       id="defs3-27">
      <style
         type="text/css"
         id="style953">
   .ColorScheme-Text { color:#424242; } .ColorScheme-Highlight { color:#eeeeee; }
  </style>
    </defs>
    <defs
       id="defs3-3">
      <style
         type="text/css"
         id="style905">
   .ColorScheme-Text { color:#424242; } .ColorScheme-Highlight { color:#eeeeee; }
  </style>
    </defs>
    <defs
       id="defs3-5">
      <style
         type="text/css"
         id="style929">
   .ColorScheme-Text { color:#424242; } .ColorScheme-Highlight { color:#eeeeee; }
  </style>
    </defs>
    <defs
       id="defs979">
      <style
         id="style977"
         type="text/css">
   .ColorScheme-Text { color:#424242; } .ColorScheme-Highlight { color:#eeeeee; }
  </style>
    </defs>
    <defs
       id="defs1087">
      <style
         type="text/css"
         id="style1085">
   .ColorScheme-Text { color:#424242; } .ColorScheme-Highlight { color:#eeeeee; }
  </style>
    </defs>
    <defs
       id="defs117">
      <style
         type="text/css"
         id="style115">
   .ColorScheme-Text { color:#424242; } .ColorScheme-Highlight { color:#eeeeee; }
  </style>
    </defs>
    <defs
       id="defs3-53">
      <style
         type="text/css"
         id="style1341">
   .ColorScheme-Text { color:#424242; } .ColorScheme-Highlight { color:#eeeeee; }
  </style>
    </defs>
    <defs
       id="defs1357">
      <style
         id="style1355"
         type="text/css">
   .ColorScheme-Text { color:#424242; } .ColorScheme-Highlight { color:#eeeeee; }
  </style>
    </defs>
    <defs
       id="defs1369">
      <style
         id="style1367"
         type="text/css">
   .ColorScheme-Text { color:#424242; } .ColorScheme-Highlight { color:#eeeeee; }
  </style>
    </defs>
    <defs
       id="defs1381">
      <style
         type="text/css"
         id="style1379">
   .ColorScheme-Text { color:#424242; } .ColorScheme-Highlight { color:#eeeeee; }
  </style>
    </defs>
    <defs
       id="defs3-29">
      <style
         type="text/css"
         id="style1404">
   .ColorScheme-Text { color:#424242; } .ColorScheme-Highlight { color:#eeeeee; }
  </style>
    </defs>
    <style
       type="text/css"
       id="style1295">
   .ColorScheme-Text { color:#424242; } .ColorScheme-Highlight { color:#eeeeee; }
  </style>
    <defs
       id="defs916">
      <style
         id="style914"
         type="text/css">
   .ColorScheme-Text { color:#424242; } .ColorScheme-Highlight { color:#eeeeee; }
  </style>
    </defs>
    <style
       id="current-color-scheme-75"
       type="text/css">
   .ColorScheme-Text { color:#424242; } .ColorScheme-Highlight { color:#eeeeee; }
  </style>
    <defs
       id="defs3-6">
      <style
         type="text/css"
         id="style952">
   .ColorScheme-Text { color:#424242; } .ColorScheme-Highlight { color:#eeeeee; }
  </style>
    </defs>
    <defs
       id="defs964">
      <style
         type="text/css"
         id="style962">
   .ColorScheme-Text { color:#424242; } .ColorScheme-Highlight { color:#eeeeee; }
  </style>
    </defs>
  </defs>
  <sodipodi:namedview
     pagecolor="#ffffff"
     bordercolor="#666666"
     borderopacity="1"
     objecttolerance="10"
     gridtolerance="10"
     guidetolerance="10"
     inkscape:pageopacity="0"
     inkscape:pageshadow="2"
     inkscape:window-width="1920"
     inkscape:window-height="1023"
     id="namedview10"
     showgrid="true"
     inkscape:zoom="10.727273"
     inkscape:cx="75.788862"
     inkscape:cy="-5.5010731"
     inkscape:window-x="0"
     inkscape:window-y="28"
     inkscape:window-maximized="1"
     inkscape:current-layer="svg8">
    <inkscape:grid
       type="xygrid"
       id="grid837" />
  </sodipodi:namedview>
  <g
     transform="translate(-0.75,-4.25)"
     id="surface1" />
  <g
     id="22-22-update-none">
    <rect
       style="fill:#eeeeee;fill-opacity:0;stroke:none;stroke-width:4.09425926;stroke-linecap:round;stroke-linejoin:round;stroke-miterlimit:4;stroke-dasharray:none;stroke-opacity:1"
       id="rect1241"
       width="18"
       height="18"
       x="-6.6613381e-16"
       y="2.220446e-16" />
    <path
       inkscape:connector-curvature="0"
       id="path5"
       d="M 9,2 C 5.121094,2 2,5.121094 2,9 c 0,3.878906 3.121094,7 7,7 3.878906,0 7,-3.121094 7,-7 C 16,7.5746158 15.575252,6.2538439 14.849609,5.1503906 L 15.632812,4.3671875 14.216797,2.953125 13.519531,3.6503906 C 12.301549,2.6215947 10.726993,2 9,2 Z m 0,2 c 1.17185,0 2.233282,0.4154133 3.083984,1.0859375 L 9,8.171875 6.4082031,5.5800781 4.9941406,6.9941406 7.5859375,9.585938 9,11 10.414062,9.585938 13.376953,6.6230469 C 13.761877,7.3322518 14,8.133431 14,9 14,11.769531 11.769531,14 9,14 6.230469,14 4,11.769531 4,9 4,6.230469 6.230469,4 9,4 Z"
       style="color:#424242;fill:#eeeeee" />
  </g>
  <g
     id="22-22-update-medium">
    <rect
       style="fill:#eeeeee;fill-opacity:0;stroke:none;stroke-width:4.09425926;stroke-linecap:round;stroke-linejoin:round;stroke-miterlimit:4;stroke-dasharray:none;stroke-opacity:1"
       id="rect967"
       width="18"
       height="18"
       x="44"
       y="2.220446e-16" />
    <g
       id="g976"
       transform="translate(42,-2)">
      <defs
         id="defs972">
        <style
           type="text/css"
           id="style970">
   .ColorScheme-Text { color:#424242; } .ColorScheme-Highlight { color:#eeeeee; }
  </style>
      </defs>
      <path
         id="path974"
         d="m 11,4 c -3.878906,0 -7,3.121094 -7,7 0,3.878906 3.121094,7 7,7 3.878906,0 7,-3.121094 7,-7 0,-3.878906 -3.121094,-7 -7,-7 z m 0,2 c 2.769531,0 5,2.230469 5,5 0,2.769531 -2.230469,5 -5,5 C 8.230469,16 6,13.769531 6,11 6,8.230469 8.230469,6 11,6 Z m 0,1 -3,3 h 2 v 4 h 2 v -4 h 2 z m 0,0"
         class="ColorScheme-Text"
         style="color:#424242;fill:#ff7043"
         inkscape:connector-curvature="0" />
    </g>
  </g>
  <g
     id="22-22-update-low">
    <rect
       y="2.220446e-16"
       x="66"
       height="18"
       width="18"
       id="rect1005"
       style="fill:#eeeeee;fill-opacity:0;stroke:none;stroke-width:4.09425926;stroke-linecap:round;stroke-linejoin:round;stroke-miterlimit:4;stroke-dasharray:none;stroke-opacity:1" />
    <g
       transform="translate(64,-2)"
       id="g1013">
      <defs
         id="defs1009">
        <style
           id="style1007"
           type="text/css">
   .ColorScheme-Text { color:#424242; } .ColorScheme-Highlight { color:#eeeeee; }
  </style>
      </defs>
      <path
         inkscape:connector-curvature="0"
         style="color:#424242;fill:#42a5f5"
         class="ColorScheme-Text"
         d="m 11,4 c -3.878906,0 -7,3.121094 -7,7 0,3.878906 3.121094,7 7,7 3.878906,0 7,-3.121094 7,-7 0,-3.878906 -3.121094,-7 -7,-7 z m 0,2 c 2.769531,0 5,2.230469 5,5 0,2.769531 -2.230469,5 -5,5 C 8.230469,16 6,13.769531 6,11 6,8.230469 8.230469,6 11,6 Z m 0,1 -3,3 h 2 v 4 h 2 v -4 h 2 z m 0,0"
         id="path1011" />
    </g>
  </g>
  <g
     id="22-22-update-high">
    <rect
       y="2.220446e-16"
       x="22"
       height="18"
       width="18"
       id="rect1063"
       style="fill:#eeeeee;fill-opacity:0;stroke:none;stroke-width:4.09425926;stroke-linecap:round;stroke-linejoin:round;stroke-miterlimit:4;stroke-dasharray:none;stroke-opacity:1" />
    <g
       style="fill:#ef5350"
       transform="translate(20,-2)"
       id="g1071">
      <defs
         id="defs1067">
        <style
           id="style1065"
           type="text/css">
   .ColorScheme-Text { color:#424242; } .ColorScheme-Highlight { color:#eeeeee; }
  </style>
      </defs>
      <path
         inkscape:connector-curvature="0"
         style="color:#424242;fill:#ef5350"
         class="ColorScheme-Text"
         d="m 11,4 c -3.878906,0 -7,3.121094 -7,7 0,3.878906 3.121094,7 7,7 3.878906,0 7,-3.121094 7,-7 0,-3.878906 -3.121094,-7 -7,-7 z m 0,2 c 2.769531,0 5,2.230469 5,5 0,2.769531 -2.230469,5 -5,5 C 8.230469,16 6,13.769531 6,11 6,8.230469 8.230469,6 11,6 Z m 0,1 -3,3 h 2 v 4 h 2 v -4 h 2 z m 0,0"
         id="path1069" />
    </g>
  </g>
  <g
     id="update-none">
    <rect
       y="-28"
       x="1"
       height="20"
       width="20"
       id="rect1101"
       style="fill:#eeeeee;fill-opacity:0;stroke:none;stroke-width:4.54917717;stroke-linecap:round;stroke-linejoin:round;stroke-miterlimit:4;stroke-dasharray:none;stroke-opacity:1" />
    <path
       style="color:#424242;fill:#eeeeee"
       d="m 11,-25 c -3.878906,0 -7,3.121094 -7,7 0,3.878906 3.121094,7 7,7 3.878906,0 7,-3.121094 7,-7 0,-1.425384 -0.424748,-2.746156 -1.150391,-3.849609 l 0.783203,-0.783203 -1.416015,-1.414063 -0.697266,0.697266 C 14.301549,-24.378405 12.726993,-25 11,-25 Z m 0,2 c 1.17185,0 2.233282,0.415413 3.083984,1.085938 L 11,-18.828125 8.4082031,-21.419922 6.9941406,-20.005859 9.5859375,-17.414062 11,-16 l 1.414062,-1.414062 2.962891,-2.962891 C 15.761877,-19.667748 16,-18.866569 16,-18 c 0,2.769531 -2.230469,5 -5,5 -2.769531,0 -5,-2.230469 -5,-5 0,-2.769531 2.230469,-5 5,-5 z"
       id="path1103"
       inkscape:connector-curvature="0" />
  </g>
  <g
     id="update-medium">
    <rect
       y="-28"
       x="49"
       height="20"
       width="20"
       id="rect1107"
       style="fill:#eeeeee;fill-opacity:0;stroke:none;stroke-width:4.54917717;stroke-linecap:round;stroke-linejoin:round;stroke-miterlimit:4;stroke-dasharray:none;stroke-opacity:1" />
    <g
       transform="translate(48,-29)"
       id="g1115">
      <defs
         id="defs1111">
        <style
           id="style1109"
           type="text/css">
   .ColorScheme-Text { color:#424242; } .ColorScheme-Highlight { color:#eeeeee; }
  </style>
      </defs>
      <path
         inkscape:connector-curvature="0"
         style="color:#424242;fill:#ff7043"
         class="ColorScheme-Text"
         d="m 11,4 c -3.878906,0 -7,3.121094 -7,7 0,3.878906 3.121094,7 7,7 3.878906,0 7,-3.121094 7,-7 0,-3.878906 -3.121094,-7 -7,-7 z m 0,2 c 2.769531,0 5,2.230469 5,5 0,2.769531 -2.230469,5 -5,5 C 8.230469,16 6,13.769531 6,11 6,8.230469 8.230469,6 11,6 Z m 0,1 -3,3 h 2 v 4 h 2 v -4 h 2 z m 0,0"
         id="path1113" />
    </g>
  </g>
  <g
     id="update-low">
    <rect
       style="fill:#eeeeee;fill-opacity:0;stroke:none;stroke-width:4.54917717;stroke-linecap:round;stroke-linejoin:round;stroke-miterlimit:4;stroke-dasharray:none;stroke-opacity:1"
       id="rect1119"
       width="20"
       height="20"
       x="73"
       y="-28" />
    <g
       id="g1127"
       transform="translate(72,-29)">
      <defs
         id="defs1123">
        <style
           type="text/css"
           id="style1121">
   .ColorScheme-Text { color:#424242; } .ColorScheme-Highlight { color:#eeeeee; }
  </style>
      </defs>
      <path
         id="path1125"
         d="m 11,4 c -3.878906,0 -7,3.121094 -7,7 0,3.878906 3.121094,7 7,7 3.878906,0 7,-3.121094 7,-7 0,-3.878906 -3.121094,-7 -7,-7 z m 0,2 c 2.769531,0 5,2.230469 5,5 0,2.769531 -2.230469,5 -5,5 C 8.230469,16 6,13.769531 6,11 6,8.230469 8.230469,6 11,6 Z m 0,1 -3,3 h 2 v 4 h 2 v -4 h 2 z m 0,0"
         class="ColorScheme-Text"
         style="color:#424242;fill:#42a5f5"
         inkscape:connector-curvature="0" />
    </g>
  </g>
  <g
     id="update-high">
    <rect
       style="fill:#eeeeee;fill-opacity:0;stroke:none;stroke-width:4.54917717;stroke-linecap:round;stroke-linejoin:round;stroke-miterlimit:4;stroke-dasharray:none;stroke-opacity:1"
       id="rect1131"
       width="20"
       height="20"
       x="25"
       y="-28" />
    <g
       id="g1139"
       transform="translate(24,-29)"
       style="fill:#ef5350">
      <defs
         id="defs1135">
        <style
           type="text/css"
           id="style1133">
   .ColorScheme-Text { color:#424242; } .ColorScheme-Highlight { color:#eeeeee; }
  </style>
      </defs>
      <path
         id="path1137"
         d="m 11,4 c -3.878906,0 -7,3.121094 -7,7 0,3.878906 3.121094,7 7,7 3.878906,0 7,-3.121094 7,-7 0,-3.878906 -3.121094,-7 -7,-7 z m 0,2 c 2.769531,0 5,2.230469 5,5 0,2.769531 -2.230469,5 -5,5 C 8.230469,16 6,13.769531 6,11 6,8.230469 8.230469,6 11,6 Z m 0,1 -3,3 h 2 v 4 h 2 v -4 h 2 z m 0,0"
         class="ColorScheme-Text"
         style="color:#424242;fill:#ef5350"
         inkscape:connector-curvature="0" />
    </g>
  </g>
  <g
     id="16-16-update-none">
    <rect
       y="24"
       x="1"
       height="16"
       width="16"
       id="rect930"
       style="fill:#eeeeee;fill-opacity:0;stroke:none;stroke-width:3.63934159;stroke-linecap:round;stroke-linejoin:round;stroke-miterlimit:4;stroke-dasharray:none;stroke-opacity:1" />
    <path
       style="color:#424242;fill:#eeeeee"
       d="m 9,25 c -3.878906,0 -7,3.121094 -7,7 0,3.878906 3.121094,7 7,7 3.878906,0 7,-3.121094 7,-7 0,-1.425384 -0.424748,-2.746156 -1.150391,-3.849609 l 0.783203,-0.783204 -1.416015,-1.414062 -0.697266,0.697266 C 12.301549,25.621595 10.726993,25 9,25 Z m 0,2 c 1.17185,0 2.233282,0.415413 3.083984,1.085937 L 9,31.171875 6.4082031,28.580078 4.9941406,29.994141 7.5859375,32.585938 9,34 10.414062,32.585938 13.376953,29.623047 C 13.761877,30.332252 14,31.133431 14,32 14,34.769531 11.769531,37 9,37 6.230469,37 4,34.769531 4,32 4,29.230469 6.230469,27 9,27 Z"
       id="path932"
       inkscape:connector-curvature="0" />
  </g>
  <g
     id="16-16-update-medium">
    <rect
       y="24"
       x="45"
       height="16"
       width="16"
       id="rect936"
       style="fill:#eeeeee;fill-opacity:0;stroke:none;stroke-width:3.63934159;stroke-linecap:round;stroke-linejoin:round;stroke-miterlimit:4;stroke-dasharray:none;stroke-opacity:1" />
    <g
       transform="translate(42,21)"
       id="g944">
      <defs
         id="defs940">
        <style
           id="style938"
           type="text/css">
   .ColorScheme-Text { color:#424242; } .ColorScheme-Highlight { color:#eeeeee; }
  </style>
      </defs>
      <path
         inkscape:connector-curvature="0"
         style="color:#424242;fill:#ff7043"
         class="ColorScheme-Text"
         d="m 11,4 c -3.878906,0 -7,3.121094 -7,7 0,3.878906 3.121094,7 7,7 3.878906,0 7,-3.121094 7,-7 0,-3.878906 -3.121094,-7 -7,-7 z m 0,2 c 2.769531,0 5,2.230469 5,5 0,2.769531 -2.230469,5 -5,5 C 8.230469,16 6,13.769531 6,11 6,8.230469 8.230469,6 11,6 Z m 0,1 -3,3 h 2 v 4 h 2 v -4 h 2 z m 0,0"
         id="path942" />
    </g>
  </g>
  <g
     id="16-16-update-low">
    <rect
       style="fill:#eeeeee;fill-opacity:0;stroke:none;stroke-width:3.63934159;stroke-linecap:round;stroke-linejoin:round;stroke-miterlimit:4;stroke-dasharray:none;stroke-opacity:1"
       id="rect948"
       width="16"
       height="16"
       x="67"
       y="24" />
    <g
       id="g956"
       transform="translate(64,21)">
      <defs
         id="defs952">
        <style
           type="text/css"
           id="style950">
   .ColorScheme-Text { color:#424242; } .ColorScheme-Highlight { color:#eeeeee; }
  </style>
      </defs>
      <path
         id="path954"
         d="m 11,4 c -3.878906,0 -7,3.121094 -7,7 0,3.878906 3.121094,7 7,7 3.878906,0 7,-3.121094 7,-7 0,-3.878906 -3.121094,-7 -7,-7 z m 0,2 c 2.769531,0 5,2.230469 5,5 0,2.769531 -2.230469,5 -5,5 C 8.230469,16 6,13.769531 6,11 6,8.230469 8.230469,6 11,6 Z m 0,1 -3,3 h 2 v 4 h 2 v -4 h 2 z m 0,0"
         class="ColorScheme-Text"
         style="color:#424242;fill:#42a5f5"
         inkscape:connector-curvature="0" />
    </g>
  </g>
  <g
     id="16-16-update-high">
    <rect
       style="fill:#eeeeee;fill-opacity:0;stroke:none;stroke-width:3.63934159;stroke-linecap:round;stroke-linejoin:round;stroke-miterlimit:4;stroke-dasharray:none;stroke-opacity:1"
       id="rect960"
       width="16"
       height="16"
       x="23"
       y="24" />
    <path
       inkscape:connector-curvature="0"
       style="color:#424242;fill:#ef5350"
       class="ColorScheme-Text"
       d="m 31,25 c -3.878906,0 -7,3.121094 -7,7 0,3.878906 3.121094,7 7,7 3.878906,0 7,-3.121094 7,-7 0,-3.878906 -3.121094,-7 -7,-7 z m 0,2 c 2.769531,0 5,2.230469 5,5 0,2.769531 -2.230469,5 -5,5 -2.769531,0 -5,-2.230469 -5,-5 0,-2.769531 2.230469,-5 5,-5 z m 0,1 -3,3 h 2 v 4 h 2 v -4 h 2 z m 0,0"
       id="path966" />
  </g>
</svg>
