<?xml version="1.0" encoding="UTF-8" standalone="no"?>
<svg
   xmlns:dc="http://purl.org/dc/elements/1.1/"
   xmlns:cc="http://creativecommons.org/ns#"
   xmlns:rdf="http://www.w3.org/1999/02/22-rdf-syntax-ns#"
   xmlns:svg="http://www.w3.org/2000/svg"
   xmlns="http://www.w3.org/2000/svg"
   xmlns:sodipodi="http://sodipodi.sourceforge.net/DTD/sodipodi-0.dtd"
   xmlns:inkscape="http://www.inkscape.org/namespaces/inkscape"
   width="18"
   height="18"
   viewBox="0 0 18 18"
   version="1.1"
   id="svg8"
   sodipodi:docname="user.svg"
   inkscape:version="0.92.4 5da689c313, 2019-01-14">
  <metadata
     id="metadata14">
    <rdf:RDF>
      <cc:Work
         rdf:about="">
        <dc:format>image/svg+xml</dc:format>
        <dc:type
           rdf:resource="http://purl.org/dc/dcmitype/StillImage" />
        <dc:title></dc:title>
      </cc:Work>
    </rdf:RDF>
  </metadata>
  <defs
     id="defs12">
    <style
       id="current-color-scheme-7"
       type="text/css">
   .ColorScheme-Text { color:#424242; } .ColorScheme-Highlight { color:#eeeeee; }
  </style>
    <style
       id="current-color-scheme-9"
       type="text/css">
   .ColorScheme-Text { color:#424242; } .ColorScheme-Highlight { color:#eeeeee; }
  </style>
    <style
       id="current-color-scheme-93"
       type="text/css">
   .ColorScheme-Text { color:#424242; } .ColorScheme-Highlight { color:#eeeeee; }
  </style>
    <style
       id="current-color-scheme-6"
       type="text/css">
   .ColorScheme-Text { color:#424242; } .ColorScheme-Highlight { color:#eeeeee; }
  </style>
    <style
       id="style7"
       type="text/css">
   .ColorScheme-Text { color:#3f3f3f; } .ColorScheme-Highlight { color:#eeeeee; }
  </style>
    <style
       id="current-color-scheme-2"
       type="text/css">
   .ColorScheme-Text { color:#424242; } .ColorScheme-Highlight { color:#eeeeee; }
  </style>
    <style
       id="current-color-scheme-22"
       type="text/css">
   .ColorScheme-Text { color:#424242; } .ColorScheme-Highlight { color:#eeeeee; }
  </style>
    <style
       id="style7-7"
       type="text/css">
   .ColorScheme-Text { color:#3f3f3f; } .ColorScheme-Highlight { color:#eeeeee; }
  </style>
    <style
       id="current-color-scheme"
       type="text/css">
   .ColorScheme-Text { color:#424242; } .ColorScheme-Highlight { color:#eeeeee; }
  </style>
    <defs
       id="defs990">
      <style
         id="style988"
         type="text/css">
   .ColorScheme-Text { color:#424242; } .ColorScheme-Highlight { color:#eeeeee; }
  </style>
    </defs>
    <defs
       id="defs996">
      <style
         id="style994"
         type="text/css">
   .ColorScheme-Text { color:#3f3f3f; } .ColorScheme-Highlight { color:#eeeeee; }
  </style>
    </defs>
    <defs
       id="defs3-2">
      <style
         type="text/css"
         id="style890">
   .ColorScheme-Text { color:#424242; } .ColorScheme-Highlight { color:#eeeeee; }
  </style>
    </defs>
    <defs
       id="defs9">
      <style
         type="text/css"
         id="style894">
   .ColorScheme-Text { color:#3f3f3f; } .ColorScheme-Highlight { color:#eeeeee; }
  </style>
    </defs>
    <defs
       id="defs3-20">
      <style
         type="text/css"
         id="style908">
   .ColorScheme-Text { color:#424242; } .ColorScheme-Highlight { color:#eeeeee; }
  </style>
    </defs>
    <defs
       id="defs3-9">
      <style
         type="text/css"
         id="style926">
   .ColorScheme-Text { color:#424242; } .ColorScheme-Highlight { color:#eeeeee; }
  </style>
    </defs>
    <defs
       id="defs9-9">
      <style
         type="text/css"
         id="style930">
   .ColorScheme-Text { color:#3f3f3f; } .ColorScheme-Highlight { color:#eeeeee; }
  </style>
    </defs>
    <defs
       id="defs1012">
      <style
         id="style1010"
         type="text/css">
   .ColorScheme-Text { color:#424242; } .ColorScheme-Highlight { color:#eeeeee; }
  </style>
    </defs>
    <defs
       id="defs1018">
      <style
         id="style1016"
         type="text/css">
   .ColorScheme-Text { color:#3f3f3f; } .ColorScheme-Highlight { color:#eeeeee; }
  </style>
    </defs>
    <defs
       id="defs1048">
      <style
         id="style1046"
         type="text/css">
   .ColorScheme-Text { color:#424242; } .ColorScheme-Highlight { color:#eeeeee; }
  </style>
    </defs>
    <defs
       id="defs1034">
      <style
         id="style1032"
         type="text/css">
   .ColorScheme-Text { color:#424242; } .ColorScheme-Highlight { color:#eeeeee; }
  </style>
    </defs>
    <defs
       id="defs1040">
      <style
         id="style1038"
         type="text/css">
   .ColorScheme-Text { color:#3f3f3f; } .ColorScheme-Highlight { color:#eeeeee; }
  </style>
    </defs>
    <defs
       id="defs3">
      <style
         type="text/css"
         id="style969">
   .ColorScheme-Text { color:#424242; } .ColorScheme-Highlight { color:#eeeeee; }
  </style>
    </defs>
    <defs
       id="defs976">
      <style
         id="style974"
         type="text/css">
   .ColorScheme-Text { color:#424242; } .ColorScheme-Highlight { color:#eeeeee; }
  </style>
    </defs>
    <defs
       id="defs982">
      <style
         id="style980"
         type="text/css">
   .ColorScheme-Text { color:#3f3f3f; } .ColorScheme-Highlight { color:#eeeeee; }
  </style>
    </defs>
    <style
       id="current-color-scheme-67"
       type="text/css">
   .ColorScheme-Text { color:#424242; } .ColorScheme-Highlight { color:#eeeeee; }
  </style>
    <style
       id="current-color-scheme-62"
       type="text/css">
   .ColorScheme-Text { color:#424242; } .ColorScheme-Highlight { color:#eeeeee; }
  </style>
    <style
       id="current-color-scheme-0"
       type="text/css">
   .ColorScheme-Text { color:#424242; } .ColorScheme-Highlight { color:#eeeeee; }
  </style>
    <style
       id="current-color-scheme-5"
       type="text/css">
   .ColorScheme-Text { color:#424242; } .ColorScheme-Highlight { color:#eeeeee; }
  </style>
    <style
       id="current-color-scheme-1"
       type="text/css">
   .ColorScheme-Text { color:#424242; } .ColorScheme-Highlight { color:#eeeeee; }
  </style>
    <style
       id="current-color-scheme-60"
       type="text/css">
   .ColorScheme-Text { color:#424242; } .ColorScheme-Highlight { color:#eeeeee; }
  </style>
    <defs
       id="defs969">
      <style
         id="style967"
         type="text/css">
   .ColorScheme-Text { color:#424242; } .ColorScheme-Highlight { color:#eeeeee; }
  </style>
    </defs>
    <defs
       id="defs3-27">
      <style
         type="text/css"
         id="style953">
   .ColorScheme-Text { color:#424242; } .ColorScheme-Highlight { color:#eeeeee; }
  </style>
    </defs>
    <defs
       id="defs3-3">
      <style
         type="text/css"
         id="style905">
   .ColorScheme-Text { color:#424242; } .ColorScheme-Highlight { color:#eeeeee; }
  </style>
    </defs>
    <defs
       id="defs3-5">
      <style
         type="text/css"
         id="style929">
   .ColorScheme-Text { color:#424242; } .ColorScheme-Highlight { color:#eeeeee; }
  </style>
    </defs>
    <defs
       id="defs979">
      <style
         id="style977"
         type="text/css">
   .ColorScheme-Text { color:#424242; } .ColorScheme-Highlight { color:#eeeeee; }
  </style>
    </defs>
    <defs
       id="defs1087">
      <style
         type="text/css"
         id="style1085">
   .ColorScheme-Text { color:#424242; } .ColorScheme-Highlight { color:#eeeeee; }
  </style>
    </defs>
    <defs
       id="defs117">
      <style
         type="text/css"
         id="style115">
   .ColorScheme-Text { color:#424242; } .ColorScheme-Highlight { color:#eeeeee; }
  </style>
    </defs>
    <defs
       id="defs3-53">
      <style
         type="text/css"
         id="style1341">
   .ColorScheme-Text { color:#424242; } .ColorScheme-Highlight { color:#eeeeee; }
  </style>
    </defs>
    <defs
       id="defs1357">
      <style
         id="style1355"
         type="text/css">
   .ColorScheme-Text { color:#424242; } .ColorScheme-Highlight { color:#eeeeee; }
  </style>
    </defs>
    <defs
       id="defs1369">
      <style
         id="style1367"
         type="text/css">
   .ColorScheme-Text { color:#424242; } .ColorScheme-Highlight { color:#eeeeee; }
  </style>
    </defs>
    <defs
       id="defs1381">
      <style
         type="text/css"
         id="style1379">
   .ColorScheme-Text { color:#424242; } .ColorScheme-Highlight { color:#eeeeee; }
  </style>
    </defs>
    <defs
       id="defs3-29">
      <style
         type="text/css"
         id="style1404">
   .ColorScheme-Text { color:#424242; } .ColorScheme-Highlight { color:#eeeeee; }
  </style>
    </defs>
  </defs>
  <sodipodi:namedview
     pagecolor="#ffffff"
     bordercolor="#666666"
     borderopacity="1"
     objecttolerance="10"
     gridtolerance="10"
     guidetolerance="10"
     inkscape:pageopacity="0"
     inkscape:pageshadow="2"
     inkscape:window-width="1920"
     inkscape:window-height="1023"
     id="namedview10"
     showgrid="false"
     inkscape:zoom="5.3636365"
     inkscape:cx="99.065857"
     inkscape:cy="0.43425556"
     inkscape:window-x="0"
     inkscape:window-y="28"
     inkscape:window-maximized="1"
     inkscape:current-layer="svg8"
     showguides="false">
    <inkscape:grid
       type="xygrid"
       id="grid837" />
  </sodipodi:namedview>
  <g
     transform="translate(-0.75,-4.25)"
     id="surface1" />
  <g
     id="user-online">
    <g
       transform="scale(0.81818182)"
       id="22-22-touchpad_enabled">
      <rect
         style="fill:#eeeeee;fill-opacity:0;stroke:none;stroke-width:5.0040946;stroke-linecap:round;stroke-linejoin:round;stroke-miterlimit:4;stroke-dasharray:none;stroke-opacity:1"
         id="rect965"
         width="22"
         height="22"
         x="0"
         y="0" />
    </g>
    <path
       id="rect983"
       d="M 9 2 C 7.3379999 2 6 3.3379999 6 5 C 6 6.6620001 7.3379999 8 9 8 C 10.662 8 12 6.6620001 12 5 C 12 3.3379999 10.662 2 9 2 z M 6 9 C 4.338 9 3 10.338 3 12 L 3 16 L 5 16 L 5 12.5 C 5 12.223 5.223 12 5.5 12 C 5.777 12 6 12.223 6 12.5 L 6 16 L 12 16 L 12 12.5 C 12 12.223 12.223 12 12.5 12 C 12.777 12 13 12.223 13 12.5 L 13 16 L 15 16 L 15 12 C 15 10.338 13.662 9 12 9 L 6 9 z "
       style="fill:#eeeeee;fill-opacity:1;stroke:none;stroke-width:0.74881887;stroke-linecap:round;stroke-linejoin:round;stroke-miterlimit:4;stroke-dasharray:none;stroke-opacity:0.27522936;paint-order:normal" />
  </g>
  <g
     id="user-offline"
     transform="translate(19)">
    <g
       id="g921"
       transform="scale(0.81818182)">
      <rect
         y="0"
         x="0"
         height="22"
         width="22"
         id="rect919"
         style="fill:#eeeeee;fill-opacity:0;stroke:none;stroke-width:5.0040946;stroke-linecap:round;stroke-linejoin:round;stroke-miterlimit:4;stroke-dasharray:none;stroke-opacity:1" />
    </g>
    <path
       style="fill:#42a5f5;fill-opacity:1;stroke:none;stroke-width:0.74881887;stroke-linecap:round;stroke-linejoin:round;stroke-miterlimit:4;stroke-dasharray:none;stroke-opacity:0.27522936;paint-order:normal"
       d="M 9,2 C 7.3379999,2 6,3.3379999 6,5 6,6.6620001 7.3379999,8 9,8 10.662,8 12,6.6620001 12,5 12,3.3379999 10.662,2 9,2 Z M 6,9 C 4.338,9 3,10.338 3,12 v 4 H 5 V 12.5 C 5,12.223 5.223,12 5.5,12 5.777,12 6,12.223 6,12.5 V 16 h 6 v -3.5 c 0,-0.277 0.223,-0.5 0.5,-0.5 0.277,0 0.5,0.223 0.5,0.5 V 16 h 2 V 12 C 15,10.338 13.662,9 12,9 Z"
       id="path923"
       inkscape:connector-curvature="0" />
  </g>
  <g
     transform="translate(38)"
     id="user-away"
     inkscape:label="#user-away">
    <g
       transform="scale(0.81818182)"
       id="g929">
      <rect
         style="fill:#eeeeee;fill-opacity:0;stroke:none;stroke-width:5.0040946;stroke-linecap:round;stroke-linejoin:round;stroke-miterlimit:4;stroke-dasharray:none;stroke-opacity:1"
         id="rect927"
         width="22"
         height="22"
         x="0"
         y="0" />
    </g>
    <path
       inkscape:connector-curvature="0"
       id="path931"
       d="M 9,2 C 7.3379999,2 6,3.3379999 6,5 6,6.6620001 7.3379999,8 9,8 10.662,8 12,6.6620001 12,5 12,3.3379999 10.662,2 9,2 Z M 6,9 C 4.338,9 3,10.338 3,12 v 4 H 5 V 12.5 C 5,12.223 5.223,12 5.5,12 5.777,12 6,12.223 6,12.5 V 16 h 6 v -3.5 c 0,-0.277 0.223,-0.5 0.5,-0.5 0.277,0 0.5,0.223 0.5,0.5 V 16 h 2 V 12 C 15,10.338 13.662,9 12,9 Z"
       style="fill:#ff7043;fill-opacity:1;stroke:none;stroke-width:0.74881887;stroke-linecap:round;stroke-linejoin:round;stroke-miterlimit:4;stroke-dasharray:none;stroke-opacity:0.27522936;paint-order:normal" />
  </g>
  <g
     inkscape:label="#user-away-extended"
     id="user-away-extended"
     transform="translate(57)">
    <g
       id="g943"
       transform="scale(0.81818182)">
      <rect
         y="0"
         x="0"
         height="22"
         width="22"
         id="rect941"
         style="fill:#eeeeee;fill-opacity:0;stroke:none;stroke-width:5.0040946;stroke-linecap:round;stroke-linejoin:round;stroke-miterlimit:4;stroke-dasharray:none;stroke-opacity:1" />
    </g>
    <path
       style="fill:#ff7043;fill-opacity:1;stroke:none;stroke-width:0.74881887;stroke-linecap:round;stroke-linejoin:round;stroke-miterlimit:4;stroke-dasharray:none;stroke-opacity:0.27522936;paint-order:normal"
       d="m 65,2 c -1.662,0 -3,1.3379999 -3,3 0,1.6620001 1.338,3 3,3 1.662,0 3,-1.3379999 3,-3 0,-1.6620001 -1.338,-3 -3,-3 z m -3,7 c -1.662,0 -3,1.338 -3,3 v 4 h 2 v -3.5 c 0,-0.277 0.223,-0.5 0.5,-0.5 0.277,0 0.5,0.223 0.5,0.5 V 16 h 6 v -3.5 c 0,-0.277 0.223,-0.5 0.5,-0.5 0.277,0 0.5,0.223 0.5,0.5 V 16 h 2 V 12 C 71,10.338 69.662,9 68,9 Z m 3,2 c 0.554,0 1,0.446 1,1 v 1 c 0,0.554 -0.446,1 -1,1 -0.554,0 -1,-0.446 -1,-1 v -1 c 0,-0.554 0.446,-1 1,-1 z"
       transform="translate(-56)"
       id="path945"
       inkscape:connector-curvature="0" />
  </g>
  <g
     inkscape:label="#user-invisible"
     id="user-invisible"
     transform="translate(76)">
    <g
       id="g962"
       transform="scale(0.81818182)">
      <rect
         y="0"
         x="0"
         height="22"
         width="22"
         id="rect960"
         style="fill:#eeeeee;fill-opacity:0;stroke:none;stroke-width:5.0040946;stroke-linecap:round;stroke-linejoin:round;stroke-miterlimit:4;stroke-dasharray:none;stroke-opacity:1" />
    </g>
    <path
       style="fill:#eeeeee;fill-opacity:0.31372549;stroke:none;stroke-width:0.74881887;stroke-linecap:round;stroke-linejoin:round;stroke-miterlimit:4;stroke-dasharray:none;stroke-opacity:0.27522936;paint-order:normal"
       d="M 9,2 C 7.3379999,2 6,3.3379999 6,5 6,6.6620001 7.3379999,8 9,8 10.662,8 12,6.6620001 12,5 12,3.3379999 10.662,2 9,2 Z M 6,9 C 4.338,9 3,10.338 3,12 v 4 H 5 V 12.5 C 5,12.223 5.223,12 5.5,12 5.777,12 6,12.223 6,12.5 V 16 h 6 v -3.5 c 0,-0.277 0.223,-0.5 0.5,-0.5 0.277,0 0.5,0.223 0.5,0.5 V 16 h 2 V 12 C 15,10.338 13.662,9 12,9 Z"
       id="path964"
       inkscape:connector-curvature="0" />
  </g>
  <g
     id="user-identity">
    <rect
       y="0"
       x="94"
       height="18"
       width="18"
       id="rect968"
       style="fill:#eeeeee;fill-opacity:0;stroke:none;stroke-width:4.09425926;stroke-linecap:round;stroke-linejoin:round;stroke-miterlimit:4;stroke-dasharray:none;stroke-opacity:1" />
    <path
       style="fill:#eeeeee;fill-opacity:1;stroke:none;stroke-width:0.74881887;stroke-linecap:round;stroke-linejoin:round;stroke-miterlimit:4;stroke-dasharray:none;stroke-opacity:0.27522936;paint-order:normal"
       d="M 103 2 C 101.338 2 100 3.3379999 100 5 C 100 6.6620001 101.338 8 103 8 C 104.662 8 106 6.6620001 106 5 C 106 3.3379999 104.662 2 103 2 z M 100 9 C 98.338 9 97 10.338 97 12 L 97 16 L 99 16 L 99 14 L 99 13 L 99 12.5 C 99 12.223 99.223 12 99.5 12 C 99.580433 12 99.653514 12.023173 99.720703 12.056641 C 99.810941 12.030043 99.900919 12 100 12 L 106.5 12 L 109 12 C 109 10.338 107.662 9 106 9 L 100 9 z M 102 14 C 101.446 14 101 14.437032 101 14.980469 L 101 15.019531 C 101 15.562968 101.446 16 102 16 C 102.554 16 103 15.562968 103 15.019531 L 103 14.980469 C 103 14.437032 102.554 14 102 14 z M 104.94531 14 C 104.39131 14 103.94531 14.437032 103.94531 14.980469 L 103.94531 15.019531 C 103.94531 15.562968 104.39131 16 104.94531 16 C 105.49931 16 105.94531 15.562968 105.94531 15.019531 L 105.94531 14.980469 C 105.94531 14.437032 105.49931 14 104.94531 14 z M 108 14 C 107.446 14 107 14.437032 107 14.980469 L 107 15.019531 C 107 15.562968 107.446 16 108 16 C 108.554 16 109 15.562968 109 15.019531 L 109 14.980469 C 109 14.437032 108.554 14 108 14 z "
       id="1" />
    <rect
       ry="1"
       rx="1"
       y="15"
       x="104.94444"
       height="1"
       width="0.055555556"
       id="rect978"
       style="opacity:1;fill:#eeeeee;fill-opacity:1;stroke:none;stroke-width:2;stroke-linecap:round;stroke-linejoin:round;stroke-miterlimit:4;stroke-dasharray:none;stroke-opacity:1" />
  </g>
  <g
     id="user-busy">
    <g
       transform="translate(113)"
       id="g1006">
      <g
         transform="scale(0.81818182)"
         id="g1002">
        <rect
           style="fill:#eeeeee;fill-opacity:0;stroke:none;stroke-width:5.0040946;stroke-linecap:round;stroke-linejoin:round;stroke-miterlimit:4;stroke-dasharray:none;stroke-opacity:1"
           id="rect1000"
           width="22"
           height="22"
           x="0"
           y="0" />
      </g>
      <path
         style="fill:#eeeeee;fill-opacity:1;stroke:none;stroke-width:0.74881887;stroke-linecap:round;stroke-linejoin:round;stroke-miterlimit:4;stroke-dasharray:none;stroke-opacity:0.27522936;paint-order:normal"
         d="M 122 2 C 120.338 2 119 3.3379999 119 5 C 119 6.6620001 120.338 8 122 8 C 123.662 8 125 6.6620001 125 5 C 125 3.3379999 123.662 2 122 2 z M 119 9 C 117.338 9 116 10.338 116 12 L 116 16 L 118 16 L 118 13.125 L 118 12.875 L 118 12.5 C 118 12.223 118.223 12 118.5 12 C 118.56645 12 118.6296 12.013774 118.6875 12.037109 C 118.74958 12.023216 118.80861 12 118.875 12 L 125.5 12 L 128 12 C 128 10.338 126.662 9 125 9 L 119 9 z M 120 14 L 120 16 L 127 16 L 127 14 L 120 14 z "
         transform="translate(-113)"
         id="path1004" />
    </g>
  </g>
</svg>
