<?xml version="1.0" encoding="UTF-8" standalone="no"?>
<svg
   xmlns:dc="http://purl.org/dc/elements/1.1/"
   xmlns:cc="http://creativecommons.org/ns#"
   xmlns:rdf="http://www.w3.org/1999/02/22-rdf-syntax-ns#"
   xmlns:svg="http://www.w3.org/2000/svg"
   xmlns="http://www.w3.org/2000/svg"
   xmlns:sodipodi="http://sodipodi.sourceforge.net/DTD/sodipodi-0.dtd"
   xmlns:inkscape="http://www.inkscape.org/namespaces/inkscape"
   id="svg4306"
   width="22"
   height="22"
   version="1.1"
   style="enable-background:new"
   sodipodi:docname="alldesktops.svg"
   inkscape:version="0.92.4 5da689c313, 2019-01-14">
  <metadata
     id="metadata31">
    <rdf:RDF>
      <cc:Work
         rdf:about="">
        <dc:format>image/svg+xml</dc:format>
        <dc:type
           rdf:resource="http://purl.org/dc/dcmitype/StillImage" />
        <dc:title></dc:title>
      </cc:Work>
    </rdf:RDF>
  </metadata>
  <defs
     id="defs29" />
  <sodipodi:namedview
     pagecolor="#ffffff"
     bordercolor="#666666"
     borderopacity="1"
     objecttolerance="10"
     gridtolerance="10"
     guidetolerance="10"
     inkscape:pageopacity="0"
     inkscape:pageshadow="2"
     inkscape:window-width="1920"
     inkscape:window-height="1001"
     id="namedview27"
     showgrid="false"
     inkscape:zoom="7.9999996"
     inkscape:cx="57.779544"
     inkscape:cy="33.334485"
     inkscape:window-x="0"
     inkscape:window-y="0"
     inkscape:window-maximized="1"
     inkscape:current-layer="svg4306"
     showguides="false">
    <inkscape:grid
       type="xygrid"
       id="grid838" />
  </sodipodi:namedview>
  <g
     style="fill:#dfdfdf;fill-opacity:1"
     transform="matrix(0.99960695,0,0,0.99997077,-56.9717,-514.98451)"
     id="layer12">
    <g
       style="display:inline;fill:#dfdfdf;fill-opacity:1"
       transform="translate(19,-242)"
       id="layer4-4-1" />
  </g>
  <g
     id="active-center">
    <rect
       id="rect4175"
       width="22"
       height="22"
       x="0"
       y="0"
       style="opacity:0.00100002;fill:#000000;fill-opacity:1;fill-rule:nonzero;stroke:none;stroke-width:2;stroke-linecap:round;stroke-linejoin:round;stroke-miterlimit:4;stroke-dasharray:none;stroke-opacity:1" />
    <path
       id="rect1011"
       d="M 11 2 C 6.014 2 2 6.014 2 11 C 2 15.986 6.014 20 11 20 C 15.986 20 20 15.986 20 11 C 20 6.014 15.986 2 11 2 z M 11 4 C 14.878 4 18 7.122 18 11 C 18 14.878 14.878 18 11 18 C 7.122 18 4 14.878 4 11 C 4 7.122 7.122 4 11 4 z M 11 7 C 8.784 7 7 8.784 7 11 C 7 13.216 8.784 15 11 15 C 13.216 15 15 13.216 15 11 C 15 8.784 13.216 7 11 7 z "
       style="opacity:1;fill:#b39ddb;fill-opacity:1;stroke:none;stroke-width:1;stroke-linecap:round;stroke-linejoin:round;stroke-miterlimit:4;stroke-dasharray:none;stroke-opacity:1" />
    <path
       id="path1019"
       d="M 11 2 C 6.014 2 2 6.014 2 11 C 2 11.084525 2.0113796 11.166049 2.0136719 11.25 C 2.1465996 6.3817812 6.0985249 2.5 11 2.5 C 15.901475 2.5 19.8534 6.3817812 19.986328 11.25 C 19.98862 11.166049 20 11.084525 20 11 C 20 6.014 15.986 2 11 2 z M 11 7 C 8.784 7 7 8.784 7 11 C 7 11.085664 7.0201369 11.165705 7.0253906 11.25 C 7.1560444 9.1537145 8.8696638 7.5 11 7.5 C 13.130336 7.5 14.843956 9.1537145 14.974609 11.25 C 14.979863 11.165705 15 11.085664 15 11 C 15 8.784 13.216 7 11 7 z M 4.0117188 11.25 C 4.0087769 11.333782 4 11.415475 4 11.5 C 4 15.378 7.122 18.5 11 18.5 C 14.878 18.5 18 15.378 18 11.5 C 18 11.415475 17.991223 11.333782 17.988281 11.25 C 17.856253 15.010138 14.793475 18 11 18 C 7.2065251 18 4.1437474 15.010138 4.0117188 11.25 z "
       style="opacity:1;fill:#ffffff;fill-opacity:0.39215687;stroke:none;stroke-width:1;stroke-linecap:round;stroke-linejoin:round;stroke-miterlimit:4;stroke-dasharray:none;stroke-opacity:1" />
    <path
       inkscape:connector-curvature="0"
       style="opacity:1;fill:#ffffff;fill-opacity:0.39215686;stroke:none;stroke-width:1;stroke-linecap:round;stroke-linejoin:round;stroke-miterlimit:4;stroke-dasharray:none;stroke-opacity:1"
       d="M 11,20.5 C 6.014,20.5 2,16.486 2,11.5 2,11.41548 2.01138,11.333951 2.013672,11.25 2.1465996,16.118219 6.0985249,20 11,20 c 4.901475,0 8.8534,-3.881781 8.986328,-8.75 0.0023,0.08395 0.01367,0.165475 0.01367,0.25 0,4.986 -4.014,9 -9,9 z m 0,-5 C 8.784,15.5 7,13.716 7,11.5 7,11.41434 7.020137,11.334295 7.025391,11.25 7.1560444,13.346286 8.8696638,15 11,15 c 2.130336,0 3.843956,-1.653714 3.974609,-3.75 0.0053,0.08429 0.02539,0.164336 0.02539,0.25 0,2.216 -1.784,4 -3.999999,4 z M 4.0117188,11.25 C 4.0087769,11.166218 4,11.084525 4,11 4,7.122 7.122,4 11,4 c 3.878,0 7,3.122 7,7 0,0.08452 -0.0088,0.166218 -0.01172,0.25 C 17.856253,7.489862 14.793475,4.5 11,4.5 7.2065251,4.5 4.1437474,7.489862 4.0117188,11.25 Z"
       id="path1024" />
  </g>
  <g
     id="hover-center"
     transform="translate(25.025391)">
    <rect
       style="opacity:0.00100002;fill:#000000;fill-opacity:1;fill-rule:nonzero;stroke:none;stroke-width:2;stroke-linecap:round;stroke-linejoin:round;stroke-miterlimit:4;stroke-dasharray:none;stroke-opacity:1"
       y="0"
       x="0"
       height="22"
       width="22"
       id="rect1032" />
    <path
       style="opacity:1;fill:#d8ccec;fill-opacity:1;stroke:none;stroke-width:1;stroke-linecap:round;stroke-linejoin:round;stroke-miterlimit:4;stroke-dasharray:none;stroke-opacity:1"
       d="m 11,2 c -4.986,0 -9,4.014 -9,9 0,4.986 4.014,9 9,9 4.986,0 9,-4.014 9,-9 0,-4.986 -4.014,-9 -9,-9 z m 0,2 c 3.878,0 7,3.122 7,7 0,3.878 -3.122,7 -7,7 C 7.122,18 4,14.878 4,11 4,7.122 7.122,4 11,4 Z m 0,3 c -2.216,0 -4,1.784 -4,4 0,2.216 1.784,4 4,4 2.216,0 4,-1.784 4,-4 0,-2.216 -1.784,-4 -4,-4 z"
       id="path1034"
       inkscape:connector-curvature="0" />
    <path
       style="opacity:1;fill:#ffffff;fill-opacity:0.39215686;stroke:none;stroke-width:1;stroke-linecap:round;stroke-linejoin:round;stroke-miterlimit:4;stroke-dasharray:none;stroke-opacity:1"
       d="m 11,2 c -4.986,0 -9,4.014 -9,9 0,0.08452 0.01138,0.166049 0.013672,0.25 C 2.1465996,6.3817812 6.0985249,2.5 11,2.5 c 4.901475,0 8.8534,3.8817812 8.986328,8.75 C 19.98862,11.166049 20,11.084525 20,11 20,6.014 15.986,2 11,2 Z m 0,5 c -2.216,0 -4,1.784 -4,4 0,0.08566 0.020137,0.165705 0.025391,0.25 C 7.1560444,9.1537145 8.8696638,7.5 11,7.5 c 2.130336,0 3.843956,1.6537145 3.974609,3.75 C 14.979863,11.165705 15,11.085664 15,11 15,8.784 13.216,7 11,7 Z M 4.0117188,11.25 C 4.0087769,11.333782 4,11.415475 4,11.5 c 0,3.878 3.122,7 7,7 3.878,0 7,-3.122 7,-7 0,-0.08452 -0.0088,-0.166218 -0.01172,-0.25 C 17.856253,15.010138 14.793475,18 11,18 7.2065251,18 4.1437474,15.010138 4.0117188,11.25 Z"
       id="path1036"
       inkscape:connector-curvature="0" />
    <path
       id="path1038"
       d="M 11,20.5 C 6.014,20.5 2,16.486 2,11.5 2,11.41548 2.01138,11.333951 2.013672,11.25 2.1465996,16.118219 6.0985249,20 11,20 c 4.901475,0 8.8534,-3.881781 8.986328,-8.75 0.0023,0.08395 0.01367,0.165475 0.01367,0.25 0,4.986 -4.014,9 -9,9 z m 0,-5 C 8.784,15.5 7,13.716 7,11.5 7,11.41434 7.020137,11.334295 7.025391,11.25 7.1560444,13.346286 8.8696638,15 11,15 c 2.130336,0 3.843956,-1.653714 3.974609,-3.75 0.0053,0.08429 0.02539,0.164336 0.02539,0.25 0,2.216 -1.784,4 -3.999999,4 z M 4.0117188,11.25 C 4.0087769,11.166218 4,11.084525 4,11 4,7.122 7.122,4 11,4 c 3.878,0 7,3.122 7,7 0,0.08452 -0.0088,0.166218 -0.01172,0.25 C 17.856253,7.489862 14.793475,4.5 11,4.5 7.2065251,4.5 4.1437474,7.489862 4.0117188,11.25 Z"
       style="opacity:1;fill:#ffffff;fill-opacity:0.39215686;stroke:none;stroke-width:1;stroke-linecap:round;stroke-linejoin:round;stroke-miterlimit:4;stroke-dasharray:none;stroke-opacity:1"
       inkscape:connector-curvature="0" />
  </g>
  <g
     id="pressed-center"
     transform="matrix(1,0,0,-1,50.025391,22)">
    <rect
       style="opacity:0.00100002;fill:#000000;fill-opacity:1;fill-rule:nonzero;stroke:none;stroke-width:2;stroke-linecap:round;stroke-linejoin:round;stroke-miterlimit:4;stroke-dasharray:none;stroke-opacity:1"
       y="0"
       x="0"
       height="22"
       width="22"
       id="rect1042" />
    <path
       style="opacity:1;fill:#9f84d0;fill-opacity:1;stroke:none;stroke-width:1;stroke-linecap:round;stroke-linejoin:round;stroke-miterlimit:4;stroke-dasharray:none;stroke-opacity:1"
       d="m 11,2 c -4.986,0 -9,4.014 -9,9 0,4.986 4.014,9 9,9 4.986,0 9,-4.014 9,-9 0,-4.986 -4.014,-9 -9,-9 z m 0,2 c 3.878,0 7,3.122 7,7 0,3.878 -3.122,7 -7,7 C 7.122,18 4,14.878 4,11 4,7.122 7.122,4 11,4 Z m 0,3 c -2.216,0 -4,1.784 -4,4 0,2.216 1.784,4 4,4 2.216,0 4,-1.784 4,-4 0,-2.216 -1.784,-4 -4,-4 z"
       id="path1044"
       inkscape:connector-curvature="0" />
    <path
       style="opacity:1;fill:#ffffff;fill-opacity:0.39215686;stroke:none;stroke-width:1;stroke-linecap:round;stroke-linejoin:round;stroke-miterlimit:4;stroke-dasharray:none;stroke-opacity:1"
       d="m 11,1.5 c -4.986,0 -9,4.014 -9,9 0,0.08452 0.01138,0.166049 0.013672,0.25 C 2.1465996,5.8817812 6.0985249,2 11,2 15.901475,2 19.8534,5.8817812 19.986328,10.75 19.98862,10.666049 20,10.584525 20,10.5 c 0,-4.986 -4.014,-9 -9,-9 z m 0,5 c -2.216,0 -4,1.784 -4,4 0,0.08566 0.020137,0.165705 0.025391,0.25 C 7.1560444,8.6537145 8.8696638,7 11,7 13.130336,7 14.843956,8.6537145 14.974609,10.75 14.979863,10.665705 15,10.585664 15,10.5 15,8.284 13.216,6.5 11,6.5 Z M 4.0117188,10.75 C 4.0087769,10.833782 4,10.915475 4,11 c 0,3.878 3.122,7 7,7 3.878,0 7,-3.122 7,-7 0,-0.08452 -0.0088,-0.166218 -0.01172,-0.25 C 17.856253,14.510138 14.793475,17.5 11,17.5 7.2065251,17.5 4.1437474,14.510138 4.0117188,10.75 Z"
       id="path1046"
       inkscape:connector-curvature="0" />
    <path
       id="path1048"
       d="M 11,20 C 6.014,20 2,15.986 2,11 2,10.91548 2.01138,10.833951 2.013672,10.75 2.1465996,15.618219 6.0985249,19.5 11,19.5 c 4.901475,0 8.8534,-3.881781 8.986328,-8.75 0.0023,0.08395 0.01367,0.165475 0.01367,0.25 0,4.986 -4.014,9 -9,9 z m 0,-5 C 8.784,15 7,13.216 7,11 7,10.91434 7.020137,10.834295 7.025391,10.75 7.1560444,12.846286 8.8696638,14.5 11,14.5 c 2.130336,0 3.843956,-1.653714 3.974609,-3.75 0.0053,0.08429 0.02539,0.164336 0.02539,0.25 0,2.216 -1.784,4 -3.999999,4 z M 4.0117188,10.75 C 4.0087769,10.666218 4,10.584525 4,10.5 c 0,-3.878 3.122,-7 7,-7 3.878,0 7,3.122 7,7 0,0.08452 -0.0088,0.166218 -0.01172,0.25 C 17.856253,6.989862 14.793475,4 11,4 7.2065251,4 4.1437474,6.989862 4.0117188,10.75 Z"
       style="opacity:1;fill:#090909;fill-opacity:0.39215687;stroke:none;stroke-width:1;stroke-linecap:round;stroke-linejoin:round;stroke-miterlimit:4;stroke-dasharray:none;stroke-opacity:1"
       inkscape:connector-curvature="0" />
  </g>
  <g
     id="inactive-center"
     transform="translate(75.013672)"
     inkscape:label="#inactive-center">
    <rect
       style="opacity:0.00100002;fill:#000000;fill-opacity:1;fill-rule:nonzero;stroke:none;stroke-width:2;stroke-linecap:round;stroke-linejoin:round;stroke-miterlimit:4;stroke-dasharray:none;stroke-opacity:1"
       y="0"
       x="0"
       height="22"
       width="22"
       id="rect1052" />
    <path
       style="opacity:1;fill:#4a4a4a;fill-opacity:1;stroke:none;stroke-width:1;stroke-linecap:round;stroke-linejoin:round;stroke-miterlimit:4;stroke-dasharray:none;stroke-opacity:1"
       d="m 11,2 c -4.986,0 -9,4.014 -9,9 0,4.986 4.014,9 9,9 4.986,0 9,-4.014 9,-9 0,-4.986 -4.014,-9 -9,-9 z m 0,2 c 3.878,0 7,3.122 7,7 0,3.878 -3.122,7 -7,7 C 7.122,18 4,14.878 4,11 4,7.122 7.122,4 11,4 Z m 0,3 c -2.216,0 -4,1.784 -4,4 0,2.216 1.784,4 4,4 2.216,0 4,-1.784 4,-4 0,-2.216 -1.784,-4 -4,-4 z"
       id="path1054"
       inkscape:connector-curvature="0" />
    <path
       style="opacity:1;fill:#ffffff;fill-opacity:0.39215686;stroke:none;stroke-width:1;stroke-linecap:round;stroke-linejoin:round;stroke-miterlimit:4;stroke-dasharray:none;stroke-opacity:1"
       d="m 11,2 c -4.986,0 -9,4.014 -9,9 0,0.08452 0.01138,0.166049 0.013672,0.25 C 2.1465996,6.3817812 6.0985249,2.5 11,2.5 c 4.901475,0 8.8534,3.8817812 8.986328,8.75 C 19.98862,11.166049 20,11.084525 20,11 20,6.014 15.986,2 11,2 Z m 0,5 c -2.216,0 -4,1.784 -4,4 0,0.08566 0.020137,0.165705 0.025391,0.25 C 7.1560444,9.1537145 8.8696638,7.5 11,7.5 c 2.130336,0 3.843956,1.6537145 3.974609,3.75 C 14.979863,11.165705 15,11.085664 15,11 15,8.784 13.216,7 11,7 Z M 4.0117188,11.25 C 4.0087769,11.333782 4,11.415475 4,11.5 c 0,3.878 3.122,7 7,7 3.878,0 7,-3.122 7,-7 0,-0.08452 -0.0088,-0.166218 -0.01172,-0.25 C 17.856253,15.010138 14.793475,18 11,18 7.2065251,18 4.1437474,15.010138 4.0117188,11.25 Z"
       id="path1056"
       inkscape:connector-curvature="0" />
    <path
       id="path1058"
       d="M 11,20.5 C 6.014,20.5 2,16.486 2,11.5 2,11.41548 2.01138,11.333951 2.013672,11.25 2.1465996,16.118219 6.0985249,20 11,20 c 4.901475,0 8.8534,-3.881781 8.986328,-8.75 0.0023,0.08395 0.01367,0.165475 0.01367,0.25 0,4.986 -4.014,9 -9,9 z m 0,-5 C 8.784,15.5 7,13.716 7,11.5 7,11.41434 7.020137,11.334295 7.025391,11.25 7.1560444,13.346286 8.8696638,15 11,15 c 2.130336,0 3.843956,-1.653714 3.974609,-3.75 0.0053,0.08429 0.02539,0.164336 0.02539,0.25 0,2.216 -1.784,4 -3.999999,4 z M 4.0117188,11.25 C 4.0087769,11.166218 4,11.084525 4,11 4,7.122 7.122,4 11,4 c 3.878,0 7,3.122 7,7 0,0.08452 -0.0088,0.166218 -0.01172,0.25 C 17.856253,7.489862 14.793475,4.5 11,4.5 7.2065251,4.5 4.1437474,7.489862 4.0117188,11.25 Z"
       style="opacity:1;fill:#ffffff;fill-opacity:0.39215686;stroke:none;stroke-width:1;stroke-linecap:round;stroke-linejoin:round;stroke-miterlimit:4;stroke-dasharray:none;stroke-opacity:1"
       inkscape:connector-curvature="0" />
  </g>
  <g
     transform="translate(100.01367)"
     id="deactivated-center">
    <rect
       id="rect1062"
       width="22"
       height="22"
       x="0"
       y="0"
       style="opacity:0.00100002;fill:#000000;fill-opacity:1;fill-rule:nonzero;stroke:none;stroke-width:2;stroke-linecap:round;stroke-linejoin:round;stroke-miterlimit:4;stroke-dasharray:none;stroke-opacity:1" />
    <path
       inkscape:connector-curvature="0"
       id="path1064"
       d="m 11,2 c -4.986,0 -9,4.014 -9,9 0,4.986 4.014,9 9,9 4.986,0 9,-4.014 9,-9 0,-4.986 -4.014,-9 -9,-9 z m 0,2 c 3.878,0 7,3.122 7,7 0,3.878 -3.122,7 -7,7 C 7.122,18 4,14.878 4,11 4,7.122 7.122,4 11,4 Z m 0,3 c -2.216,0 -4,1.784 -4,4 0,2.216 1.784,4 4,4 2.216,0 4,-1.784 4,-4 0,-2.216 -1.784,-4 -4,-4 z"
       style="opacity:1;fill:#646464;fill-opacity:1;stroke:none;stroke-width:1;stroke-linecap:round;stroke-linejoin:round;stroke-miterlimit:4;stroke-dasharray:none;stroke-opacity:1" />
    <path
       inkscape:connector-curvature="0"
       id="path1066"
       d="M 11,2 C 6.014,2 2,6.014 2,11 2,11.08452 2.01138,11.166049 2.013672,11.25 2.1465996,6.3817812 6.0985249,2.5 11,2.5 c 4.901475,0 8.8534,3.8817812 8.986328,8.75 C 19.98862,11.166049 20,11.084525 20,11 20,6.014 15.986,2 11,2 Z m 0,5 C 8.784,7 7,8.784 7,11 7,11.08566 7.020137,11.165705 7.025391,11.25 7.1560444,9.1537145 8.8696638,7.5 11,7.5 c 2.130336,0 3.843956,1.6537145 3.974609,3.75 C 14.979863,11.165705 15,11.085664 15,11 15,8.784 13.216,7 11,7 Z M 4.0117188,11.25 C 4.0087769,11.333782 4,11.415475 4,11.5 c 0,3.878 3.122,7 7,7 3.878,0 7,-3.122 7,-7 0,-0.08452 -0.0088,-0.166218 -0.01172,-0.25 C 17.856253,15.010138 14.793475,18 11,18 7.2065251,18 4.1437474,15.010138 4.0117188,11.25 Z"
       style="opacity:1;fill:#ffffff;fill-opacity:0.39215686;stroke:none;stroke-width:1;stroke-linecap:round;stroke-linejoin:round;stroke-miterlimit:4;stroke-dasharray:none;stroke-opacity:1" />
    <path
       inkscape:connector-curvature="0"
       style="opacity:1;fill:#ffffff;fill-opacity:0.39215686;stroke:none;stroke-width:1;stroke-linecap:round;stroke-linejoin:round;stroke-miterlimit:4;stroke-dasharray:none;stroke-opacity:1"
       d="M 11,20.5 C 6.014,20.5 2,16.486 2,11.5 2,11.41548 2.01138,11.333951 2.013672,11.25 2.1465996,16.118219 6.0985249,20 11,20 c 4.901475,0 8.8534,-3.881781 8.986328,-8.75 0.0023,0.08395 0.01367,0.165475 0.01367,0.25 0,4.986 -4.014,9 -9,9 z m 0,-5 C 8.784,15.5 7,13.716 7,11.5 7,11.41434 7.020137,11.334295 7.025391,11.25 7.1560444,13.346286 8.8696638,15 11,15 c 2.130336,0 3.843956,-1.653714 3.974609,-3.75 0.0053,0.08429 0.02539,0.164336 0.02539,0.25 0,2.216 -1.784,4 -3.999999,4 z M 4.0117188,11.25 C 4.0087769,11.166218 4,11.084525 4,11 4,7.122 7.122,4 11,4 c 3.878,0 7,3.122 7,7 0,0.08452 -0.0088,0.166218 -0.01172,0.25 C 17.856253,7.489862 14.793475,4.5 11,4.5 7.2065251,4.5 4.1437474,7.489862 4.0117188,11.25 Z"
       id="path1068" />
  </g>
</svg>
