<?xml version="1.0" encoding="UTF-8" standalone="no"?>
<svg
   xmlns:dc="http://purl.org/dc/elements/1.1/"
   xmlns:cc="http://creativecommons.org/ns#"
   xmlns:rdf="http://www.w3.org/1999/02/22-rdf-syntax-ns#"
   xmlns:svg="http://www.w3.org/2000/svg"
   xmlns="http://www.w3.org/2000/svg"
   xmlns:sodipodi="http://sodipodi.sourceforge.net/DTD/sodipodi-0.dtd"
   xmlns:inkscape="http://www.inkscape.org/namespaces/inkscape"
   id="svg4306"
   width="22"
   height="22"
   version="1.1"
   style="enable-background:new"
   sodipodi:docname="close.svg"
   inkscape:version="0.92.4 5da689c313, 2019-01-14">
  <metadata
     id="metadata31">
    <rdf:RDF>
      <cc:Work
         rdf:about="">
        <dc:format>image/svg+xml</dc:format>
        <dc:type
           rdf:resource="http://purl.org/dc/dcmitype/StillImage" />
        <dc:title></dc:title>
      </cc:Work>
    </rdf:RDF>
  </metadata>
  <defs
     id="defs29" />
  <sodipodi:namedview
     pagecolor="#ffffff"
     bordercolor="#666666"
     borderopacity="1"
     objecttolerance="10"
     gridtolerance="10"
     guidetolerance="10"
     inkscape:pageopacity="0"
     inkscape:pageshadow="2"
     inkscape:window-width="1920"
     inkscape:window-height="1001"
     id="namedview27"
     showgrid="true"
     inkscape:zoom="5.656854"
     inkscape:cx="48.236589"
     inkscape:cy="-5.399559"
     inkscape:window-x="0"
     inkscape:window-y="0"
     inkscape:window-maximized="1"
     inkscape:current-layer="svg4306"
     showguides="false">
    <inkscape:grid
       type="xygrid"
       id="grid838" />
  </sodipodi:namedview>
  <g
     style="fill:#dfdfdf;fill-opacity:1"
     transform="matrix(0.99960695,0,0,0.99997077,-56.9717,-514.98451)"
     id="layer12">
    <g
       style="display:inline;fill:#dfdfdf;fill-opacity:1"
       transform="translate(19,-242)"
       id="layer4-4-1" />
  </g>
  <g
     id="active-center"
     transform="translate(0,27.179687)">
    <rect
       style="opacity:0.00100002;fill:#000000;fill-opacity:1;fill-rule:nonzero;stroke:none;stroke-width:2;stroke-linecap:round;stroke-linejoin:round;stroke-miterlimit:4;stroke-dasharray:none;stroke-opacity:1"
       y="0"
       x="0"
       height="22"
       width="22"
       id="rect1122" />
    <path
       id="rect1136"
       d="M 3.5839844,2.1582031 2.1699219,3.5722656 9.5859375,10.988281 2.1699219,18.40625 3.5839844,19.820312 11,12.404297 18.416016,19.820312 19.830078,18.40625 12.414062,10.988281 19.830078,3.5722656 18.416016,2.1582031 11,9.5742188 Z"
       style="opacity:1;fill:#b39ddb;fill-opacity:1;stroke:none;stroke-width:1.12984514;stroke-linecap:round;stroke-linejoin:round;stroke-miterlimit:4;stroke-dasharray:none;stroke-opacity:1"
       inkscape:connector-curvature="0" />
    <path
       id="path1143"
       d="M 3.5839844,2.1582031 2.1699219,3.5722656 2.4277344,3.8300781 3.5839844,2.6738281 11,10.089844 18.416016,2.6738281 19.572266,3.8300781 19.830078,3.5722656 18.416016,2.1582031 11,9.5742188 Z M 9.328125,11.246094 2.1699219,18.40625 2.4277344,18.664062 9.5859375,11.503906 Z m 3.34375,0 -0.257813,0.257812 7.158204,7.160156 0.257812,-0.257812 z"
       style="opacity:1;fill:#ffffff;fill-opacity:0.39215686;stroke:none;stroke-width:1.12984514;stroke-linecap:round;stroke-linejoin:round;stroke-miterlimit:4;stroke-dasharray:none;stroke-opacity:1"
       inkscape:connector-curvature="0" />
    <path
       inkscape:connector-curvature="0"
       style="opacity:1;fill:#000000;fill-opacity:0.39215686;stroke:none;stroke-width:1.12984514;stroke-linecap:round;stroke-linejoin:round;stroke-miterlimit:4;stroke-dasharray:none;stroke-opacity:1"
       d="m 3.5839844,20.335938 -1.4140625,-1.414062 0.2578125,-0.257813 1.15625,1.15625 L 11,12.404297 l 7.416016,7.416016 1.15625,-1.15625 0.257812,0.257813 -1.414062,1.414062 L 11,12.919922 Z M 9.328125,11.248047 2.1699219,4.0878911 2.4277344,3.8300791 9.5859375,10.990235 Z m 3.34375,0 -0.257813,-0.257812 7.158204,-7.1601559 0.257812,0.257812 z"
       id="path1148" />
  </g>
  <g
     id="hover-center"
     transform="translate(25,27.179687)">
    <rect
       id="rect1156"
       width="22"
       height="22"
       x="0"
       y="0"
       style="opacity:0.00100002;fill:#000000;fill-opacity:1;fill-rule:nonzero;stroke:none;stroke-width:2;stroke-linecap:round;stroke-linejoin:round;stroke-miterlimit:4;stroke-dasharray:none;stroke-opacity:1" />
    <path
       style="opacity:1;fill:#d7ccec;fill-opacity:1;stroke:none;stroke-width:1.12984514;stroke-linecap:round;stroke-linejoin:round;stroke-miterlimit:4;stroke-dasharray:none;stroke-opacity:1"
       d="M 3.5839844,2.1582031 2.1699219,3.5722656 9.5859375,10.988281 2.1699219,18.40625 3.5839844,19.820312 11,12.404297 18.416016,19.820312 19.830078,18.40625 12.414062,10.988281 19.830078,3.5722656 18.416016,2.1582031 11,9.5742188 Z"
       id="path1158"
       inkscape:connector-curvature="0" />
    <path
       style="opacity:1;fill:#ffffff;fill-opacity:0.39215686;stroke:none;stroke-width:1.12984514;stroke-linecap:round;stroke-linejoin:round;stroke-miterlimit:4;stroke-dasharray:none;stroke-opacity:1"
       d="M 3.5839844,2.1582031 2.1699219,3.5722656 2.4277344,3.8300781 3.5839844,2.6738281 11,10.089844 18.416016,2.6738281 19.572266,3.8300781 19.830078,3.5722656 18.416016,2.1582031 11,9.5742188 Z M 9.328125,11.246094 2.1699219,18.40625 2.4277344,18.664062 9.5859375,11.503906 Z m 3.34375,0 -0.257813,0.257812 7.158204,7.160156 0.257812,-0.257812 z"
       id="path1160"
       inkscape:connector-curvature="0" />
    <path
       id="path1162"
       d="m 3.5839844,20.335938 -1.4140625,-1.414062 0.2578125,-0.257813 1.15625,1.15625 L 11,12.404297 l 7.416016,7.416016 1.15625,-1.15625 0.257812,0.257813 -1.414062,1.414062 L 11,12.919922 Z M 9.328125,11.248047 2.1699219,4.0878911 2.4277344,3.8300791 9.5859375,10.990235 Z m 3.34375,0 -0.257813,-0.257812 7.158204,-7.1601559 0.257812,0.257812 z"
       style="opacity:1;fill:#000000;fill-opacity:0.39215686;stroke:none;stroke-width:1.12984514;stroke-linecap:round;stroke-linejoin:round;stroke-miterlimit:4;stroke-dasharray:none;stroke-opacity:1"
       inkscape:connector-curvature="0" />
  </g>
  <g
     transform="translate(50,27.179687)"
     id="pressed-center">
    <rect
       style="opacity:0.00100002;fill:#000000;fill-opacity:1;fill-rule:nonzero;stroke:none;stroke-width:2;stroke-linecap:round;stroke-linejoin:round;stroke-miterlimit:4;stroke-dasharray:none;stroke-opacity:1"
       y="0"
       x="0"
       height="22"
       width="22"
       id="rect1166" />
    <path
       inkscape:connector-curvature="0"
       id="path1168"
       d="M 3.5839844,2.1582031 2.1699219,3.5722656 9.5859375,10.988281 2.1699219,18.40625 3.5839844,19.820312 11,12.404297 18.416016,19.820312 19.830078,18.40625 12.414062,10.988281 19.830078,3.5722656 18.416016,2.1582031 11,9.5742188 Z"
       style="opacity:1;fill:#9f83d1;fill-opacity:1;stroke:none;stroke-width:1.12984514;stroke-linecap:round;stroke-linejoin:round;stroke-miterlimit:4;stroke-dasharray:none;stroke-opacity:1" />
    <path
       inkscape:connector-curvature="0"
       id="path1170"
       d="M 3.5839844,2.1582031 2.1699219,3.5722656 2.4277344,3.8300781 3.5839844,2.6738281 11,10.089844 18.416016,2.6738281 19.572266,3.8300781 19.830078,3.5722656 18.416016,2.1582031 11,9.5742188 Z M 9.328125,11.246094 2.1699219,18.40625 2.4277344,18.664062 9.5859375,11.503906 Z m 3.34375,0 -0.257813,0.257812 7.158204,7.160156 0.257812,-0.257812 z"
       style="opacity:1;fill:#000000;fill-opacity:0.39215686;stroke:none;stroke-width:1.12984514;stroke-linecap:round;stroke-linejoin:round;stroke-miterlimit:4;stroke-dasharray:none;stroke-opacity:1" />
    <path
       inkscape:connector-curvature="0"
       style="opacity:1;fill:#ffffff;fill-opacity:0.39215686;stroke:none;stroke-width:1.12984514;stroke-linecap:round;stroke-linejoin:round;stroke-miterlimit:4;stroke-dasharray:none;stroke-opacity:1"
       d="m 3.5839844,20.335938 -1.4140625,-1.414062 0.2578125,-0.257813 1.15625,1.15625 L 11,12.404297 l 7.416016,7.416016 1.15625,-1.15625 0.257812,0.257813 -1.414062,1.414062 L 11,12.919922 Z M 9.328125,11.248047 2.1699219,4.0878911 2.4277344,3.8300791 9.5859375,10.990235 Z m 3.34375,0 -0.257813,-0.257812 7.158204,-7.1601559 0.257812,0.257812 z"
       id="path1172" />
  </g>
  <g
     id="inactive-center"
     transform="translate(75,27.179687)">
    <rect
       id="rect1176"
       width="22"
       height="22"
       x="0"
       y="0"
       style="opacity:0.00100002;fill:#000000;fill-opacity:1;fill-rule:nonzero;stroke:none;stroke-width:2;stroke-linecap:round;stroke-linejoin:round;stroke-miterlimit:4;stroke-dasharray:none;stroke-opacity:1" />
    <path
       style="opacity:1;fill:#4a4a4a;fill-opacity:1;stroke:none;stroke-width:1.12984514;stroke-linecap:round;stroke-linejoin:round;stroke-miterlimit:4;stroke-dasharray:none;stroke-opacity:1"
       d="M 3.5839844,2.1582031 2.1699219,3.5722656 9.5859375,10.988281 2.1699219,18.40625 3.5839844,19.820312 11,12.404297 18.416016,19.820312 19.830078,18.40625 12.414062,10.988281 19.830078,3.5722656 18.416016,2.1582031 11,9.5742188 Z"
       id="path1178"
       inkscape:connector-curvature="0" />
    <path
       style="opacity:1;fill:#ffffff;fill-opacity:0.39215686;stroke:none;stroke-width:1.12984514;stroke-linecap:round;stroke-linejoin:round;stroke-miterlimit:4;stroke-dasharray:none;stroke-opacity:1"
       d="M 3.5839844,2.1582031 2.1699219,3.5722656 2.4277344,3.8300781 3.5839844,2.6738281 11,10.089844 18.416016,2.6738281 19.572266,3.8300781 19.830078,3.5722656 18.416016,2.1582031 11,9.5742188 Z M 9.328125,11.246094 2.1699219,18.40625 2.4277344,18.664062 9.5859375,11.503906 Z m 3.34375,0 -0.257813,0.257812 7.158204,7.160156 0.257812,-0.257812 z"
       id="path1180"
       inkscape:connector-curvature="0" />
    <path
       id="path1182"
       d="m 3.5839844,20.335938 -1.4140625,-1.414062 0.2578125,-0.257813 1.15625,1.15625 L 11,12.404297 l 7.416016,7.416016 1.15625,-1.15625 0.257812,0.257813 -1.414062,1.414062 L 11,12.919922 Z M 9.328125,11.248047 2.1699219,4.0878911 2.4277344,3.8300791 9.5859375,10.990235 Z m 3.34375,0 -0.257813,-0.257812 7.158204,-7.1601559 0.257812,0.257812 z"
       style="opacity:1;fill:#000000;fill-opacity:0.39215686;stroke:none;stroke-width:1.12984514;stroke-linecap:round;stroke-linejoin:round;stroke-miterlimit:4;stroke-dasharray:none;stroke-opacity:1"
       inkscape:connector-curvature="0" />
  </g>
  <g
     transform="translate(100,27.179687)"
     id="deactivated-center"
     inkscape:label="#g1194">
    <rect
       style="opacity:0.00100002;fill:#000000;fill-opacity:1;fill-rule:nonzero;stroke:none;stroke-width:2;stroke-linecap:round;stroke-linejoin:round;stroke-miterlimit:4;stroke-dasharray:none;stroke-opacity:1"
       y="0"
       x="0"
       height="22"
       width="22"
       id="rect1186" />
    <path
       inkscape:connector-curvature="0"
       id="path1188"
       d="M 3.5839844,2.1582031 2.1699219,3.5722656 9.5859375,10.988281 2.1699219,18.40625 3.5839844,19.820312 11,12.404297 18.416016,19.820312 19.830078,18.40625 12.414062,10.988281 19.830078,3.5722656 18.416016,2.1582031 11,9.5742188 Z"
       style="opacity:1;fill:#646464;fill-opacity:1;stroke:none;stroke-width:1.12984514;stroke-linecap:round;stroke-linejoin:round;stroke-miterlimit:4;stroke-dasharray:none;stroke-opacity:1" />
    <path
       inkscape:connector-curvature="0"
       id="path1190"
       d="M 3.5839844,2.1582031 2.1699219,3.5722656 2.4277344,3.8300781 3.5839844,2.6738281 11,10.089844 18.416016,2.6738281 19.572266,3.8300781 19.830078,3.5722656 18.416016,2.1582031 11,9.5742188 Z M 9.328125,11.246094 2.1699219,18.40625 2.4277344,18.664062 9.5859375,11.503906 Z m 3.34375,0 -0.257813,0.257812 7.158204,7.160156 0.257812,-0.257812 z"
       style="opacity:1;fill:#ffffff;fill-opacity:0.39215686;stroke:none;stroke-width:1.12984514;stroke-linecap:round;stroke-linejoin:round;stroke-miterlimit:4;stroke-dasharray:none;stroke-opacity:1" />
    <path
       inkscape:connector-curvature="0"
       style="opacity:1;fill:#000000;fill-opacity:0.39215686;stroke:none;stroke-width:1.12984514;stroke-linecap:round;stroke-linejoin:round;stroke-miterlimit:4;stroke-dasharray:none;stroke-opacity:1"
       d="m 3.5839844,20.335938 -1.4140625,-1.414062 0.2578125,-0.257813 1.15625,1.15625 L 11,12.404297 l 7.416016,7.416016 1.15625,-1.15625 0.257812,0.257813 -1.414062,1.414062 L 11,12.919922 Z M 9.328125,11.248047 2.1699219,4.0878911 2.4277344,3.8300791 9.5859375,10.990235 Z m 3.34375,0 -0.257813,-0.257812 7.158204,-7.1601559 0.257812,0.257812 z"
       id="path1192" />
  </g>
  <g
     transform="translate(0,27.179687)"
     id="g1217">
    <rect
       id="rect1209"
       width="22"
       height="22"
       x="0"
       y="0"
       style="opacity:0.00100002;fill:#000000;fill-opacity:1;fill-rule:nonzero;stroke:none;stroke-width:2;stroke-linecap:round;stroke-linejoin:round;stroke-miterlimit:4;stroke-dasharray:none;stroke-opacity:1" />
    <path
       inkscape:connector-curvature="0"
       style="opacity:1;fill:#b39ddb;fill-opacity:1;stroke:none;stroke-width:1.12984514;stroke-linecap:round;stroke-linejoin:round;stroke-miterlimit:4;stroke-dasharray:none;stroke-opacity:1"
       d="M 3.5839844,2.1582031 2.1699219,3.5722656 9.5859375,10.988281 2.1699219,18.40625 3.5839844,19.820312 11,12.404297 18.416016,19.820312 19.830078,18.40625 12.414062,10.988281 19.830078,3.5722656 18.416016,2.1582031 11,9.5742188 Z"
       id="path1211" />
    <path
       inkscape:connector-curvature="0"
       style="opacity:1;fill:#ffffff;fill-opacity:0.39215686;stroke:none;stroke-width:1.12984514;stroke-linecap:round;stroke-linejoin:round;stroke-miterlimit:4;stroke-dasharray:none;stroke-opacity:1"
       d="M 3.5839844,2.1582031 2.1699219,3.5722656 2.4277344,3.8300781 3.5839844,2.6738281 11,10.089844 18.416016,2.6738281 19.572266,3.8300781 19.830078,3.5722656 18.416016,2.1582031 11,9.5742188 Z M 9.328125,11.246094 2.1699219,18.40625 2.4277344,18.664062 9.5859375,11.503906 Z m 3.34375,0 -0.257813,0.257812 7.158204,7.160156 0.257812,-0.257812 z"
       id="path1213" />
    <path
       id="path1215"
       d="m 3.5839844,20.335938 -1.4140625,-1.414062 0.2578125,-0.257813 1.15625,1.15625 L 11,12.404297 l 7.416016,7.416016 1.15625,-1.15625 0.257812,0.257813 -1.414062,1.414062 L 11,12.919922 Z M 9.328125,11.248047 2.1699219,4.0878911 2.4277344,3.8300791 9.5859375,10.990235 Z m 3.34375,0 -0.257813,-0.257812 7.158204,-7.1601559 0.257812,0.257812 z"
       style="opacity:1;fill:#000000;fill-opacity:0.39215686;stroke:none;stroke-width:1.12984514;stroke-linecap:round;stroke-linejoin:round;stroke-miterlimit:4;stroke-dasharray:none;stroke-opacity:1"
       inkscape:connector-curvature="0" />
  </g>
</svg>
