<?xml version="1.0" encoding="UTF-8" standalone="no"?>
<svg
   xmlns:dc="http://purl.org/dc/elements/1.1/"
   xmlns:cc="http://creativecommons.org/ns#"
   xmlns:rdf="http://www.w3.org/1999/02/22-rdf-syntax-ns#"
   xmlns:svg="http://www.w3.org/2000/svg"
   xmlns="http://www.w3.org/2000/svg"
   xmlns:sodipodi="http://sodipodi.sourceforge.net/DTD/sodipodi-0.dtd"
   xmlns:inkscape="http://www.inkscape.org/namespaces/inkscape"
   id="svg4306"
   width="22"
   height="22"
   version="1.1"
   style="enable-background:new"
   sodipodi:docname="keepabove.svg"
   inkscape:version="0.92.4 5da689c313, 2019-01-14">
  <metadata
     id="metadata31">
    <rdf:RDF>
      <cc:Work
         rdf:about="">
        <dc:format>image/svg+xml</dc:format>
        <dc:type
           rdf:resource="http://purl.org/dc/dcmitype/StillImage" />
        <dc:title></dc:title>
      </cc:Work>
    </rdf:RDF>
  </metadata>
  <defs
     id="defs29" />
  <sodipodi:namedview
     pagecolor="#ffffff"
     bordercolor="#666666"
     borderopacity="1"
     objecttolerance="10"
     gridtolerance="10"
     guidetolerance="10"
     inkscape:pageopacity="0"
     inkscape:pageshadow="2"
     inkscape:window-width="1920"
     inkscape:window-height="1001"
     id="namedview27"
     showgrid="false"
     inkscape:zoom="5.656854"
     inkscape:cx="80.93531"
     inkscape:cy="-32.998304"
     inkscape:window-x="0"
     inkscape:window-y="0"
     inkscape:window-maximized="1"
     inkscape:current-layer="svg4306"
     showguides="false">
    <inkscape:grid
       type="xygrid"
       id="grid838" />
  </sodipodi:namedview>
  <g
     style="fill:#dfdfdf;fill-opacity:1"
     transform="matrix(0.99960695,0,0,0.99997077,-56.9717,-514.98451)"
     id="layer12">
    <g
       style="display:inline;fill:#dfdfdf;fill-opacity:1"
       transform="translate(19,-242)"
       id="layer4-4-1" />
  </g>
  <g
     id="active-center">
    <rect
       id="rect1810"
       width="22"
       height="22"
       x="0"
       y="0.011719"
       style="opacity:0.00100002;fill:#000000;fill-opacity:1;fill-rule:nonzero;stroke:none;stroke-width:2;stroke-linecap:round;stroke-linejoin:round;stroke-miterlimit:4;stroke-dasharray:none;stroke-opacity:1" />
    <path
       id="path1812"
       d="M 11 2 L 9.5859375 3.4140625 L 4.6367188 8.3632812 L 6.0507812 9.7773438 L 11 4.828125 L 15.949219 9.7773438 L 17.363281 8.3632812 L 12.414062 3.4140625 L 11 2 z M 11 11.171875 L 9.5859375 12.585938 L 4.6367188 17.535156 L 6.0507812 18.949219 L 11 14 L 15.949219 18.949219 L 17.363281 17.535156 L 12.414062 12.585938 L 11 11.171875 z "
       style="opacity:1;fill:#b39ddb;fill-opacity:1;stroke:none;stroke-width:0.70710677;stroke-linecap:round;stroke-linejoin:round;stroke-miterlimit:4;stroke-dasharray:none;stroke-opacity:1" />
    <path
       id="path1827"
       d="M 11 2 L 9.5859375 3.4140625 L 4.6367188 8.3632812 L 4.9238281 8.6503906 L 9.5859375 3.9882812 L 11 2.5742188 L 12.414062 3.9882812 L 17.076172 8.6503906 L 17.363281 8.3632812 L 12.414062 3.4140625 L 11 2 z M 11 11.171875 L 9.5859375 12.585938 L 4.6367188 17.535156 L 4.9238281 17.822266 L 9.5859375 13.160156 L 11 11.746094 L 12.414062 13.160156 L 17.076172 17.822266 L 17.363281 17.535156 L 12.414062 12.585938 L 11 11.171875 z "
       style="opacity:1;fill:#ffffff;fill-opacity:0.39215687;stroke:none;stroke-width:0.70710677;stroke-linecap:round;stroke-linejoin:round;stroke-miterlimit:4;stroke-dasharray:none;stroke-opacity:1" />
    <path
       id="path1834"
       d="M 11 4.828125 L 6.0507812 9.7773438 L 5.0507812 8.7773438 L 4.6367188 9.1914062 L 6.0507812 10.605469 L 11 5.65625 L 15.949219 10.605469 L 17.363281 9.1914062 L 16.949219 8.7773438 L 15.949219 9.7773438 L 11 4.828125 z M 11 14 L 6.0507812 18.949219 L 5.0507812 17.949219 L 4.6367188 18.363281 L 6.0507812 19.777344 L 11 14.828125 L 15.949219 19.777344 L 17.363281 18.363281 L 16.949219 17.949219 L 15.949219 18.949219 L 11 14 z "
       style="opacity:1;fill:#000000;fill-opacity:0.39215687;stroke:none;stroke-width:0.70710677;stroke-linecap:round;stroke-linejoin:round;stroke-miterlimit:4;stroke-dasharray:none;stroke-opacity:1" />
  </g>
  <g
     id="hover-center"
     transform="translate(25.076172)">
    <rect
       style="opacity:0.00100002;fill:#000000;fill-opacity:1;fill-rule:nonzero;stroke:none;stroke-width:2;stroke-linecap:round;stroke-linejoin:round;stroke-miterlimit:4;stroke-dasharray:none;stroke-opacity:1"
       y="0.011719"
       x="0"
       height="22"
       width="22"
       id="rect1846" />
    <path
       style="opacity:1;fill:#d7ccec;fill-opacity:1;stroke:none;stroke-width:0.70710677;stroke-linecap:round;stroke-linejoin:round;stroke-miterlimit:4;stroke-dasharray:none;stroke-opacity:1"
       d="M 11,2 9.5859375,3.4140625 4.6367188,8.3632812 6.0507812,9.7773438 11,4.828125 15.949219,9.7773438 17.363281,8.3632812 12.414062,3.4140625 Z m 0,9.171875 -1.4140625,1.414063 -4.9492187,4.949218 1.4140624,1.414063 L 11,14 l 4.949219,4.949219 1.414062,-1.414063 -4.949219,-4.949218 z"
       id="path1848"
       inkscape:connector-curvature="0" />
    <path
       style="opacity:1;fill:#ffffff;fill-opacity:0.39215686;stroke:none;stroke-width:0.70710677;stroke-linecap:round;stroke-linejoin:round;stroke-miterlimit:4;stroke-dasharray:none;stroke-opacity:1"
       d="M 11,2 9.5859375,3.4140625 4.6367188,8.3632812 4.9238281,8.6503906 9.5859375,3.9882812 11,2.5742188 l 1.414062,1.4140624 4.66211,4.6621094 0.287109,-0.2871094 -4.949219,-4.9492187 z m 0,9.171875 -1.4140625,1.414063 -4.9492187,4.949218 0.2871093,0.28711 4.6621094,-4.66211 L 11,11.746094 l 1.414062,1.414062 4.66211,4.66211 0.287109,-0.28711 -4.949219,-4.949218 z"
       id="path1850"
       inkscape:connector-curvature="0" />
    <path
       style="opacity:1;fill:#000000;fill-opacity:0.39215686;stroke:none;stroke-width:0.70710677;stroke-linecap:round;stroke-linejoin:round;stroke-miterlimit:4;stroke-dasharray:none;stroke-opacity:1"
       d="m 11,4.828125 -4.9492188,4.9492188 -1,-1 L 4.6367188,9.1914062 6.0507812,10.605469 11,5.65625 l 4.949219,4.949219 1.414062,-1.4140628 -0.414062,-0.4140624 -1,1 z M 11,14 l -4.9492188,4.949219 -1,-1 -0.4140624,0.414062 1.4140624,1.414063 L 11,14.828125 l 4.949219,4.949219 1.414062,-1.414063 -0.414062,-0.414062 -1,1 z"
       id="path1854"
       inkscape:connector-curvature="0" />
  </g>
  <g
     transform="translate(49.949219)"
     id="pressed-center">
    <rect
       id="rect1858"
       width="22"
       height="22"
       x="0"
       y="0.011719"
       style="opacity:0.00100002;fill:#000000;fill-opacity:1;fill-rule:nonzero;stroke:none;stroke-width:2;stroke-linecap:round;stroke-linejoin:round;stroke-miterlimit:4;stroke-dasharray:none;stroke-opacity:1" />
    <path
       inkscape:connector-curvature="0"
       id="path1860"
       d="M 11,2 9.5859375,3.4140625 4.6367188,8.3632812 6.0507812,9.7773438 11,4.828125 15.949219,9.7773438 17.363281,8.3632812 12.414062,3.4140625 Z m 0,9.171875 -1.4140625,1.414063 -4.9492187,4.949218 1.4140624,1.414063 L 11,14 l 4.949219,4.949219 1.414062,-1.414063 -4.949219,-4.949218 z"
       style="opacity:1;fill:#9f83d1;fill-opacity:1;stroke:none;stroke-width:0.70710677;stroke-linecap:round;stroke-linejoin:round;stroke-miterlimit:4;stroke-dasharray:none;stroke-opacity:1" />
    <path
       inkscape:connector-curvature="0"
       id="path1862"
       d="M 11,2 9.5859375,3.4140625 4.6367188,8.3632812 4.9238281,8.6503906 9.5859375,3.9882812 11,2.5742188 l 1.414062,1.4140624 4.66211,4.6621094 0.287109,-0.2871094 -4.949219,-4.9492187 z m 0,9.171875 -1.4140625,1.414063 -4.9492187,4.949218 0.2871093,0.28711 4.6621094,-4.66211 L 11,11.746094 l 1.414062,1.414062 4.66211,4.66211 0.287109,-0.28711 -4.949219,-4.949218 z"
       style="opacity:1;fill:#000000;fill-opacity:0.39215687;stroke:none;stroke-width:0.70710677;stroke-linecap:round;stroke-linejoin:round;stroke-miterlimit:4;stroke-dasharray:none;stroke-opacity:1" />
    <path
       inkscape:connector-curvature="0"
       id="path1866"
       d="m 11,4.828125 -4.9492188,4.9492188 -1,-1 L 4.6367188,9.1914062 6.0507812,10.605469 11,5.65625 l 4.949219,4.949219 1.414062,-1.4140628 -0.414062,-0.4140624 -1,1 z M 11,14 l -4.9492188,4.949219 -1,-1 -0.4140624,0.414062 1.4140624,1.414063 L 11,14.828125 l 4.949219,4.949219 1.414062,-1.414063 -0.414062,-0.414062 -1,1 z"
       style="opacity:1;fill:#ffffff;fill-opacity:0.39215687;stroke:none;stroke-width:0.70710677;stroke-linecap:round;stroke-linejoin:round;stroke-miterlimit:4;stroke-dasharray:none;stroke-opacity:1" />
  </g>
  <g
     id="inactive-center"
     transform="translate(75.076172)">
    <rect
       style="opacity:0.00100002;fill:#000000;fill-opacity:1;fill-rule:nonzero;stroke:none;stroke-width:2;stroke-linecap:round;stroke-linejoin:round;stroke-miterlimit:4;stroke-dasharray:none;stroke-opacity:1"
       y="0.011719"
       x="0"
       height="22"
       width="22"
       id="rect1870" />
    <path
       style="opacity:1;fill:#4a4a4a;fill-opacity:1;stroke:none;stroke-width:0.70710677;stroke-linecap:round;stroke-linejoin:round;stroke-miterlimit:4;stroke-dasharray:none;stroke-opacity:1"
       d="M 11,2 9.5859375,3.4140625 4.6367188,8.3632812 6.0507812,9.7773438 11,4.828125 15.949219,9.7773438 17.363281,8.3632812 12.414062,3.4140625 Z m 0,9.171875 -1.4140625,1.414063 -4.9492187,4.949218 1.4140624,1.414063 L 11,14 l 4.949219,4.949219 1.414062,-1.414063 -4.949219,-4.949218 z"
       id="path1872"
       inkscape:connector-curvature="0" />
    <path
       style="opacity:1;fill:#ffffff;fill-opacity:0.39215686;stroke:none;stroke-width:0.70710677;stroke-linecap:round;stroke-linejoin:round;stroke-miterlimit:4;stroke-dasharray:none;stroke-opacity:1"
       d="M 11,2 9.5859375,3.4140625 4.6367188,8.3632812 4.9238281,8.6503906 9.5859375,3.9882812 11,2.5742188 l 1.414062,1.4140624 4.66211,4.6621094 0.287109,-0.2871094 -4.949219,-4.9492187 z m 0,9.171875 -1.4140625,1.414063 -4.9492187,4.949218 0.2871093,0.28711 4.6621094,-4.66211 L 11,11.746094 l 1.414062,1.414062 4.66211,4.66211 0.287109,-0.28711 -4.949219,-4.949218 z"
       id="path1874"
       inkscape:connector-curvature="0" />
    <path
       style="opacity:1;fill:#000000;fill-opacity:0.39215686;stroke:none;stroke-width:0.70710677;stroke-linecap:round;stroke-linejoin:round;stroke-miterlimit:4;stroke-dasharray:none;stroke-opacity:1"
       d="m 11,4.828125 -4.9492188,4.9492188 -1,-1 L 4.6367188,9.1914062 6.0507812,10.605469 11,5.65625 l 4.949219,4.949219 1.414062,-1.4140628 -0.414062,-0.4140624 -1,1 z M 11,14 l -4.9492188,4.949219 -1,-1 -0.4140624,0.414062 1.4140624,1.414063 L 11,14.828125 l 4.949219,4.949219 1.414062,-1.414063 -0.414062,-0.414062 -1,1 z"
       id="path1878"
       inkscape:connector-curvature="0" />
  </g>
  <g
     transform="translate(99.949219)"
     id="deactivated-center">
    <rect
       id="rect1882"
       width="22"
       height="22"
       x="0"
       y="0.011719"
       style="opacity:0.00100002;fill:#000000;fill-opacity:1;fill-rule:nonzero;stroke:none;stroke-width:2;stroke-linecap:round;stroke-linejoin:round;stroke-miterlimit:4;stroke-dasharray:none;stroke-opacity:1" />
    <path
       inkscape:connector-curvature="0"
       id="path1884"
       d="M 11,2 9.5859375,3.4140625 4.6367188,8.3632812 6.0507812,9.7773438 11,4.828125 15.949219,9.7773438 17.363281,8.3632812 12.414062,3.4140625 Z m 0,9.171875 -1.4140625,1.414063 -4.9492187,4.949218 1.4140624,1.414063 L 11,14 l 4.949219,4.949219 1.414062,-1.414063 -4.949219,-4.949218 z"
       style="opacity:1;fill:#646464;fill-opacity:1;stroke:none;stroke-width:0.70710677;stroke-linecap:round;stroke-linejoin:round;stroke-miterlimit:4;stroke-dasharray:none;stroke-opacity:1" />
    <path
       inkscape:connector-curvature="0"
       id="path1886"
       d="M 11,2 9.5859375,3.4140625 4.6367188,8.3632812 4.9238281,8.6503906 9.5859375,3.9882812 11,2.5742188 l 1.414062,1.4140624 4.66211,4.6621094 0.287109,-0.2871094 -4.949219,-4.9492187 z m 0,9.171875 -1.4140625,1.414063 -4.9492187,4.949218 0.2871093,0.28711 4.6621094,-4.66211 L 11,11.746094 l 1.414062,1.414062 4.66211,4.66211 0.287109,-0.28711 -4.949219,-4.949218 z"
       style="opacity:1;fill:#ffffff;fill-opacity:0.39215686;stroke:none;stroke-width:0.70710677;stroke-linecap:round;stroke-linejoin:round;stroke-miterlimit:4;stroke-dasharray:none;stroke-opacity:1" />
    <path
       inkscape:connector-curvature="0"
       id="path1890"
       d="m 11,4.828125 -4.9492188,4.9492188 -1,-1 L 4.6367188,9.1914062 6.0507812,10.605469 11,5.65625 l 4.949219,4.949219 1.414062,-1.4140628 -0.414062,-0.4140624 -1,1 z M 11,14 l -4.9492188,4.949219 -1,-1 -0.4140624,0.414062 1.4140624,1.414063 L 11,14.828125 l 4.949219,4.949219 1.414062,-1.414063 -0.414062,-0.414062 -1,1 z"
       style="opacity:1;fill:#000000;fill-opacity:0.39215686;stroke:none;stroke-width:0.70710677;stroke-linecap:round;stroke-linejoin:round;stroke-miterlimit:4;stroke-dasharray:none;stroke-opacity:1" />
  </g>
</svg>
