<?xml version="1.0" encoding="UTF-8" standalone="no"?>
<svg
   xmlns:dc="http://purl.org/dc/elements/1.1/"
   xmlns:cc="http://creativecommons.org/ns#"
   xmlns:rdf="http://www.w3.org/1999/02/22-rdf-syntax-ns#"
   xmlns:svg="http://www.w3.org/2000/svg"
   xmlns="http://www.w3.org/2000/svg"
   xmlns:sodipodi="http://sodipodi.sourceforge.net/DTD/sodipodi-0.dtd"
   xmlns:inkscape="http://www.inkscape.org/namespaces/inkscape"
   id="svg4306"
   width="22"
   height="22"
   version="1.1"
   style="enable-background:new"
   sodipodi:docname="restore.svg"
   inkscape:version="0.92.4 5da689c313, 2019-01-14">
  <metadata
     id="metadata31">
    <rdf:RDF>
      <cc:Work
         rdf:about="">
        <dc:format>image/svg+xml</dc:format>
        <dc:type
           rdf:resource="http://purl.org/dc/dcmitype/StillImage" />
        <dc:title></dc:title>
      </cc:Work>
    </rdf:RDF>
  </metadata>
  <defs
     id="defs29" />
  <sodipodi:namedview
     pagecolor="#ffffff"
     bordercolor="#666666"
     borderopacity="1"
     objecttolerance="10"
     gridtolerance="10"
     guidetolerance="10"
     inkscape:pageopacity="0"
     inkscape:pageshadow="2"
     inkscape:window-width="1920"
     inkscape:window-height="1001"
     id="namedview27"
     showgrid="false"
     inkscape:zoom="5.656854"
     inkscape:cx="43.608623"
     inkscape:cy="-31.069751"
     inkscape:window-x="0"
     inkscape:window-y="0"
     inkscape:window-maximized="1"
     inkscape:current-layer="svg4306"
     showguides="false">
    <inkscape:grid
       type="xygrid"
       id="grid838" />
  </sodipodi:namedview>
  <g
     style="fill:#dfdfdf;fill-opacity:1"
     transform="matrix(0.99960695,0,0,0.99997077,-56.9717,-514.98451)"
     id="layer12">
    <g
       style="display:inline;fill:#dfdfdf;fill-opacity:1"
       transform="translate(19,-242)"
       id="layer4-4-1" />
  </g>
  <g
     id="active-center"
     inkscape:label="#active-center">
    <rect
       style="opacity:0.00100002;fill:#000000;fill-opacity:1;fill-rule:nonzero;stroke:none;stroke-width:2;stroke-linecap:round;stroke-linejoin:round;stroke-miterlimit:4;stroke-dasharray:none;stroke-opacity:1"
       y="0.011719"
       x="0"
       height="22"
       width="22"
       id="rect1546" />
    <path
       id="rect1548"
       d="M 11 2 L 11 4 L 18 4 L 18 11 L 20 11 L 20 4 L 20 2 L 18 2 L 11 2 z M 2 11 L 2 18 L 2 20 L 11 20 L 11 18 L 4 18 L 4 11 L 2 11 z "
       style="opacity:1;fill:#b39ddb;fill-opacity:1;stroke:none;stroke-width:0.70710677;stroke-linecap:round;stroke-linejoin:round;stroke-miterlimit:4;stroke-dasharray:none;stroke-opacity:1" />
    <path
       id="path1574"
       d="M 11 2 L 11 2.5078125 L 18 2.5078125 L 20 2.5078125 L 20 2 L 18 2 L 11 2 z M 2 11 L 2 11.507812 L 4 11.507812 L 4 11 L 2 11 z M 4 18 L 4 18.507812 L 11 18.507812 L 11 18 L 4 18 z "
       style="opacity:1;fill:#ffffff;fill-opacity:0.39215687;stroke:none;stroke-width:0.70710677;stroke-linecap:round;stroke-linejoin:round;stroke-miterlimit:4;stroke-dasharray:none;stroke-opacity:1" />
    <path
       inkscape:connector-curvature="0"
       style="opacity:1;fill:#000000;fill-opacity:0.39215686;stroke:none;stroke-width:0.70710677;stroke-linecap:round;stroke-linejoin:round;stroke-miterlimit:4;stroke-dasharray:none;stroke-opacity:1"
       d="M 11,20.507812 V 20 H 4 2 v 0.507812 h 2 z m 9,-9 V 11 h -2 v 0.507812 z m -2,-7 V 4 h -7 v 0.507812 z"
       id="path1579" />
  </g>
  <g
     id="hover-center"
     transform="translate(25)">
    <rect
       id="rect1587"
       width="22"
       height="22"
       x="0"
       y="0.011719"
       style="opacity:0.00100002;fill:#000000;fill-opacity:1;fill-rule:nonzero;stroke:none;stroke-width:2;stroke-linecap:round;stroke-linejoin:round;stroke-miterlimit:4;stroke-dasharray:none;stroke-opacity:1" />
    <path
       style="opacity:1;fill:#d7ccec;fill-opacity:1;stroke:none;stroke-width:0.70710677;stroke-linecap:round;stroke-linejoin:round;stroke-miterlimit:4;stroke-dasharray:none;stroke-opacity:1"
       d="m 11,2 v 2 h 7 v 7 h 2 V 4 2 h -2 z m -9,9 v 7 2 h 9 V 18 H 4 v -7 z"
       id="path1589"
       inkscape:connector-curvature="0" />
    <path
       style="opacity:1;fill:#ffffff;fill-opacity:0.39215686;stroke:none;stroke-width:0.70710677;stroke-linecap:round;stroke-linejoin:round;stroke-miterlimit:4;stroke-dasharray:none;stroke-opacity:1"
       d="m 11,2 v 0.5078125 h 7 2 V 2 h -2 z m -9,9 v 0.507812 H 4 V 11 Z m 2,7 v 0.507812 h 7 V 18 Z"
       id="path1591"
       inkscape:connector-curvature="0" />
    <path
       id="path1593"
       d="M 11,20.507812 V 20 H 4 2 v 0.507812 h 2 z m 9,-9 V 11 h -2 v 0.507812 z m -2,-7 V 4 h -7 v 0.507812 z"
       style="opacity:1;fill:#000000;fill-opacity:0.39215686;stroke:none;stroke-width:0.70710677;stroke-linecap:round;stroke-linejoin:round;stroke-miterlimit:4;stroke-dasharray:none;stroke-opacity:1"
       inkscape:connector-curvature="0" />
  </g>
  <g
     transform="translate(50)"
     id="pressed-center">
    <rect
       style="opacity:0.00100002;fill:#000000;fill-opacity:1;fill-rule:nonzero;stroke:none;stroke-width:2;stroke-linecap:round;stroke-linejoin:round;stroke-miterlimit:4;stroke-dasharray:none;stroke-opacity:1"
       y="0.011719"
       x="0"
       height="22"
       width="22"
       id="rect1597" />
    <path
       inkscape:connector-curvature="0"
       id="path1599"
       d="m 11,2 v 2 h 7 v 7 h 2 V 4 2 h -2 z m -9,9 v 7 2 h 9 V 18 H 4 v -7 z"
       style="opacity:1;fill:#9f83d1;fill-opacity:1;stroke:none;stroke-width:0.70710677;stroke-linecap:round;stroke-linejoin:round;stroke-miterlimit:4;stroke-dasharray:none;stroke-opacity:1" />
    <path
       inkscape:connector-curvature="0"
       id="path1601"
       d="m 11,2 v 0.5078125 h 7 2 V 2 h -2 z m -9,9 v 0.507812 H 4 V 11 Z m 2,7 v 0.507812 h 7 V 18 Z"
       style="opacity:1;fill:#000000;fill-opacity:0.39215687;stroke:none;stroke-width:0.70710677;stroke-linecap:round;stroke-linejoin:round;stroke-miterlimit:4;stroke-dasharray:none;stroke-opacity:1" />
    <path
       inkscape:connector-curvature="0"
       style="opacity:1;fill:#ffffff;fill-opacity:0.39215687;stroke:none;stroke-width:0.70710677;stroke-linecap:round;stroke-linejoin:round;stroke-miterlimit:4;stroke-dasharray:none;stroke-opacity:1"
       d="M 11,20.507812 V 20 H 4 2 v 0.507812 h 2 z m 9,-9 V 11 h -2 v 0.507812 z m -2,-7 V 4 h -7 v 0.507812 z"
       id="path1603" />
  </g>
  <g
     id="inactive-center"
     transform="translate(75)">
    <rect
       id="rect1607"
       width="22"
       height="22"
       x="0"
       y="0.011719"
       style="opacity:0.00100002;fill:#000000;fill-opacity:1;fill-rule:nonzero;stroke:none;stroke-width:2;stroke-linecap:round;stroke-linejoin:round;stroke-miterlimit:4;stroke-dasharray:none;stroke-opacity:1" />
    <path
       style="opacity:1;fill:#4a4a4a;fill-opacity:1;stroke:none;stroke-width:0.70710677;stroke-linecap:round;stroke-linejoin:round;stroke-miterlimit:4;stroke-dasharray:none;stroke-opacity:1"
       d="m 11,2 v 2 h 7 v 7 h 2 V 4 2 h -2 z m -9,9 v 7 2 h 9 V 18 H 4 v -7 z"
       id="path1609"
       inkscape:connector-curvature="0" />
    <path
       style="opacity:1;fill:#ffffff;fill-opacity:0.39215686;stroke:none;stroke-width:0.70710677;stroke-linecap:round;stroke-linejoin:round;stroke-miterlimit:4;stroke-dasharray:none;stroke-opacity:1"
       d="m 11,2 v 0.5078125 h 7 2 V 2 h -2 z m -9,9 v 0.507812 H 4 V 11 Z m 2,7 v 0.507812 h 7 V 18 Z"
       id="path1611"
       inkscape:connector-curvature="0" />
    <path
       id="path1613"
       d="M 11,20.507812 V 20 H 4 2 v 0.507812 h 2 z m 9,-9 V 11 h -2 v 0.507812 z m -2,-7 V 4 h -7 v 0.507812 z"
       style="opacity:1;fill:#000000;fill-opacity:0.39215686;stroke:none;stroke-width:0.70710677;stroke-linecap:round;stroke-linejoin:round;stroke-miterlimit:4;stroke-dasharray:none;stroke-opacity:1"
       inkscape:connector-curvature="0" />
  </g>
  <g
     transform="translate(100)"
     id="deactivated-center">
    <rect
       style="opacity:0.00100002;fill:#000000;fill-opacity:1;fill-rule:nonzero;stroke:none;stroke-width:2;stroke-linecap:round;stroke-linejoin:round;stroke-miterlimit:4;stroke-dasharray:none;stroke-opacity:1"
       y="0.011719"
       x="0"
       height="22"
       width="22"
       id="rect1617" />
    <path
       inkscape:connector-curvature="0"
       id="path1619"
       d="m 11,2 v 2 h 7 v 7 h 2 V 4 2 h -2 z m -9,9 v 7 2 h 9 V 18 H 4 v -7 z"
       style="opacity:1;fill:#646464;fill-opacity:1;stroke:none;stroke-width:0.70710677;stroke-linecap:round;stroke-linejoin:round;stroke-miterlimit:4;stroke-dasharray:none;stroke-opacity:1" />
    <path
       inkscape:connector-curvature="0"
       id="path1621"
       d="m 11,2 v 0.5078125 h 7 2 V 2 h -2 z m -9,9 v 0.507812 H 4 V 11 Z m 2,7 v 0.507812 h 7 V 18 Z"
       style="opacity:1;fill:#ffffff;fill-opacity:0.39215686;stroke:none;stroke-width:0.70710677;stroke-linecap:round;stroke-linejoin:round;stroke-miterlimit:4;stroke-dasharray:none;stroke-opacity:1" />
    <path
       inkscape:connector-curvature="0"
       style="opacity:1;fill:#000000;fill-opacity:0.39215686;stroke:none;stroke-width:0.70710677;stroke-linecap:round;stroke-linejoin:round;stroke-miterlimit:4;stroke-dasharray:none;stroke-opacity:1"
       d="M 11,20.507812 V 20 H 4 2 v 0.507812 h 2 z m 9,-9 V 11 h -2 v 0.507812 z m -2,-7 V 4 h -7 v 0.507812 z"
       id="path1623" />
  </g>
</svg>
