<?xml version="1.0" encoding="UTF-8" standalone="no"?>
<svg
   xmlns:osb="http://www.openswatchbook.org/uri/2009/osb"
   xmlns:dc="http://purl.org/dc/elements/1.1/"
   xmlns:cc="http://creativecommons.org/ns#"
   xmlns:rdf="http://www.w3.org/1999/02/22-rdf-syntax-ns#"
   xmlns:svg="http://www.w3.org/2000/svg"
   xmlns="http://www.w3.org/2000/svg"
   xmlns:xlink="http://www.w3.org/1999/xlink"
   xmlns:sodipodi="http://sodipodi.sourceforge.net/DTD/sodipodi-0.dtd"
   xmlns:inkscape="http://www.inkscape.org/namespaces/inkscape"
   id="svg8"
   width="48"
   height="48"
   version="1.1"
   viewBox="0 0 48 48"
   sodipodi:docname="action-overlays.svg"
   inkscape:version="0.92.4 5da689c313, 2019-01-14">
  <metadata
     id="metadata69">
    <rdf:RDF>
      <cc:Work
         rdf:about="">
        <dc:format>image/svg+xml</dc:format>
        <dc:type
           rdf:resource="http://purl.org/dc/dcmitype/StillImage" />
      </cc:Work>
    </rdf:RDF>
  </metadata>
  <sodipodi:namedview
     pagecolor="#ffffff"
     bordercolor="#666666"
     borderopacity="1"
     objecttolerance="10"
     gridtolerance="10"
     guidetolerance="10"
     inkscape:pageopacity="0"
     inkscape:pageshadow="2"
     inkscape:window-width="1920"
     inkscape:window-height="1023"
     id="namedview67"
     showgrid="false"
     inkscape:zoom="9.8333331"
     inkscape:cx="52.330647"
     inkscape:cy="17.848199"
     inkscape:window-x="0"
     inkscape:window-y="28"
     inkscape:window-maximized="1"
     inkscape:current-layer="svg8">
    <inkscape:grid
       type="xygrid"
       id="grid876" />
  </sodipodi:namedview>
  <defs
     id="defs2">
    <linearGradient
       id="linearGradient4209">
      <stop
         style="stop-color:#000000;stop-opacity:1"
         id="stop4211"
         offset="0" />
      <stop
         style="stop-color:#000000;stop-opacity:0"
         id="stop4213"
         offset="1" />
    </linearGradient>
    <linearGradient
       id="linearGradient6476"
       osb:paint="solid">
      <stop
         style="stop-color:#ffffff;stop-opacity:1"
         id="stop6478"
         offset="0" />
    </linearGradient>
    <radialGradient
       id="radialGradient4201"
       cx="63.894"
       cy="61.058"
       r="9"
       fx="63.894"
       fy="61.058"
       gradientTransform="matrix(-6.1375001e-7,1.2222228,-1.2222222,-6.2559558e-7,142.62634,-21.09247)"
       gradientUnits="userSpaceOnUse"
       xlink:href="#linearGradient4209" />
    <radialGradient
       id="radialGradient4203"
       cx="-31.636"
       cy="8.519"
       r="8.182"
       fx="-31.636"
       fy="8.519"
       gradientTransform="matrix(0,1.44437,-0.99999988,0,-23.570787,54.693527)"
       gradientUnits="userSpaceOnUse"
       xlink:href="#linearGradient4209" />
    <radialGradient
       id="radialGradient4205"
       cx="27"
       cy="43.961"
       r="13"
       fx="27"
       fy="43.961"
       gradientTransform="matrix(6.1944048e-8,1.3846155,-1.1538462,5.1620032e-8,77.724382,12.61538)"
       gradientUnits="userSpaceOnUse"
       xlink:href="#linearGradient4209" />
    <radialGradient
       id="radialGradient4207"
       cx="-32.298"
       cy="8.715"
       r="8.125"
       fx="-32.298"
       fy="8.715"
       gradientTransform="matrix(0,1.3845518,-1,0,-23.375148,53.43377)"
       gradientUnits="userSpaceOnUse"
       xlink:href="#linearGradient4209" />
    <radialGradient
       id="radialGradient4231"
       cx="25.188"
       cy="82.744"
       r="13"
       fx="25.188"
       fy="82.744"
       gradientTransform="matrix(-9.7841381e-8,1.3846154,-1.2307694,-8.6970111e-8,127.83926,52.125005)"
       gradientUnits="userSpaceOnUse"
       xlink:href="#linearGradient4209" />
    <radialGradient
       id="radialGradient4233"
       cx="68"
       cy="90.554"
       r="9"
       fx="68"
       fy="90.554"
       gradientTransform="matrix(-1.0677655e-6,1.2222223,-1.2222218,-1.067765e-6,178.67723,10.888977)"
       gradientUnits="userSpaceOnUse"
       xlink:href="#linearGradient4209" />
    <radialGradient
       id="radialGradient4189"
       cx="25.188"
       cy="82.744"
       r="13"
       fx="25.188"
       fy="82.744"
       gradientTransform="matrix(-9.7841381e-8,1.3846154,-1.2307694,-8.6970111e-8,127.83926,51.125005)"
       gradientUnits="userSpaceOnUse"
       xlink:href="#linearGradient4209" />
    <radialGradient
       id="radialGradient4193"
       cx="27"
       cy="43.961"
       r="13"
       fx="27"
       fy="43.961"
       gradientTransform="matrix(6.1944048e-8,1.3846155,-1.1538462,5.1620032e-8,77.724382,11.61538)"
       gradientUnits="userSpaceOnUse"
       xlink:href="#linearGradient4209" />
    <radialGradient
       id="radialGradient4197"
       cx="63.894"
       cy="61.058"
       r="9"
       fx="63.894"
       fy="61.058"
       gradientTransform="matrix(-6.1375001e-7,1.2222228,-1.2222222,-6.2559558e-7,142.62634,-21.59247)"
       gradientUnits="userSpaceOnUse"
       xlink:href="#linearGradient4209" />
    <radialGradient
       id="radialGradient4202"
       cx="68"
       cy="90.554"
       r="9"
       fx="68"
       fy="90.554"
       gradientTransform="matrix(-1.0677655e-6,1.2222223,-1.2222218,-1.067765e-6,178.67723,10.388977)"
       gradientUnits="userSpaceOnUse"
       xlink:href="#linearGradient4209" />
    <radialGradient
       id="radialGradient4203-3"
       cx="-31.636"
       cy="8.519"
       r="8.182"
       fx="-31.636"
       fy="8.519"
       gradientTransform="matrix(0,1.2357387,-0.85555541,0,14.288792,52.983015)"
       gradientUnits="userSpaceOnUse"
       xlink:href="#linearGradient4209" />
    <radialGradient
       id="radialGradient1099"
       cx="-31.636"
       cy="8.519"
       r="8.182"
       fx="-31.636"
       fy="8.519"
       gradientTransform="matrix(0,1.44437,-0.99999988,0,-23.570787,54.693527)"
       gradientUnits="userSpaceOnUse"
       xlink:href="#linearGradient4209" />
    <radialGradient
       id="radialGradient1115"
       cx="-31.636"
       cy="8.519"
       r="8.182"
       fx="-31.636"
       fy="8.519"
       gradientTransform="matrix(0,1.44437,-0.99999988,0,-23.570787,54.693527)"
       gradientUnits="userSpaceOnUse"
       xlink:href="#linearGradient4209" />
    <radialGradient
       id="radialGradient1184"
       cx="-31.636"
       cy="8.519"
       r="8.182"
       fx="-31.636"
       fy="8.519"
       gradientTransform="matrix(0,1.44437,-0.99999988,0,-23.570787,54.693527)"
       gradientUnits="userSpaceOnUse"
       xlink:href="#linearGradient4209" />
    <radialGradient
       id="radialGradient1186"
       cx="-31.636"
       cy="8.519"
       r="8.182"
       fx="-31.636"
       fy="8.519"
       gradientTransform="matrix(0,1.44437,-0.99999988,0,-23.570787,54.693527)"
       gradientUnits="userSpaceOnUse"
       xlink:href="#linearGradient4209" />
    <radialGradient
       id="radialGradient1188"
       cx="-31.636"
       cy="8.519"
       r="8.182"
       fx="-31.636"
       fy="8.519"
       gradientTransform="matrix(0,1.44437,-0.99999988,0,-23.570787,54.693527)"
       gradientUnits="userSpaceOnUse"
       xlink:href="#linearGradient4209" />
    <radialGradient
       id="radialGradient1232"
       cx="-31.636"
       cy="8.519"
       r="8.182"
       fx="-31.636"
       fy="8.519"
       gradientTransform="matrix(0,1.44437,-0.99999988,0,-23.570787,54.693527)"
       gradientUnits="userSpaceOnUse"
       xlink:href="#linearGradient4209" />
    <radialGradient
       id="radialGradient1234"
       cx="-31.636"
       cy="8.519"
       r="8.182"
       fx="-31.636"
       fy="8.519"
       gradientTransform="matrix(0,1.44437,-0.99999988,0,-23.570787,54.693527)"
       gradientUnits="userSpaceOnUse"
       xlink:href="#linearGradient4209" />
    <radialGradient
       id="radialGradient1236"
       cx="-31.636"
       cy="8.519"
       r="8.182"
       fx="-31.636"
       fy="8.519"
       gradientTransform="matrix(0,1.44437,-0.99999988,0,-23.570787,54.693527)"
       gradientUnits="userSpaceOnUse"
       xlink:href="#linearGradient4209" />
  </defs>
  <g
     id="remove-normal">
    <rect
       id="rect997"
       width="16"
       height="16"
       x="0"
       y="16"
       style="opacity:0.00100002;fill:#000000;fill-opacity:1;stroke:none;stroke-width:0.80000001" />
    <path
       id="path999"
       d="M 8 17 A 6.9999999 6.9999999 0 0 0 1 24 A 6.9999999 6.9999999 0 0 0 8 31 A 6.9999999 6.9999999 0 0 0 15 24 A 6.9999999 6.9999999 0 0 0 8 17 z M 8 19 A 4.9999999 4.9999999 0 0 1 13 24 A 4.9999999 4.9999999 0 0 1 8 29 A 4.9999999 4.9999999 0 0 1 3 24 A 4.9999999 4.9999999 0 0 1 8 19 z "
       style="fill:#eeeeee;fill-opacity:1;stroke:none;stroke-width:0.87499994" />
    <rect
       id="rect1003"
       width="2"
       height="8"
       x="23"
       y="-12"
       transform="rotate(90)"
       style="opacity:1;fill:#eeeeee;fill-opacity:1;stroke:none;stroke-width:1.63299322;stroke-linecap:round;stroke-linejoin:round;stroke-miterlimit:4;stroke-dasharray:none;stroke-opacity:1" />
  </g>
  <g
     id="add-normal">
    <rect
       style="opacity:0.00100002;fill:#000000;fill-opacity:1;stroke:none;stroke-width:0.80000001"
       id="rect1007"
       width="16"
       height="16"
       x="0"
       y="0" />
    <path
       id="path1009"
       d="M 8 1 A 6.9999999 6.9999999 0 0 0 1 8 A 6.9999999 6.9999999 0 0 0 8 15 A 6.9999999 6.9999999 0 0 0 15 8 A 6.9999999 6.9999999 0 0 0 8 1 z M 8 3 A 4.9999999 4.9999999 0 0 1 13 8 A 4.9999999 4.9999999 0 0 1 8 13 A 4.9999999 4.9999999 0 0 1 3 8 A 4.9999999 4.9999999 0 0 1 8 3 z "
       style="fill:#eeeeee;fill-opacity:1;stroke:none;stroke-width:0.87499994" />
    <path
       style="opacity:1;fill:#eeeeee;fill-opacity:1;stroke:none;stroke-width:1.63299322;stroke-linecap:round;stroke-linejoin:round;stroke-miterlimit:4;stroke-dasharray:none;stroke-opacity:1"
       d="M 7,4 V 7 H 4 v 2 h 3 v 3 H 9 V 9 h 3 V 7 H 9 V 4 Z"
       id="rect1011"
       inkscape:connector-curvature="0" />
  </g>
  <g
     id="open-normal">
    <rect
       style="opacity:0.00100002;fill:#000000;fill-opacity:1;stroke:none;stroke-width:0.80000001"
       id="rect3042"
       width="16"
       height="16"
       x="0"
       y="32" />
    <path
       id="path3044"
       d="M 8 33 A 6.9999999 6.9999999 0 0 0 1 40 A 6.9999999 6.9999999 0 0 0 8 47 A 6.9999999 6.9999999 0 0 0 15 40 A 6.9999999 6.9999999 0 0 0 8 33 z M 8 35 A 4.9999999 4.9999999 0 0 1 13 40 A 4.9999999 4.9999999 0 0 1 8 45 A 4.9999999 4.9999999 0 0 1 3 40 A 4.9999999 4.9999999 0 0 1 8 35 z "
       style="fill:#eeeeee;fill-opacity:1;stroke:none;stroke-width:0.87499994" />
    <path
       id="path1019"
       d="M 8.0000003,37 12,42 H 4 Z"
       style="opacity:1;fill:#eeeeee;fill-opacity:1;stroke:none;stroke-width:1.82743788;stroke-linecap:round;stroke-linejoin:round;stroke-miterlimit:4;stroke-dasharray:none;stroke-opacity:1"
       inkscape:connector-curvature="0"
       sodipodi:nodetypes="cccc" />
  </g>
  <g
     id="remove-hover">
    <rect
       style="opacity:0.00100002;fill:#000000;fill-opacity:1;stroke:none;stroke-width:0.80000001"
       id="rect1046"
       width="16"
       height="16"
       x="16"
       y="16" />
    <path
       id="path1048"
       d="M 24 17 A 6.9999999 6.9999999 0 0 0 17 24 A 6.9999999 6.9999999 0 0 0 24 31 A 6.9999999 6.9999999 0 0 0 31 24 A 6.9999999 6.9999999 0 0 0 24 17 z M 24 19 A 4.9999999 4.9999999 0 0 1 29 24 A 4.9999999 4.9999999 0 0 1 24 29 A 4.9999999 4.9999999 0 0 1 19 24 A 4.9999999 4.9999999 0 0 1 24 19 z "
       style="fill:#ffffff;fill-opacity:0;stroke:none;stroke-width:0.87499994" />
    <rect
       style="opacity:1;fill:#ffffff;fill-opacity:0;stroke:none;stroke-width:1.63299322;stroke-linecap:round;stroke-linejoin:round;stroke-miterlimit:4;stroke-dasharray:none;stroke-opacity:1"
       id="rect1050"
       width="2"
       height="8"
       x="23"
       y="-28"
       transform="rotate(90)" />
  </g>
  <g
     id="add-hover">
    <rect
       id="rect1054"
       width="16"
       height="16"
       x="16"
       y="0"
       style="opacity:0.00100002;fill:#000000;fill-opacity:1;stroke:none;stroke-width:0.80000001" />
    <path
       id="path1056"
       d="M 24 1 A 6.9999999 6.9999999 0 0 0 17 8 A 6.9999999 6.9999999 0 0 0 24 15 A 6.9999999 6.9999999 0 0 0 31 8 A 6.9999999 6.9999999 0 0 0 24 1 z M 24 3 A 4.9999999 4.9999999 0 0 1 29 8 A 4.9999999 4.9999999 0 0 1 24 13 A 4.9999999 4.9999999 0 0 1 19 8 A 4.9999999 4.9999999 0 0 1 24 3 z "
       style="fill:#ffffff;fill-opacity:0;stroke:none;stroke-width:0.87499994" />
    <path
       style="opacity:1;fill:#ffffff;fill-opacity:0;stroke:none;stroke-width:1.63299322;stroke-linecap:round;stroke-linejoin:round;stroke-miterlimit:4;stroke-dasharray:none;stroke-opacity:1"
       d="m 23,4 v 3 h -3 v 2 h 3 v 3 h 2 V 9 h 3 V 7 H 25 V 4 Z"
       id="rect1058"
       inkscape:connector-curvature="0" />
  </g>
  <g
     id="open-hover">
    <rect
       id="rect1064"
       width="16"
       height="16"
       x="16"
       y="32"
       style="opacity:0.00100002;fill:#000000;fill-opacity:1;stroke:none;stroke-width:0.80000001" />
    <path
       id="path1066"
       d="M 24 33 A 6.9999999 6.9999999 0 0 0 17 40 A 6.9999999 6.9999999 0 0 0 24 47 A 6.9999999 6.9999999 0 0 0 31 40 A 6.9999999 6.9999999 0 0 0 24 33 z M 24 35 A 4.9999999 4.9999999 0 0 1 29 40 A 4.9999999 4.9999999 0 0 1 24 45 A 4.9999999 4.9999999 0 0 1 19 40 A 4.9999999 4.9999999 0 0 1 24 35 z "
       style="fill:#ffffff;fill-opacity:0;stroke:none;stroke-width:0.87499994" />
    <path
       style="opacity:1;fill:#ffffff;fill-opacity:0;stroke:none;stroke-width:1.82743788;stroke-linecap:round;stroke-linejoin:round;stroke-miterlimit:4;stroke-dasharray:none;stroke-opacity:1"
       id="path1068"
       d="m 24,37 4,5 h -8 z"
       inkscape:connector-curvature="0"
       sodipodi:nodetypes="cccc" />
  </g>
  <g
     id="remove-pressed">
    <rect
       id="rect1072"
       width="16"
       height="16"
       x="32"
       y="16"
       style="opacity:0.00100002;fill:#000000;fill-opacity:1;stroke:none;stroke-width:0.80000001" />
    <path
       id="path1074"
       d="M 40 17 A 6.9999999 6.9999999 0 0 0 33 24 A 6.9999999 6.9999999 0 0 0 40 31 A 6.9999999 6.9999999 0 0 0 47 24 A 6.9999999 6.9999999 0 0 0 40 17 z M 40 19 A 4.9999999 4.9999999 0 0 1 45 24 A 4.9999999 4.9999999 0 0 1 40 29 A 4.9999999 4.9999999 0 0 1 35 24 A 4.9999999 4.9999999 0 0 1 40 19 z "
       style="fill:#b39ddb;fill-opacity:1;stroke:none;stroke-width:0.87499994" />
    <rect
       id="rect1076"
       width="2"
       height="8"
       x="23"
       y="-44"
       transform="rotate(90)"
       style="opacity:1;fill:#b39ddb;fill-opacity:1;stroke:none;stroke-width:1.63299322;stroke-linecap:round;stroke-linejoin:round;stroke-miterlimit:4;stroke-dasharray:none;stroke-opacity:1" />
  </g>
  <g
     id="add-pressed">
    <rect
       style="opacity:0.00100002;fill:#000000;fill-opacity:1;stroke:none;stroke-width:0.80000001"
       id="rect1080"
       width="16"
       height="16"
       x="32"
       y="0" />
    <path
       id="path1082"
       d="M 40 1 A 6.9999999 6.9999999 0 0 0 33 8 A 6.9999999 6.9999999 0 0 0 40 15 A 6.9999999 6.9999999 0 0 0 47 8 A 6.9999999 6.9999999 0 0 0 40 1 z M 40 3 A 4.9999999 4.9999999 0 0 1 45 8 A 4.9999999 4.9999999 0 0 1 40 13 A 4.9999999 4.9999999 0 0 1 35 8 A 4.9999999 4.9999999 0 0 1 40 3 z "
       style="fill:#b39ddb;fill-opacity:1;stroke:none;stroke-width:0.87499994" />
    <path
       style="opacity:1;fill:#b39ddb;fill-opacity:1;stroke:none;stroke-width:1.63299322;stroke-linecap:round;stroke-linejoin:round;stroke-miterlimit:4;stroke-dasharray:none;stroke-opacity:1"
       d="m 39,4 v 3 h -3 v 2 h 3 v 3 h 2 V 9 h 3 V 7 H 41 V 4 Z"
       id="rect1084"
       inkscape:connector-curvature="0" />
  </g>
  <g
     id="open-pressed">
    <rect
       style="opacity:0.00100002;fill:#000000;fill-opacity:1;stroke:none;stroke-width:0.80000001"
       id="rect1090"
       width="16"
       height="16"
       x="32"
       y="32" />
    <path
       id="path1092"
       d="M 40 33 A 6.9999999 6.9999999 0 0 0 33 40 A 6.9999999 6.9999999 0 0 0 40 47 A 6.9999999 6.9999999 0 0 0 47 40 A 6.9999999 6.9999999 0 0 0 40 33 z M 40 35 A 4.9999999 4.9999999 0 0 1 45 40 A 4.9999999 4.9999999 0 0 1 40 45 A 4.9999999 4.9999999 0 0 1 35 40 A 4.9999999 4.9999999 0 0 1 40 35 z "
       style="fill:#b39ddb;fill-opacity:1;stroke:none;stroke-width:0.87499994" />
    <path
       sodipodi:nodetypes="cccc"
       inkscape:connector-curvature="0"
       id="path875"
       d="m 36,42 4,-5 4,5 z"
       style="fill:#b39ddb;fill-opacity:1;stroke:none;stroke-width:1px;stroke-linecap:butt;stroke-linejoin:miter;stroke-opacity:1" />
  </g>
</svg>
