<?xml version="1.0" encoding="UTF-8" standalone="no"?>
<svg
   xmlns:dc="http://purl.org/dc/elements/1.1/"
   xmlns:cc="http://creativecommons.org/ns#"
   xmlns:rdf="http://www.w3.org/1999/02/22-rdf-syntax-ns#"
   xmlns:svg="http://www.w3.org/2000/svg"
   xmlns="http://www.w3.org/2000/svg"
   xmlns:sodipodi="http://sodipodi.sourceforge.net/DTD/sodipodi-0.dtd"
   xmlns:inkscape="http://www.inkscape.org/namespaces/inkscape"
   id="svg2"
   width="136"
   height="40"
   version="1.1"
   viewBox="0 0 35.98 10.58"
   sodipodi:docname="busywidget.svg"
   inkscape:version="0.92.4 5da689c313, 2019-01-14">
  <metadata
     id="metadata20">
    <rdf:RDF>
      <cc:Work
         rdf:about="">
        <dc:format>image/svg+xml</dc:format>
        <dc:type
           rdf:resource="http://purl.org/dc/dcmitype/StillImage" />
      </cc:Work>
    </rdf:RDF>
  </metadata>
  <defs
     id="defs18" />
  <sodipodi:namedview
     pagecolor="#ffffff"
     bordercolor="#666666"
     borderopacity="1"
     objecttolerance="10"
     gridtolerance="10"
     guidetolerance="10"
     inkscape:pageopacity="0"
     inkscape:pageshadow="2"
     inkscape:window-width="1920"
     inkscape:window-height="1023"
     id="namedview16"
     showgrid="false"
     inkscape:zoom="2.2461039"
     inkscape:cx="-119.37812"
     inkscape:cy="-12.717628"
     inkscape:window-x="0"
     inkscape:window-y="28"
     inkscape:window-maximized="1"
     inkscape:current-layer="svg2">
    <inkscape:grid
       type="xygrid"
       id="grid829" />
  </sodipodi:namedview>
  <rect
     id="hint-rotation-angle"
     width="3.704"
     height="3.704"
     x="0"
     y="10.59"
     style="fill:#0000ff;fill-opacity:1;fill-rule:nonzero;stroke:none;stroke-width:0.26458335" />
  <g
     id="16-16-busywidget">
    <rect
       id="rect4173"
       width="4.2329998"
       height="4.2329998"
       x="0"
       y="6.3499999"
       style="opacity:0.00100002;fill:#000000;fill-opacity:1;stroke:none" />
    <path
       inkscape:label="#2"
       id="12"
       transform="matrix(0.26455882,0,0,0.26455882,0,-0.00117647)"
       d="M 8 24 C 7.446 24 7 24.446 7 25 C 7 25.554 7.446 26 8 26 C 8.554 26 9 25.554 9 25 C 9 24.446 8.554 24 8 24 z M 3.0507812 26.048828 C 2.7951622 26.048828 2.5396186 26.147881 2.34375 26.34375 C 1.9520128 26.735487 1.9520128 27.366075 2.34375 27.757812 C 2.7354872 28.14955 3.3660753 28.14955 3.7578125 27.757812 C 4.1495497 27.366075 4.1495497 26.735487 3.7578125 26.34375 C 3.5619439 26.147881 3.3064003 26.048828 3.0507812 26.048828 z M 12.949219 26.048828 C 12.6936 26.048828 12.438056 26.147881 12.242188 26.34375 C 11.85045 26.735487 11.85045 27.366075 12.242188 27.757812 C 12.633925 28.14955 13.264513 28.14955 13.65625 27.757812 C 14.047987 27.366075 14.047987 26.735487 13.65625 26.34375 C 13.460381 26.147881 13.204838 26.048828 12.949219 26.048828 z M 1 31 C 0.446 31 -3.3922717e-17 31.446 0 32 C 7.4014868e-17 32.554 0.446 33 1 33 C 1.554 33 2 32.554 2 32 C 2 31.446 1.554 31 1 31 z M 15 31 C 14.446 31 14 31.446 14 32 C 14 32.554 14.446 33 15 33 C 15.554 33 16 32.554 16 32 C 16 31.446 15.554 31 15 31 z M 3.0507812 35.949219 C 2.7951622 35.949219 2.5396186 36.046319 2.34375 36.242188 C 1.9520128 36.633925 1.9520128 37.264513 2.34375 37.65625 C 2.7354872 38.047987 3.3660753 38.047987 3.7578125 37.65625 C 4.1495497 37.264513 4.1495497 36.633925 3.7578125 36.242188 C 3.5619439 36.046319 3.3064003 35.949219 3.0507812 35.949219 z M 12.949219 35.949219 C 12.6936 35.949219 12.438056 36.046319 12.242188 36.242188 C 11.85045 36.633925 11.85045 37.264513 12.242188 37.65625 C 12.633925 38.047987 13.264513 38.047987 13.65625 37.65625 C 14.047987 37.264513 14.047987 36.633925 13.65625 36.242188 C 13.460381 36.046319 13.204838 35.949219 12.949219 35.949219 z M 8 38 C 7.446 38 7 38.446 7 39 C 7 39.554 7.446 40 8 40 C 8.554 40 9 39.554 9 39 C 9 38.446 8.554 38 8 38 z "
       style="opacity:1;fill:#baa2e5;fill-opacity:0.90875912;stroke:none;stroke-width:2;stroke-linecap:round;stroke-linejoin:round;stroke-miterlimit:4;stroke-dasharray:none;stroke-opacity:1" />
  </g>
  <g
     id="22-22-busywidget">
    <rect
       id="rect3007"
       width="5.8200002"
       height="5.8200002"
       x="6.6100001"
       y="4.7600002"
       style="opacity:0.00100002;fill:#000000;fill-opacity:1;stroke:none" />
    <path
       inkscape:label="#1"
       inkscape:connector-curvature="0"
       style="opacity:1;fill:#baa2e5;fill-opacity:0.90875914;stroke:none;stroke-width:0.72753674;stroke-linecap:round;stroke-linejoin:round;stroke-miterlimit:4;stroke-dasharray:none;stroke-opacity:1"
       d="m 9.5241176,4.7608824 c -0.2015275,0 -0.3637683,0.1622406 -0.3637683,0.3637683 0,0.2015277 0.1622408,0.3637685 0.3637683,0.3637685 0.2015277,0 0.3637685,-0.1622408 0.3637685,-0.3637685 0,-0.2015277 -0.1622408,-0.3637683 -0.3637685,-0.3637683 z M 7.7237484,5.5061812 c -0.092986,0 -0.1859448,0.036032 -0.2571956,0.107283 -0.1425016,0.1425015 -0.1425016,0.3718895 0,0.5143911 0.1425017,0.1425019 0.3718896,0.1425019 0.5143912,0 0.1425017,-0.1425016 0.1425017,-0.3718896 0,-0.5143911 C 7.9096928,5.542213 7.8167345,5.5061812 7.7237484,5.5061812 Z m 3.6007386,0 c -0.09299,0 -0.185944,0.036032 -0.257195,0.107283 -0.142503,0.1425015 -0.142503,0.3718895 0,0.5143911 0.142501,0.1425019 0.371889,0.1425019 0.51439,0 0.142502,-0.1425016 0.142502,-0.3718896 0,-0.5143911 -0.07125,-0.071251 -0.164209,-0.107283 -0.257195,-0.107283 z M 6.977739,7.3072611 c -0.2015277,0 -0.3637683,0.1622406 -0.3637683,0.3637684 0,0.2015277 0.1622406,0.3637683 0.3637683,0.3637683 0.2015277,0 0.3637684,-0.1622406 0.3637684,-0.3637683 0,-0.2015278 -0.1622407,-0.3637684 -0.3637684,-0.3637684 z m 5.092757,0 c -0.201527,0 -0.363767,0.1622406 -0.363767,0.3637684 0,0.2015277 0.16224,0.3637683 0.363767,0.3637683 0.201528,0 0.363768,-0.1622406 0.363768,-0.3637683 0,-0.2015278 -0.16224,-0.3637684 -0.363768,-0.3637684 z M 7.7237484,9.1076304 c -0.092986,0 -0.1859448,0.035322 -0.2571956,0.1065722 -0.1425016,0.1425015 -0.1425016,0.3718895 0,0.514391 0.1425017,0.1425021 0.3718896,0.1425021 0.5143912,0 0.1425017,-0.1425015 0.1425017,-0.3718895 0,-0.514391 C 7.9096928,9.1429514 7.8167345,9.1076304 7.7237484,9.1076304 Z m 3.6007386,0 c -0.09299,0 -0.185944,0.035322 -0.257195,0.1065722 -0.142503,0.1425015 -0.142503,0.3718895 0,0.514391 0.142501,0.1425021 0.371889,0.1425021 0.51439,0 0.142502,-0.1425015 0.142502,-0.3718895 0,-0.514391 -0.07125,-0.071251 -0.164209,-0.1065722 -0.257195,-0.1065722 z M 9.5241176,9.8536401 c -0.2015275,0 -0.3637683,0.1622399 -0.3637683,0.3637689 0,0.201527 0.1622408,0.363767 0.3637683,0.363767 0.2015277,0 0.3637685,-0.16224 0.3637685,-0.363767 0,-0.201529 -0.1622408,-0.3637689 -0.3637685,-0.3637689 z"
       id="1" />
  </g>
  <g
     id="busywidget">
    <rect
       id="rect4190"
       width="8.4658823"
       height="8.4658823"
       x="13.227941"
       y="2.1189408"
       style="opacity:0.00100002;fill:#000000;fill-opacity:1;stroke:none;stroke-width:1.99997234" />
    <path
       id="path852"
       d="m 17.460882,2.1152941 c -0.29313,0 -0.529117,0.2359864 -0.529117,0.5291176 0,0.2931312 0.235987,0.5291178 0.529117,0.5291178 0.293132,0 0.529119,-0.2359866 0.529119,-0.5291178 0,-0.2931312 -0.235987,-0.5291176 -0.529119,-0.5291176 z m -2.618719,1.084071 c -0.135258,0 -0.270465,0.05241 -0.374101,0.156048 -0.207276,0.207275 -0.207276,0.5409302 0,0.7482053 0.207274,0.2072755 0.540929,0.2072755 0.748205,0 0.207274,-0.2072751 0.207274,-0.5409303 0,-0.7482053 -0.103637,-0.1036378 -0.238851,-0.156048 -0.374104,-0.156048 z m 5.237439,0 c -0.135258,0 -0.270464,0.05241 -0.374102,0.156048 -0.207277,0.207275 -0.207277,0.5409302 0,0.7482053 0.207274,0.2072755 0.54093,0.2072755 0.748204,0 0.207276,-0.2072751 0.207276,-0.5409303 0,-0.7482053 -0.103636,-0.1036378 -0.23885,-0.156048 -0.374102,-0.156048 z m -6.322543,2.6197527 c -0.293131,0 -0.529118,0.2359863 -0.529118,0.5291177 0,0.2931312 0.235987,0.5291175 0.529118,0.5291175 0.293131,0 0.529117,-0.2359863 0.529117,-0.5291175 0,-0.2931314 -0.235986,-0.5291177 -0.529117,-0.5291177 z m 7.407647,0 c -0.29313,0 -0.529116,0.2359863 -0.529116,0.5291177 0,0.2931312 0.235986,0.5291175 0.529116,0.5291175 0.293132,0 0.529117,-0.2359863 0.529117,-0.5291175 0,-0.2931314 -0.235985,-0.5291177 -0.529117,-0.5291177 z m -6.322543,2.6187191 c -0.135258,0 -0.270465,0.051377 -0.374101,0.1550141 -0.207276,0.2072749 -0.207276,0.5409302 0,0.7482051 0.207274,0.2072758 0.540929,0.2072758 0.748205,0 0.207274,-0.2072749 0.207274,-0.5409302 0,-0.7482051 C 15.11263,8.4892132 14.977416,8.4378369 14.842163,8.4378369 Z m 5.237439,0 c -0.135258,0 -0.270464,0.051377 -0.374102,0.1550141 -0.207277,0.2072749 -0.207277,0.5409302 0,0.7482051 0.207274,0.2072758 0.54093,0.2072758 0.748204,0 0.207276,-0.2072749 0.207276,-0.5409302 0,-0.7482051 -0.103636,-0.1036378 -0.23885,-0.1550141 -0.374102,-0.1550141 z m -2.61872,1.085105 c -0.29313,0 -0.529117,0.2359853 -0.529117,0.5291181 0,0.293131 0.235987,0.529116 0.529117,0.529116 0.293132,0 0.529119,-0.235985 0.529119,-0.529116 0,-0.2931328 -0.235987,-0.5291181 -0.529119,-0.5291181 z"
       style="opacity:1;fill:#baa2e5;fill-opacity:0.90875914;stroke:none;stroke-width:1.05823529;stroke-linecap:round;stroke-linejoin:round;stroke-miterlimit:4;stroke-dasharray:none;stroke-opacity:1"
       inkscape:connector-curvature="0" />
  </g>
  <g
     id="stopped">
    <rect
       id="rect4143"
       width="8.4659996"
       height="8.4659996"
       x="24.34"
       y="2.1199999"
       style="opacity:0.00100002;fill:#000000;fill-opacity:1;fill-rule:nonzero;stroke:none;stroke-width:2;stroke-linecap:round;stroke-linejoin:round;stroke-miterlimit:4;stroke-dasharray:none;stroke-opacity:1" />
    <path
       transform="matrix(0.26455882,0,0,0.26455882,0,-0.00117647)"
       id="rect868"
       d="M 108 8 C 99.136001 8 92 15.136001 92 24 L 92 24.013672 C 92 32.877671 99.136001 40.013672 108 40.013672 C 116.864 40.013672 124 32.877671 124 24.013672 L 124 24 C 124 15.136001 116.864 8 108 8 z M 108 12 C 114.64895 12 120.00195 17.353 120.00195 24.001953 L 120.00195 24.011719 C 120.00195 30.660672 114.64895 36.013672 108 36.013672 C 101.35105 36.013672 95.998047 30.660672 95.998047 24.011719 L 95.998047 24.001953 C 95.998047 17.353 101.35105 12 108 12 z "
       style="opacity:1;fill:#baa2e5;fill-opacity:0.90875914;stroke:none;stroke-width:2;stroke-linecap:round;stroke-linejoin:round;stroke-miterlimit:4;stroke-dasharray:none;stroke-opacity:1" />
  </g>
</svg>
