<?xml version="1.0" encoding="UTF-8" standalone="no"?>
<svg
   xmlns:dc="http://purl.org/dc/elements/1.1/"
   xmlns:cc="http://creativecommons.org/ns#"
   xmlns:rdf="http://www.w3.org/1999/02/22-rdf-syntax-ns#"
   xmlns:svg="http://www.w3.org/2000/svg"
   xmlns="http://www.w3.org/2000/svg"
   xmlns:sodipodi="http://sodipodi.sourceforge.net/DTD/sodipodi-0.dtd"
   xmlns:inkscape="http://www.inkscape.org/namespaces/inkscape"
   id="svg2"
   width="16"
   height="16"
   version="1"
   sodipodi:docname="checkmarks.svg"
   inkscape:version="0.92.4 5da689c313, 2019-01-14">
  <metadata
     id="metadata14">
    <rdf:RDF>
      <cc:Work
         rdf:about="">
        <dc:format>image/svg+xml</dc:format>
        <dc:type
           rdf:resource="http://purl.org/dc/dcmitype/StillImage" />
        <dc:title></dc:title>
      </cc:Work>
    </rdf:RDF>
  </metadata>
  <defs
     id="defs12" />
  <sodipodi:namedview
     pagecolor="#ffffff"
     bordercolor="#666666"
     borderopacity="1"
     objecttolerance="10"
     gridtolerance="10"
     guidetolerance="10"
     inkscape:pageopacity="0"
     inkscape:pageshadow="2"
     inkscape:window-width="1920"
     inkscape:window-height="1023"
     id="namedview10"
     showgrid="false"
     inkscape:zoom="20.85965"
     inkscape:cx="31.175407"
     inkscape:cy="6.452286"
     inkscape:window-x="0"
     inkscape:window-y="28"
     inkscape:window-maximized="1"
     inkscape:current-layer="svg2">
    <inkscape:grid
       type="xygrid"
       id="grid827" />
  </sodipodi:namedview>
  <g
     id="radiobutton">
    <rect
       style="opacity:0.00100002;fill:#000000;fill-opacity:1;fill-rule:nonzero;stroke:none"
       ry="0"
       rx="87.766998"
       y="0"
       x="0"
       height="16"
       width="16"
       id="rect3736" />
    <path
       id="path3716"
       d="M 8 2 A 6 6 0 0 0 2 8 A 6 6 0 0 0 8 14 A 6 6 0 0 0 14 8 A 6 6 0 0 0 8 2 z M 8 4 A 4 4 0 0 1 12 8 A 4 4 0 0 1 8 12 A 4 4 0 0 1 4 8 A 4 4 0 0 1 8 4 z "
       style="opacity:1;fill:#eeeeee;fill-opacity:1;fill-rule:nonzero;stroke:none;stroke-width:2.68328142" />
  </g>
  <g
     id="checkbox">
    <rect
       style="opacity:0.00100002;fill:#000000;fill-opacity:1;fill-rule:nonzero;stroke:none"
       ry="0"
       rx="16.455999"
       y="0"
       x="18"
       height="16"
       width="16"
       id="rect3706" />
    <path
       inkscape:connector-curvature="0"
       id="rect842"
       d="m 30.596194,3.7573592 -5.656854,5.6568542 -3.535534,-3.5355339 -1.414213,1.4142136 3.535533,3.5355339 1.414214,1.414214 1.414214,-1.414214 5.656853,-5.6568543 z"
       style="opacity:1;fill:#b39ddb;fill-opacity:1;stroke:none;stroke-width:75.59055328;stroke-linecap:square;stroke-linejoin:miter;stroke-miterlimit:4;stroke-dasharray:none;stroke-opacity:1" />
  </g>
</svg>
