<?xml version="1.0" encoding="UTF-8" standalone="no"?>
<!-- Created with Inkscape (http://www.inkscape.org/) -->

<svg
   xmlns:dc="http://purl.org/dc/elements/1.1/"
   xmlns:cc="http://creativecommons.org/ns#"
   xmlns:rdf="http://www.w3.org/1999/02/22-rdf-syntax-ns#"
   xmlns:svg="http://www.w3.org/2000/svg"
   xmlns="http://www.w3.org/2000/svg"
   xmlns:xlink="http://www.w3.org/1999/xlink"
   xmlns:sodipodi="http://sodipodi.sourceforge.net/DTD/sodipodi-0.dtd"
   xmlns:inkscape="http://www.inkscape.org/namespaces/inkscape"
   id="svg2"
   sodipodi:version="0.32"
   inkscape:version="0.92.4 5da689c313, 2019-01-14"
   width="500"
   height="500"
   sodipodi:docname="clock.svg"
   inkscape:output_extension="org.inkscape.output.svgz.inkscape"
   inkscape:export-filename="/home/pinheiro/server/svnserver/estilo/plasma/4.2/test/image601cc.png"
   inkscape:export-xdpi="90"
   inkscape:export-ydpi="90"
   version="1.0">
  <sodipodi:namedview
     inkscape:window-height="443"
     inkscape:window-width="933"
     inkscape:pageshadow="2"
     inkscape:pageopacity="1"
     guidetolerance="3"
     gridtolerance="4"
     objecttolerance="6"
     borderopacity="1.0"
     bordercolor="#666666"
     pagecolor="#ffffff"
     id="base"
     inkscape:zoom="2.2518117"
     inkscape:cx="590.35446"
     inkscape:cy="162.56411"
     inkscape:window-x="219"
     inkscape:window-y="112"
     inkscape:current-layer="svg2"
     showgrid="false"
     showguides="true"
     inkscape:guide-bbox="true"
     inkscape:window-maximized="0">
    <inkscape:grid
       empspacing="5"
       enabled="true"
       visible="true"
       id="grid5592"
       type="xygrid"
       snapvisiblegridlinesonly="true"
       color="#0000ff"
       opacity="0.03921569"
       empcolor="#0000ff"
       empopacity="0.07843137" />
    <sodipodi:guide
       id="guide4454"
       position="1296.8644,-784.48024"
       orientation="1,0"
       inkscape:locked="false" />
    <sodipodi:guide
       id="guide7371"
       position="820.86441,-843.48024"
       orientation="0,1"
       inkscape:locked="false" />
  </sodipodi:namedview>
  <metadata
     id="metadata7">
    <rdf:RDF>
      <cc:Work
         rdf:about="">
        <dc:format>image/svg+xml</dc:format>
        <dc:type
           rdf:resource="http://purl.org/dc/dcmitype/StillImage" />
        <dc:title />
      </cc:Work>
    </rdf:RDF>
  </metadata>
  <defs
     id="defs5">
    <linearGradient
       id="linearGradient4011">
      <stop
         style="stop-color:#232629;stop-opacity:1;"
         offset="0"
         id="stop4013" />
      <stop
         id="stop4019"
         offset="0.89999998"
         style="stop-color:#232629;stop-opacity:0.52348995;" />
      <stop
         style="stop-color:#232629;stop-opacity:0.10738255;"
         offset="0.95999998"
         id="stop4021" />
      <stop
         style="stop-color:#232629;stop-opacity:0;"
         offset="1"
         id="stop4015" />
    </linearGradient>
    <linearGradient
       id="linearGradient3264">
      <stop
         style="stop-color:#000000;stop-opacity:1;"
         offset="0"
         id="stop3266" />
      <stop
         id="stop3272"
         offset="0.68343294"
         style="stop-color:#000000;stop-opacity:0.49803922;" />
      <stop
         style="stop-color:#000000;stop-opacity:0.14117648;"
         offset="0.79985917"
         id="stop3274" />
      <stop
         id="stop3276"
         offset="0.89750695"
         style="stop-color:#000000;stop-opacity:0.03137255;" />
      <stop
         style="stop-color:#000000;stop-opacity:0;"
         offset="1"
         id="stop3268" />
    </linearGradient>
    <linearGradient
       id="linearGradient6617">
      <stop
         style="stop-color:#e7e7e7;stop-opacity:0;"
         offset="0"
         id="stop6619" />
      <stop
         id="stop6625"
         offset="0.89623755"
         style="stop-color:#f3f3f3;stop-opacity:1" />
      <stop
         style="stop-color:#e3e3e3;stop-opacity:0.99861372"
         offset="1"
         id="stop6621" />
    </linearGradient>
    <linearGradient
       id="linearGradient5995">
      <stop
         id="stop5997"
         offset="0"
         style="stop-color:#d7d7d7;stop-opacity:1;" />
      <stop
         id="stop5999"
         offset="1"
         style="stop-color:#ffffff;stop-opacity:1" />
    </linearGradient>
    <linearGradient
       id="linearGradient6876"
       inkscape:collect="always">
      <stop
         id="stop6878"
         offset="0"
         style="stop-color:#ffffff;stop-opacity:1;" />
      <stop
         id="stop6880"
         offset="1"
         style="stop-color:#ffffff;stop-opacity:0;" />
    </linearGradient>
    <linearGradient
       id="linearGradient6608">
      <stop
         id="stop6610"
         offset="0"
         style="stop-color:#ffffff;stop-opacity:1;" />
      <stop
         style="stop-color:#f0f0f0;stop-opacity:1;"
         offset="0.79710144"
         id="stop6617" />
      <stop
         id="stop6612"
         offset="1"
         style="stop-color:#e2e2e2;stop-opacity:1;" />
    </linearGradient>
    <linearGradient
       id="linearGradient6195"
       inkscape:collect="always">
      <stop
         id="stop6197"
         offset="0"
         style="stop-color:#ffffff;stop-opacity:1;" />
      <stop
         id="stop6199"
         offset="1"
         style="stop-color:#ffffff;stop-opacity:0;" />
    </linearGradient>
    <linearGradient
       id="linearGradient8518">
      <stop
         id="stop8520"
         offset="0"
         style="stop-color:#bd0000;stop-opacity:1;" />
      <stop
         style="stop-color:#ff4747;stop-opacity:1"
         offset="0.15470119"
         id="stop8522" />
      <stop
         id="stop8524"
         offset="0.94668281"
         style="stop-color:#9c0000;stop-opacity:1;" />
      <stop
         id="stop8526"
         offset="1"
         style="stop-color:#db0000;stop-opacity:1;" />
    </linearGradient>
    <linearGradient
       gradientUnits="userSpaceOnUse"
       y2="117.86208"
       x2="1155.6477"
       y1="283.88474"
       x1="1155.6477"
       id="linearGradient6203"
       xlink:href="#linearGradient6195"
       inkscape:collect="always" />
    <linearGradient
       gradientTransform="translate(-1027.6356,-20.896313)"
       y2="53.696342"
       x2="1133.3816"
       y1="21.651564"
       x1="1133.3816"
       gradientUnits="userSpaceOnUse"
       id="linearGradient6890"
       xlink:href="#linearGradient6876"
       inkscape:collect="always" />
    <radialGradient
       inkscape:collect="always"
       xlink:href="#linearGradient4011"
       id="radialGradient4471"
       gradientUnits="userSpaceOnUse"
       cx="1255.8716"
       cy="382.72916"
       fx="1255.8716"
       fy="382.72916"
       r="96.605507" />
    <radialGradient
       inkscape:collect="always"
       xlink:href="#linearGradient823"
       id="radialGradient827"
       cx="58.208336"
       cy="236.14583"
       fx="58.208336"
       fy="236.14583"
       r="55.562504"
       gradientUnits="userSpaceOnUse"
       gradientTransform="matrix(3.6085519,9.9838406e-8,-1.2062229e-7,3.5995559,-0.60222376,-600.78769)" />
    <linearGradient
       inkscape:collect="always"
       id="linearGradient823">
      <stop
         style="stop-color:#000000;stop-opacity:1;"
         offset="0"
         id="stop819" />
      <stop
         id="stop829"
         offset="0.84787953"
         style="stop-color:#000000;stop-opacity:0.19607843" />
      <stop
         style="stop-color:#000000;stop-opacity:0;"
         offset="1"
         id="stop821" />
    </linearGradient>
  </defs>
  <g
     id="ClockFace"
     transform="translate(41.108946)">
    <path
       id="rect817"
       d="m 209.44555,39.23207 c -116.340007,0 -209.99999637,93.66002 -209.99999637,210 0,116.34002 93.65998937,210 209.99999637,210 116.34001,0 209.99999,-93.65998 209.99999,-210 0,-116.33998 -93.65998,-210 -209.99999,-210 z m 0,20.000013 c 105.25999,0 190.00002,84.739997 190.00002,189.999987 0,105.26 -84.74003,190.00003 -190.00002,190.00003 -105.25999,0 -189.999996,-84.74003 -189.999996,-190.00003 0,-105.25999 84.740006,-189.999987 189.999996,-189.999987 z"
       style="opacity:1;fill:url(#radialGradient827);fill-opacity:1;stroke:none;stroke-width:30.23622131;stroke-linecap:round;stroke-linejoin:round;stroke-miterlimit:4;stroke-dasharray:none;stroke-opacity:1"
       inkscape:connector-curvature="0" />
    <rect
       ry="188.93933"
       rx="188.93932"
       y="60.293056"
       x="20.506214"
       height="377.87863"
       width="377.87863"
       id="rect836"
       style="opacity:1;fill:#333333;fill-opacity:1;stroke:none;stroke-width:31.91601181;stroke-linecap:round;stroke-linejoin:round;stroke-miterlimit:4;stroke-dasharray:none;stroke-opacity:1" />
    <path
       inkscape:connector-curvature="0"
       style="opacity:1;fill:#29334f;fill-opacity:1;stroke:none;stroke-width:31.91601181;stroke-linecap:round;stroke-linejoin:round;stroke-miterlimit:4;stroke-dasharray:none;stroke-opacity:1"
       d="m 209.44555,59.231744 c -105.25999,0 -189.999999,84.740006 -189.999999,189.999996 0,105.25999 84.740009,190 189.999999,190 105.25999,0 190,-84.74001 190,-190 0,-105.25999 -84.74001,-189.999996 -190,-189.999996 z m 0,1.060547 c 104.67238,0 188.93945,84.267069 188.93945,188.939459 0,104.67238 -84.26707,188.93945 -188.93945,188.93945 -104.67238,0 -188.939452,-84.26707 -188.939452,-188.93945 0,-104.67238 84.267072,-188.939459 188.939452,-188.939459 z"
       id="rect861" />
    <g
       transform="translate(-1.920544,2.0270113)"
       id="g4907">
      <path
         style="opacity:1;fill:#eeeeee;fill-opacity:1;stroke:none;stroke-width:1.15470052;stroke-linecap:round;stroke-linejoin:round;stroke-miterlimit:4;stroke-dasharray:none;stroke-opacity:1"
         d="m 196.76786,73.000002 -7.78572,7.785714 3.89286,3.892857 3.89286,-3.892857 v 21.410714 h 5.83928 V 73.000002 Z"
         id="rect1050"
         inkscape:connector-curvature="0"
         sodipodi:nodetypes="cccccccc" />
      <path
         style="opacity:1;fill:#eeeeee;fill-opacity:1;stroke:none;stroke-width:2;stroke-linecap:round;stroke-linejoin:round;stroke-miterlimit:4;stroke-dasharray:none;stroke-opacity:1"
         d="m 216.23214,73.000002 c -5.3916,0 -9.73214,4.340536 -9.73214,9.732143 v 1.946428 h 5.83929 v -1.946428 c 0,-2.156643 1.63862,-3.892857 3.67616,-3.892857 h 0.43339 c 2.03754,0 3.67616,1.736214 3.67616,3.892857 v 1.946428 c 0,3.892858 -13.625,1.946429 -13.625,11.678572 v 5.839285 h 19.46429 v -5.839285 h -13.625 c 0,-3.892857 13.625,-1.946429 13.625,-11.678572 v -1.946428 c 0,-5.391607 -4.34054,-9.732143 -9.73215,-9.732143 z"
         id="rect1106"
         inkscape:connector-curvature="0"
         sodipodi:nodetypes="ssccssssssccccsss" />
      <path
         style="opacity:1;fill:#eeeeee;fill-opacity:1;stroke:none;stroke-width:0.10000001;stroke-linecap:round;stroke-linejoin:round;stroke-miterlimit:4;stroke-dasharray:none;stroke-opacity:1"
         d="m 210.39286,392.21429 c -5.39161,0 -9.73215,4.34054 -9.73215,9.73215 v 9.73214 c 0,5.39161 4.34054,9.73214 9.73215,9.73214 5.3916,0 9.73214,-4.34053 9.73214,-9.73214 0,-5.39161 -4.34054,-9.73214 -9.73214,-9.73214 -1.38816,0 -2.70019,0.29803 -3.89286,0.81734 v -0.81734 c 0,-2.15665 1.73621,-3.89286 3.89286,-3.89286 1.44244,0 2.68422,0.78674 3.35683,1.94643 h 6.18143 c -0.89729,-4.45219 -4.81395,-7.78572 -9.53826,-7.78572 z m 0,15.57143 c 2.15664,0 3.89285,1.73622 3.89285,3.89286 0,2.15664 -1.73621,3.89286 -3.89285,3.89286 -2.15665,0 -3.89286,-1.73622 -3.89286,-3.89286 0,-2.15664 1.73621,-3.89286 3.89286,-3.89286 z"
         id="rect924"
         inkscape:connector-curvature="0" />
      <path
         inkscape:connector-curvature="0"
         id="path947"
         d="m 50.785712,265.69643 c 5.391607,0 9.732143,-4.34053 9.732143,-9.73214 v -9.73214 c 0,-5.39161 -4.340536,-9.73215 -9.732143,-9.73215 -5.391607,0 -9.732143,4.34054 -9.732143,9.73215 0,5.3916 4.340536,9.73214 9.732143,9.73214 1.388154,0 2.700183,-0.29804 3.892857,-0.81734 v 0.81734 c 0,2.15664 -1.736214,3.89286 -3.892857,3.89286 -1.44244,0 -2.684222,-0.78675 -3.35683,-1.94643 h -6.181429 c 0.897284,4.45218 4.813946,7.78571 9.538259,7.78571 z m 0,-15.57143 c -2.156643,0 -3.892857,-1.73621 -3.892857,-3.89285 0,-2.15665 1.736214,-3.89286 3.892857,-3.89286 2.156643,0 3.892857,1.73621 3.892857,3.89286 0,2.15664 -1.736214,3.89285 -3.892857,3.89285 z"
         style="opacity:1;fill:#eeeeee;fill-opacity:1;stroke:none;stroke-width:0.10000001;stroke-linecap:round;stroke-linejoin:round;stroke-miterlimit:4;stroke-dasharray:none;stroke-opacity:1" />
      <path
         style="opacity:1;fill:#eeeeee;fill-opacity:1;stroke:none;stroke-width:0.10000001;stroke-linecap:round;stroke-linejoin:round;stroke-miterlimit:4;stroke-dasharray:none;stroke-opacity:1"
         d="m 371.94643,236.5 c -5.39161,0 -9.73214,4.34054 -9.73214,9.73215 h 5.83928 c 0,-2.15665 1.73622,-3.89286 3.89286,-3.89286 2.15664,0 3.89286,1.73621 3.89286,3.89286 v 1.94643 H 370 v 5.83928 h 5.83929 v 1.94643 c 0,2.15664 -1.73622,3.89286 -3.89286,3.89286 -2.15664,0 -3.89286,-1.73622 -3.89286,-3.89286 h -5.83928 c 0,5.39161 4.34053,9.73214 9.73214,9.73214 5.39161,0 9.73214,-4.34053 9.73214,-9.73214 v -1.94643 c 0,-0.001 0,-0.002 0,-0.004 0,-1.61161 -1.29665,-2.91205 -2.90823,-2.91205 1.61158,0 2.90823,-1.29664 2.90823,-2.90824 0,-0.006 2e-5,-0.01 0,-0.0156 v -1.94643 c 0,-5.39161 -4.34053,-9.73214 -9.73214,-9.73214 z"
         id="rect949"
         inkscape:connector-curvature="0" />
    </g>
    <g
       aria-label="Flatery"
       transform="matrix(1.9539547,0,0,1.9539547,0.27041533,116.04285)"
       style="font-style:italic;font-variant:normal;font-weight:normal;font-stretch:normal;font-size:21.33333206px;line-height:1.25;font-family:TSCu_Comic;-inkscape-font-specification:'TSCu_Comic Italic';text-align:center;letter-spacing:0px;word-spacing:0px;text-anchor:middle;fill:#eeeeee;fill-opacity:1;stroke:none;stroke-width:0.51178259"
       id="flowRoot1031">
      <path
         d="m 91.697547,100.94553 q -0.141299,0.76705 -1.069834,0.76705 -1.473543,0 -3.915993,0.20185 -3.270056,0.2826 -3.61321,0.72668 -0.22204,0.2826 -0.504637,0.76705 -0.181671,0.32298 -0.545009,1.04964 l -0.504639,1.02947 4.864712,-0.56519 q 0.605566,0 0.444083,0.76704 -0.121114,0.66613 -1.513915,1.00928 -0.565196,0.1413 -1.776326,0.24223 -1.150577,0.0807 -2.725048,0.0807 -0.645936,1.29187 -1.372615,3.27006 -0.625752,1.71578 -0.787236,2.50301 -0.141299,0.70649 -0.968905,0.84779 -0.746865,0 -0.585381,-0.84779 0.141298,-0.72669 0.968906,-2.94709 0.867978,-2.32134 1.756141,-4.23897 1.211131,-2.56356 2.200223,-4.05728 0.44408,-0.66613 4.259146,-1.09002 2.745232,-0.30279 4.622486,-0.30279 0.36334,0 0.605566,0.20185 0.242226,0.22205 0.161485,0.58539 z"
         style="stroke-width:0.48666826"
         id="path1061"
         inkscape:connector-curvature="0" />
      <path
         d="m 95.835579,101.22812 -4.440816,11.92966 q -0.222041,0.60556 -0.968906,0.60556 -0.222041,0 -0.383524,-0.20185 -0.06055,-0.1615 -0.04037,-0.48446 l 4.38026,-11.92965 q 0.201856,-0.52482 0.847792,-0.52482 0.302783,0 0.464268,0.1413 0.161484,0.1413 0.141298,0.46426 z"
         style="stroke-width:0.48666826"
         id="path1063"
         inkscape:connector-curvature="0" />
      <path
         d="m 103.4455,106.94063 q -1.8167,3.45172 -2.36171,6.17677 -0.12111,0.60557 -0.82761,0.68631 -0.34315,0 -0.504634,-0.26242 -0.161484,-0.24222 -0.100928,-0.58537 -0.827607,0.80742 -2.523191,0.80742 -1.150575,0 -1.937811,-0.80742 -0.908349,-0.94872 -0.605566,-2.44246 0.36334,-1.85706 2.058924,-3.06819 1.594658,-1.15058 3.492096,-1.15058 0.92853,0 1.17076,0.22204 0.18167,0.1413 0.10093,0.50464 -0.0606,0.2826 -0.26241,0.50465 -0.22204,0.18166 -0.7065,0.18166 -1.473539,0 -2.664487,0.62575 -1.433172,0.76705 -1.715769,2.13967 -0.201855,1.00927 0.363339,1.47353 0.403711,0.32298 1.049648,0.32298 1.271688,0 2.543379,-0.86797 1.23132,-3.24988 1.89744,-4.31971 0.46426,-0.78724 0.96891,-0.78724 0.64594,0 0.56519,0.64594 z"
         style="stroke-width:0.48666826"
         id="path1065"
         inkscape:connector-curvature="0" />
      <path
         d="m 111.11596,106.6984 q -0.0606,0.30278 -0.26241,0.48446 -0.26241,0.22204 -0.56519,0.26241 l -2.18004,0.18167 -2.01856,5.53084 q -0.20185,0.52481 -0.92853,0.60556 -0.64594,0 -0.50464,-0.64594 l 1.958,-5.36935 -1.93781,0.18167 q -0.24223,0 -0.42389,-0.22204 -0.16149,-0.16148 -0.1413,-0.44408 0.0606,-0.36334 0.2624,-0.54501 0.22205,-0.20186 0.52483,-0.22205 l 2.2406,-0.16148 1.04964,-3.00764 q 0.20185,-0.56519 0.8276,-0.56519 0.24223,0 0.46427,0.18166 0.1413,0.22204 0.0807,0.54502 l -0.92853,2.68467 1.93781,-0.16149 q 0.22204,0 0.4239,0.16149 0.16149,0.18167 0.12111,0.52482 z"
         style="stroke-width:0.48666826"
         id="path1067"
         inkscape:connector-curvature="0" />
      <path
         d="m 118.22123,111.96682 q -0.1413,0.74687 -2.11946,1.35244 -1.63505,0.48445 -2.62413,0.48445 -3.16913,0 -2.62412,-2.76541 0.36333,-1.77633 1.85708,-3.22969 1.71576,-1.67541 3.73431,-1.67541 1.29187,0 1.97818,0.52483 0.68632,0.52483 0.54501,1.19094 -0.24222,1.21115 -2.86633,2.44245 -2.20024,1.02947 -2.92692,1.02947 -0.56519,0 -0.44408,-0.6863 0.0606,-0.22205 2.36171,-1.09003 2.30115,-0.88816 2.42226,-1.47355 0.0405,-0.24222 -0.24222,-0.44407 -0.32297,-0.14131 -1.09002,-0.14131 -1.51392,0 -2.62412,1.06985 -1.00928,0.98908 -1.29188,2.44244 -0.14129,0.7065 0.18168,1.09002 0.32296,0.38353 1.21113,0.38353 1.00927,0 1.95799,-0.40371 l 2.11948,-0.90836 q 0.64594,0 0.48445,0.80742 z"
         style="stroke-width:0.48666826"
         id="path1069"
         inkscape:connector-curvature="0" />
      <path
         d="m 127.5873,106.90026 q -0.10093,0.56519 -0.50464,0.72668 -0.26242,0.12111 -0.78723,0.12111 -1.85708,0 -3.73432,1.31207 -1.413,0.96889 -1.83689,1.77632 l -0.8276,2.40207 q -0.20187,0.52483 -0.86798,0.52483 -0.62576,0 -0.58538,-0.68631 l 2.26077,-6.17677 q 0.24223,-0.64595 0.8478,-0.64595 0.70649,0 0.54501,0.76706 l -0.40371,1.13039 q 1.31206,-1.02947 2.36171,-1.37262 1.31206,-0.44408 2.88653,-0.44408 0.76704,0 0.64593,0.5652 z"
         style="stroke-width:0.48666826"
         id="path1071"
         inkscape:connector-curvature="0" />
      <path
         d="m 136.95337,106.90026 -8.5183,12.23244 q -0.28259,0.4037 -0.80741,0.4037 -0.22204,0 -0.38353,-0.22205 -0.16148,-0.20185 -0.0807,-0.58538 0.0405,-0.22203 0.46427,-0.8276 l 2.98745,-4.21878 q -0.56519,-3.06819 -1.27169,-4.84452 l -0.74686,-2.05893 q 0.1413,-0.72668 0.90835,-0.72668 0.44407,0 1.2515,2.11949 0.40372,1.1102 0.60558,1.85706 0.24221,0.82761 0.48445,1.89745 l 3.8958,-5.55102 q 0.22204,-0.40372 0.88816,-0.40372 0.52482,0 0.32297,0.92854 z"
         style="stroke-width:0.48666826"
         id="path1073"
         inkscape:connector-curvature="0" />
    </g>
    <g
       style="stroke-width:0.89751589"
       transform="matrix(1.1141864,0,0,1.1141864,-38.460954,13.113607)"
       id="g4957">
      <rect
         transform="rotate(60)"
         style="opacity:1;fill:#9575cd;fill-opacity:1;stroke:none;stroke-width:0.59834403;stroke-linecap:round;stroke-linejoin:round;stroke-miterlimit:4;stroke-dasharray:none;stroke-opacity:1"
         id="rect1058"
         width="8.8504801"
         height="8.8504801"
         x="290.35321"
         y="-241.61388"
         rx="4.42524"
         ry="4.42524" />
      <rect
         transform="rotate(60)"
         ry="4.42524"
         rx="4.42524"
         y="59.302448"
         x="290.35321"
         height="8.8504801"
         width="8.8504801"
         id="rect1060"
         style="opacity:1;fill:#9575cd;fill-opacity:1;stroke:none;stroke-width:0.59834403;stroke-linecap:round;stroke-linejoin:round;stroke-miterlimit:4;stroke-dasharray:none;stroke-opacity:1" />
      <rect
         ry="4.42524"
         rx="4.42524"
         y="-82.605003"
         x="294.22559"
         height="8.8504801"
         width="8.8504801"
         id="rect1062"
         style="opacity:1;fill:#9575cd;fill-opacity:1;stroke:none;stroke-width:0.59834403;stroke-linecap:round;stroke-linejoin:round;stroke-miterlimit:4;stroke-dasharray:none;stroke-opacity:1"
         transform="rotate(30)" />
      <rect
         style="opacity:1;fill:#9575cd;fill-opacity:1;stroke:none;stroke-width:0.59834403;stroke-linecap:round;stroke-linejoin:round;stroke-miterlimit:4;stroke-dasharray:none;stroke-opacity:1"
         id="rect1064"
         width="8.8504801"
         height="8.8504801"
         x="294.22559"
         y="218.31133"
         rx="4.42524"
         ry="4.42524"
         transform="rotate(30)" />
      <rect
         transform="rotate(-30)"
         style="opacity:1;fill:#9575cd;fill-opacity:1;stroke:none;stroke-width:0.59834403;stroke-linecap:round;stroke-linejoin:round;stroke-miterlimit:4;stroke-dasharray:none;stroke-opacity:1"
         id="rect1066"
         width="8.8504801"
         height="8.8504801"
         x="82.305237"
         y="139.895"
         rx="4.42524"
         ry="4.42524" />
      <rect
         transform="rotate(-30)"
         ry="4.42524"
         rx="4.42524"
         y="440.81131"
         x="82.305237"
         height="8.8504801"
         width="8.8504801"
         id="rect1068"
         style="opacity:1;fill:#9575cd;fill-opacity:1;stroke:none;stroke-width:0.59834403;stroke-linecap:round;stroke-linejoin:round;stroke-miterlimit:4;stroke-dasharray:none;stroke-opacity:1" />
      <rect
         ry="4.42524"
         rx="4.42524"
         y="143.76743"
         x="-76.703651"
         height="8.8504801"
         width="8.8504801"
         id="rect1070"
         style="opacity:1;fill:#9575cd;fill-opacity:1;stroke:none;stroke-width:0.59834403;stroke-linecap:round;stroke-linejoin:round;stroke-miterlimit:4;stroke-dasharray:none;stroke-opacity:1"
         transform="rotate(-60)" />
      <rect
         style="opacity:1;fill:#9575cd;fill-opacity:1;stroke:none;stroke-width:0.59834403;stroke-linecap:round;stroke-linejoin:round;stroke-miterlimit:4;stroke-dasharray:none;stroke-opacity:1"
         id="rect1072"
         width="8.8504801"
         height="8.8504801"
         x="-76.703651"
         y="444.68372"
         rx="4.42524"
         ry="4.42524"
         transform="rotate(-60)" />
    </g>
  </g>
  <g
     inkscape:groupmode="layer"
     id="layer1"
     style="display:none"
     inkscape:label="layer1"
     transform="translate(-1798.1356,376.7415)" />
  <g
     inkscape:groupmode="layer"
     id="layer2"
     style="display:inline"
     inkscape:label="glow"
     transform="translate(-1798.1356,376.7415)" />
  <g
     id="HandCenterScrew"
     inkscape:transform-center-y="-0.0010335287"
     transform="matrix(3.7795276,0,0,3.7795276,30.554477,-643.28761)">
    <rect
       ry="2.6458442"
       rx="2.6458442"
       y="233.5"
       x="55.562489"
       height="5.2916884"
       width="5.2916884"
       id="1"
       style="opacity:1;fill:#f5f5f5;fill-opacity:1;stroke:none;stroke-width:6.00000143;stroke-linecap:round;stroke-linejoin:round;stroke-miterlimit:4;stroke-dasharray:none;stroke-opacity:1" />
    <rect
       style="opacity:1;fill:#f5f5f5;fill-opacity:1;stroke:none;stroke-width:4.00000238;stroke-linecap:round;stroke-linejoin:round;stroke-miterlimit:4;stroke-dasharray:none;stroke-opacity:1"
       id="rect1264"
       width="2.6458423"
       height="2.6458538"
       x="56.88541"
       y="234.82292"
       rx="1.3229212"
       ry="1.3229226" />
  </g>
  <rect
     id="hint-hands-shadow-offset-to-south"
     style="opacity:1;fill:#42a5f5;fill-opacity:1;stroke:none;stroke-width:1.6201905"
     width="6.9999833"
     height="3.0000267"
     x="295.55447"
     y="296.23209" />
  <g
     id="SecondHand"
     inkscape:transform-center-y="21.166392"
     transform="matrix(3.7795276,0,0,3.7795276,-317.70468,-642.51968)">
    <rect
       y="233.5"
       x="43.65625"
       height="47.625"
       width="5.2916641"
       id="rect902"
       style="opacity:1;fill:#000000;fill-opacity:0;stroke:none;stroke-width:7.00648785;stroke-linecap:round;stroke-linejoin:round;stroke-miterlimit:4;stroke-dasharray:none;stroke-opacity:1" />
    <rect
       style="opacity:1;fill:#9575cd;fill-opacity:1;stroke:none;stroke-width:7.07104492;stroke-linecap:round;stroke-linejoin:round;stroke-miterlimit:4;stroke-dasharray:none;stroke-opacity:1"
       id="3"
       width="0.52916718"
       height="35.718754"
       x="46.037498"
       y="236.14583"
       rx="0"
       ry="0" />
  </g>
  <g
     id="HourHand">
    <rect
       style="opacity:1;fill:#000000;fill-opacity:0;stroke:none;stroke-width:34.35408401;stroke-linecap:round;stroke-linejoin:round;stroke-miterlimit:4;stroke-dasharray:none;stroke-opacity:1"
       id="rect996"
       width="30.000002"
       height="154.99995"
       x="-190.00002"
       y="240" />
    <rect
       y="250"
       x="-179"
       height="118"
       width="8"
       id="rect4831"
       style="opacity:1;fill:#d4d4d4;fill-opacity:1;stroke:none;stroke-width:10.00063038;stroke-linecap:round;stroke-linejoin:round;stroke-miterlimit:4;stroke-dasharray:none;stroke-opacity:1" />
  </g>
  <g
     id="MinuteHand"
     transform="translate(212)">
    <rect
       y="240"
       x="-334"
       height="160.00002"
       width="28.000002"
       id="rect4838"
       style="opacity:1;fill:#000000;fill-opacity:0;stroke:none;stroke-width:34.35408401;stroke-linecap:round;stroke-linejoin:round;stroke-miterlimit:4;stroke-dasharray:none;stroke-opacity:1" />
    <rect
       style="opacity:1;fill:#d4d4d4;fill-opacity:1;stroke:none;stroke-width:10.00063038;stroke-linecap:round;stroke-linejoin:round;stroke-miterlimit:4;stroke-dasharray:none;stroke-opacity:1"
       id="rect4841"
       width="6"
       height="132.98613"
       x="-323"
       y="252" />
  </g>
  <g
     transform="matrix(3.7795276,0,0,3.7795276,413.29532,-642.51968)"
     inkscape:transform-center-y="21.166392"
     id="SecondHandShadow">
    <rect
       style="opacity:1;fill:#000000;fill-opacity:0;stroke:none;stroke-width:7.00648785;stroke-linecap:round;stroke-linejoin:round;stroke-miterlimit:4;stroke-dasharray:none;stroke-opacity:1"
       id="rect4829"
       width="5.2916641"
       height="47.625"
       x="43.65625"
       y="233.5" />
    <rect
       ry="0"
       rx="0"
       y="236.14583"
       x="46.037498"
       height="35.718754"
       width="0.52916718"
       id="rect4832"
       style="opacity:0.05;fill:#000000;fill-opacity:1;stroke:none;stroke-width:7.07104492;stroke-linecap:round;stroke-linejoin:round;stroke-miterlimit:4;stroke-dasharray:none;stroke-opacity:1" />
  </g>
  <g
     id="HourHandShadow"
     transform="translate(731)">
    <rect
       y="240"
       x="-190.00002"
       height="154.99995"
       width="30.000002"
       id="rect4836"
       style="opacity:1;fill:#000000;fill-opacity:0;stroke:none;stroke-width:34.35408401;stroke-linecap:round;stroke-linejoin:round;stroke-miterlimit:4;stroke-dasharray:none;stroke-opacity:1" />
    <rect
       style="opacity:0.05;fill:#000000;fill-opacity:1;stroke:none;stroke-width:10.00063038;stroke-linecap:round;stroke-linejoin:round;stroke-miterlimit:4;stroke-dasharray:none;stroke-opacity:1"
       id="rect4839"
       width="8"
       height="118"
       x="-179"
       y="250" />
  </g>
  <g
     transform="translate(943)"
     id="MinuteHandShadow">
    <rect
       style="opacity:1;fill:#000000;fill-opacity:0;stroke:none;stroke-width:34.35408401;stroke-linecap:round;stroke-linejoin:round;stroke-miterlimit:4;stroke-dasharray:none;stroke-opacity:1"
       id="rect4843"
       width="28.000002"
       height="160.00002"
       x="-334"
       y="240" />
    <rect
       y="252"
       x="-323"
       height="132.98613"
       width="6"
       id="rect4845"
       style="opacity:0.05;fill:#000000;fill-opacity:1;stroke:none;stroke-width:10.00063038;stroke-linecap:round;stroke-linejoin:round;stroke-miterlimit:4;stroke-dasharray:none;stroke-opacity:1" />
  </g>
</svg>
