<?xml version="1.0" encoding="UTF-8" standalone="no"?>
<svg
   xmlns:dc="http://purl.org/dc/elements/1.1/"
   xmlns:cc="http://creativecommons.org/ns#"
   xmlns:rdf="http://www.w3.org/1999/02/22-rdf-syntax-ns#"
   xmlns:svg="http://www.w3.org/2000/svg"
   xmlns="http://www.w3.org/2000/svg"
   xmlns:sodipodi="http://sodipodi.sourceforge.net/DTD/sodipodi-0.dtd"
   xmlns:inkscape="http://www.inkscape.org/namespaces/inkscape"
   width="126"
   height="54"
   viewBox="0 0 126 54"
   version="1.1"
   id="svg8"
   sodipodi:docname="configuration-icons.svg"
   inkscape:version="0.92.4 5da689c313, 2019-01-14">
  <metadata
     id="metadata14">
    <rdf:RDF>
      <cc:Work
         rdf:about="">
        <dc:format>image/svg+xml</dc:format>
        <dc:type
           rdf:resource="http://purl.org/dc/dcmitype/StillImage" />
        <dc:title />
      </cc:Work>
    </rdf:RDF>
  </metadata>
  <defs
     id="defs12">
    <style
       id="current-color-scheme-7"
       type="text/css">
   .ColorScheme-Text { color:#424242; } .ColorScheme-Highlight { color:#eeeeee; }
  </style>
    <style
       id="current-color-scheme-9"
       type="text/css">
   .ColorScheme-Text { color:#424242; } .ColorScheme-Highlight { color:#eeeeee; }
  </style>
    <style
       id="current-color-scheme-93"
       type="text/css">
   .ColorScheme-Text { color:#424242; } .ColorScheme-Highlight { color:#eeeeee; }
  </style>
    <style
       id="current-color-scheme-6"
       type="text/css">
   .ColorScheme-Text { color:#424242; } .ColorScheme-Highlight { color:#eeeeee; }
  </style>
    <style
       id="style7"
       type="text/css">
   .ColorScheme-Text { color:#3f3f3f; } .ColorScheme-Highlight { color:#eeeeee; }
  </style>
    <style
       id="current-color-scheme-2"
       type="text/css">
   .ColorScheme-Text { color:#424242; } .ColorScheme-Highlight { color:#eeeeee; }
  </style>
    <style
       id="current-color-scheme-22"
       type="text/css">
   .ColorScheme-Text { color:#424242; } .ColorScheme-Highlight { color:#eeeeee; }
  </style>
    <style
       id="style7-7"
       type="text/css">
   .ColorScheme-Text { color:#3f3f3f; } .ColorScheme-Highlight { color:#eeeeee; }
  </style>
    <style
       id="current-color-scheme"
       type="text/css">
   .ColorScheme-Text { color:#424242; } .ColorScheme-Highlight { color:#eeeeee; }
  </style>
    <defs
       id="defs990">
      <style
         id="style988"
         type="text/css">
   .ColorScheme-Text { color:#424242; } .ColorScheme-Highlight { color:#eeeeee; }
  </style>
    </defs>
    <defs
       id="defs996">
      <style
         id="style994"
         type="text/css">
   .ColorScheme-Text { color:#3f3f3f; } .ColorScheme-Highlight { color:#eeeeee; }
  </style>
    </defs>
    <defs
       id="defs3-2">
      <style
         type="text/css"
         id="style890">
   .ColorScheme-Text { color:#424242; } .ColorScheme-Highlight { color:#eeeeee; }
  </style>
    </defs>
    <defs
       id="defs9">
      <style
         type="text/css"
         id="style894">
   .ColorScheme-Text { color:#3f3f3f; } .ColorScheme-Highlight { color:#eeeeee; }
  </style>
    </defs>
    <defs
       id="defs3-20">
      <style
         type="text/css"
         id="style908">
   .ColorScheme-Text { color:#424242; } .ColorScheme-Highlight { color:#eeeeee; }
  </style>
    </defs>
    <defs
       id="defs3-9">
      <style
         type="text/css"
         id="style926">
   .ColorScheme-Text { color:#424242; } .ColorScheme-Highlight { color:#eeeeee; }
  </style>
    </defs>
    <defs
       id="defs9-9">
      <style
         type="text/css"
         id="style930">
   .ColorScheme-Text { color:#3f3f3f; } .ColorScheme-Highlight { color:#eeeeee; }
  </style>
    </defs>
    <defs
       id="defs1012">
      <style
         id="style1010"
         type="text/css">
   .ColorScheme-Text { color:#424242; } .ColorScheme-Highlight { color:#eeeeee; }
  </style>
    </defs>
    <defs
       id="defs1018">
      <style
         id="style1016"
         type="text/css">
   .ColorScheme-Text { color:#3f3f3f; } .ColorScheme-Highlight { color:#eeeeee; }
  </style>
    </defs>
    <defs
       id="defs1048">
      <style
         id="style1046"
         type="text/css">
   .ColorScheme-Text { color:#424242; } .ColorScheme-Highlight { color:#eeeeee; }
  </style>
    </defs>
    <defs
       id="defs1034">
      <style
         id="style1032"
         type="text/css">
   .ColorScheme-Text { color:#424242; } .ColorScheme-Highlight { color:#eeeeee; }
  </style>
    </defs>
    <defs
       id="defs1040">
      <style
         id="style1038"
         type="text/css">
   .ColorScheme-Text { color:#3f3f3f; } .ColorScheme-Highlight { color:#eeeeee; }
  </style>
    </defs>
    <defs
       id="defs3">
      <style
         type="text/css"
         id="style969">
   .ColorScheme-Text { color:#424242; } .ColorScheme-Highlight { color:#eeeeee; }
  </style>
    </defs>
    <defs
       id="defs976">
      <style
         id="style974"
         type="text/css">
   .ColorScheme-Text { color:#424242; } .ColorScheme-Highlight { color:#eeeeee; }
  </style>
    </defs>
    <defs
       id="defs982">
      <style
         id="style980"
         type="text/css">
   .ColorScheme-Text { color:#3f3f3f; } .ColorScheme-Highlight { color:#eeeeee; }
  </style>
    </defs>
    <style
       id="current-color-scheme-67"
       type="text/css">
   .ColorScheme-Text { color:#424242; } .ColorScheme-Highlight { color:#eeeeee; }
  </style>
    <style
       id="current-color-scheme-62"
       type="text/css">
   .ColorScheme-Text { color:#424242; } .ColorScheme-Highlight { color:#eeeeee; }
  </style>
    <style
       id="current-color-scheme-0"
       type="text/css">
   .ColorScheme-Text { color:#424242; } .ColorScheme-Highlight { color:#eeeeee; }
  </style>
    <style
       id="current-color-scheme-5"
       type="text/css">
   .ColorScheme-Text { color:#424242; } .ColorScheme-Highlight { color:#eeeeee; }
  </style>
    <style
       id="current-color-scheme-1"
       type="text/css">
   .ColorScheme-Text { color:#424242; } .ColorScheme-Highlight { color:#eeeeee; }
  </style>
    <style
       id="current-color-scheme-60"
       type="text/css">
   .ColorScheme-Text { color:#424242; } .ColorScheme-Highlight { color:#eeeeee; }
  </style>
    <defs
       id="defs969">
      <style
         id="style967"
         type="text/css">
   .ColorScheme-Text { color:#424242; } .ColorScheme-Highlight { color:#eeeeee; }
  </style>
    </defs>
    <defs
       id="defs3-27">
      <style
         type="text/css"
         id="style953">
   .ColorScheme-Text { color:#424242; } .ColorScheme-Highlight { color:#eeeeee; }
  </style>
    </defs>
    <defs
       id="defs3-3">
      <style
         type="text/css"
         id="style905">
   .ColorScheme-Text { color:#424242; } .ColorScheme-Highlight { color:#eeeeee; }
  </style>
    </defs>
    <defs
       id="defs3-5">
      <style
         type="text/css"
         id="style929">
   .ColorScheme-Text { color:#424242; } .ColorScheme-Highlight { color:#eeeeee; }
  </style>
    </defs>
    <defs
       id="defs979">
      <style
         id="style977"
         type="text/css">
   .ColorScheme-Text { color:#424242; } .ColorScheme-Highlight { color:#eeeeee; }
  </style>
    </defs>
    <defs
       id="defs1087">
      <style
         type="text/css"
         id="style1085">
   .ColorScheme-Text { color:#424242; } .ColorScheme-Highlight { color:#eeeeee; }
  </style>
    </defs>
    <defs
       id="defs117">
      <style
         type="text/css"
         id="style115">
   .ColorScheme-Text { color:#424242; } .ColorScheme-Highlight { color:#eeeeee; }
  </style>
    </defs>
    <defs
       id="defs3-53">
      <style
         type="text/css"
         id="style1341">
   .ColorScheme-Text { color:#424242; } .ColorScheme-Highlight { color:#eeeeee; }
  </style>
    </defs>
    <defs
       id="defs1357">
      <style
         id="style1355"
         type="text/css">
   .ColorScheme-Text { color:#424242; } .ColorScheme-Highlight { color:#eeeeee; }
  </style>
    </defs>
    <defs
       id="defs1369">
      <style
         id="style1367"
         type="text/css">
   .ColorScheme-Text { color:#424242; } .ColorScheme-Highlight { color:#eeeeee; }
  </style>
    </defs>
    <defs
       id="defs1381">
      <style
         type="text/css"
         id="style1379">
   .ColorScheme-Text { color:#424242; } .ColorScheme-Highlight { color:#eeeeee; }
  </style>
    </defs>
    <defs
       id="defs3-29">
      <style
         type="text/css"
         id="style1404">
   .ColorScheme-Text { color:#424242; } .ColorScheme-Highlight { color:#eeeeee; }
  </style>
    </defs>
    <style
       id="style1207"
       type="text/css">
   .ColorScheme-Text { color:#424242; } .ColorScheme-Highlight { color:#eeeeee; }
  </style>
  </defs>
  <sodipodi:namedview
     pagecolor="#ffffff"
     bordercolor="#666666"
     borderopacity="1"
     objecttolerance="10"
     gridtolerance="10"
     guidetolerance="10"
     inkscape:pageopacity="0"
     inkscape:pageshadow="2"
     inkscape:window-width="1920"
     inkscape:window-height="1023"
     id="namedview10"
     showgrid="false"
     inkscape:zoom="11.313708"
     inkscape:cx="32.667482"
     inkscape:cy="21.405119"
     inkscape:window-x="0"
     inkscape:window-y="28"
     inkscape:window-maximized="1"
     inkscape:current-layer="svg8">
    <inkscape:grid
       type="xygrid"
       id="grid837" />
  </sodipodi:namedview>
  <g
     transform="translate(-0.75,31.75)"
     id="surface1" />
  <g
     transform="matrix(-1,0,0,1,-2,-20)"
     id="menu">
    <rect
       style="fill:#eeeeee;fill-opacity:0;stroke:none;stroke-width:4.09425926;stroke-linecap:round;stroke-linejoin:round;stroke-miterlimit:4;stroke-dasharray:none;stroke-opacity:1"
       id="rect1154"
       width="18"
       height="18"
       x="-20"
       y="20" />
    <g
       id="g1213"
       transform="translate(-22,18)">
      <defs
         id="defs1209">
        <style
           id="style901"
           type="text/css">
   .ColorScheme-Text { color:#424242; } .ColorScheme-Highlight { color:#eeeeee; }
  </style>
      </defs>
      <path
         inkscape:connector-curvature="0"
         style="color:#424242;fill:#eeeeee"
         class="ColorScheme-Text"
         d="M 8,4 C 8.742188,4 9.386719,4.402344 9.730469,5 H 18 V 7 H 9.730469 C 9.386719,7.597656 8.742188,8 8,8 7.257812,8 6.613281,7.597656 6.269531,7 H 4 V 5 H 6.269531 C 6.613281,4.402344 7.257812,4 8,4 Z M 8,5 C 7.445312,5 7,5.445312 7,6 7,6.554688 7.445312,7 8,7 8.554688,7 9,6.554688 9,6 9,5.445312 8.554688,5 8,5 Z m 6,4 c 0.742188,0 1.386719,0.402344 1.730469,1 H 18 v 2 H 15.730469 C 15.386719,12.597656 14.742188,13 14,13 13.257812,13 12.613281,12.597656 12.269531,12 H 4 v -2 h 8.269531 C 12.613281,9.402344 13.257812,9 14,9 Z m 0,1 c -0.554688,0 -1,0.445312 -1,1 0,0.554688 0.445312,1 1,1 0.554688,0 1,-0.445312 1,-1 0,-0.554688 -0.445312,-1 -1,-1 z m -3,4 c 0.742188,0 1.386719,0.402344 1.730469,1 H 18 v 2 H 12.730469 C 12.386719,17.597656 11.742188,18 11,18 10.257812,18 9.613281,17.597656 9.269531,17 H 4 V 15 H 9.269531 C 9.613281,14.402344 10.257812,14 11,14 Z m 0,1 c -0.554688,0 -1,0.445312 -1,1 0,0.554688 0.445312,1 1,1 0.554688,0 1,-0.445312 1,-1 0,-0.554688 -0.445312,-1 -1,-1 z m 0,0"
         id="path1211" />
    </g>
  </g>
  <g
     id="rotate">
    <rect
       transform="scale(-1,1)"
       y="0"
       x="-54"
       height="18"
       width="18"
       id="rect952"
       style="fill:#eeeeee;fill-opacity:0;stroke:none;stroke-width:4.09425926;stroke-linecap:round;stroke-linejoin:round;stroke-miterlimit:4;stroke-dasharray:none;stroke-opacity:1" />
    <path
       inkscape:connector-curvature="0"
       id="path853"
       d="m 47.976562,2 4,3 -4,3 V 6 h -4.5 c -0.02811,0 -0.05409,0.00716 -0.08203,0.00781 L 41.689453,4.3007812 C 42.25012,4.1091096 42.849341,4 43.476562,4 h 4.5 z m -8.085938,3.3300781 1.429688,1.4296875 C 40.89897,7.0914747 40.554619,7.5119354 40.322265,8.0019531 H 38.1875 c 0.29639,-1.0547268 0.896743,-1.9782192 1.703124,-2.671875 z M 51.976562,10 v 6 h -5 v -6 z m -11.949219,0.002 c 0.09546,0.663996 0.373211,1.260413 0.785157,1.748047 l -1.425782,1.425781 C 38.616274,12.318729 38.109363,11.221021 38,10.001953 Z m 2.507813,2.855469 C 42.836346,12.941364 43.147888,13 43.476562,13 h 0.5 1 v 2 h -1 -0.5 c -0.897868,0 -1.741135,-0.217269 -2.488281,-0.595703 z"
       style="fill:#eeeeee;stroke:none;stroke-width:0.19999991px;stroke-linecap:butt;stroke-linejoin:miter;stroke-opacity:1" />
  </g>
  <g
     id="move">
    <rect
       transform="scale(-1,1)"
       y="0"
       x="-72"
       height="18"
       width="18"
       id="rect1001"
       style="fill:#eeeeee;fill-opacity:0;stroke:none;stroke-width:4.09425926;stroke-linecap:round;stroke-linejoin:round;stroke-miterlimit:4;stroke-dasharray:none;stroke-opacity:1" />
    <path
       id="path1023"
       d="M 63 2 L 60 5 L 66 5 L 63 2 z M 59 6 L 56 9 L 59 12 L 59 6 z M 67 6 L 67 12 L 70 9 L 67 6 z M 63 7 C 61.892 7 61 7.892 61 9 C 61 10.108 61.892 11 63 11 C 64.108 11 65 10.108 65 9 C 65 7.892 64.108 7 63 7 z M 60 13 L 63 16 L 66 13 L 60 13 z "
       style="fill:#eeeeee;stroke:none;stroke-width:1px;stroke-linecap:butt;stroke-linejoin:miter;stroke-opacity:1;fill-opacity:1" />
  </g>
  <g
     id="size-vertical"
     transform="translate(72)">
    <rect
       y="2.220446e-16"
       x="-6.6613381e-16"
       height="18"
       width="18"
       id="rect965-3"
       style="fill:#eeeeee;fill-opacity:0;stroke:none;stroke-width:4.09425926;stroke-linecap:round;stroke-linejoin:round;stroke-miterlimit:4;stroke-dasharray:none;stroke-opacity:1" />
    <path
       inkscape:connector-curvature="0"
       id="rect908"
       d="M 9,2 6,6 h 2 v 6 H 6 l 3,4 3,-4 H 10 V 6 h 2 z"
       style="opacity:1;fill:#eeeeee;fill-opacity:1;stroke:none;stroke-width:34.01574707;stroke-linecap:round;stroke-linejoin:round;stroke-miterlimit:4;stroke-dasharray:none;stroke-opacity:1" />
  </g>
  <g
     transform="rotate(90,54,54)"
     id="size-horizontal">
    <rect
       style="fill:#eeeeee;fill-opacity:0;stroke:none;stroke-width:4.09425926;stroke-linecap:round;stroke-linejoin:round;stroke-miterlimit:4;stroke-dasharray:none;stroke-opacity:1"
       id="rect1054"
       width="18"
       height="18"
       x="-6.6613381e-16"
       y="2.220446e-16" />
    <path
       style="opacity:1;fill:#eeeeee;fill-opacity:1;stroke:none;stroke-width:34.01574707;stroke-linecap:round;stroke-linejoin:round;stroke-miterlimit:4;stroke-dasharray:none;stroke-opacity:1"
       d="M 9,2 6,6 h 2 v 6 H 6 l 3,4 3,-4 H 10 V 6 h 2 z"
       id="path1056"
       inkscape:connector-curvature="0" />
  </g>
  <g
     id="size-diagonal-tr2bl">
    <rect
       transform="rotate(90)"
       y="-126"
       x="-5.6286339e-17"
       height="18"
       width="18"
       id="rect1060"
       style="fill:#eeeeee;fill-opacity:0;stroke:none;stroke-width:4.09425926;stroke-linecap:round;stroke-linejoin:round;stroke-miterlimit:4;stroke-dasharray:none;stroke-opacity:1" />
    <path
       id="path1070"
       d="M 110 2 L 110 4 L 110 9 L 112 9 L 112 4 L 117 4 L 117 2 L 112 2 L 110 2 z M 119 2 L 124 7 L 124 2 L 119 2 z M 122 9 L 122 14 L 117 14 L 117 16 L 122 16 L 124 16 L 124 14 L 124 9 L 122 9 z M 110 11 L 110 16 L 115 16 L 110 11 z "
       style="fill:#eeeeee;fill-opacity:1;stroke:none;stroke-width:1px;stroke-linecap:butt;stroke-linejoin:miter;stroke-opacity:1" />
  </g>
  <g
     id="size-diagonal-tl2br"
     transform="matrix(-1,0,0,1,126,18)">
    <rect
       style="fill:#eeeeee;fill-opacity:0;stroke:none;stroke-width:4.09425926;stroke-linecap:round;stroke-linejoin:round;stroke-miterlimit:4;stroke-dasharray:none;stroke-opacity:1"
       id="rect1092"
       width="18"
       height="18"
       x="-5.6286339e-17"
       y="-126"
       transform="rotate(90)" />
    <path
       style="fill:#eeeeee;fill-opacity:1;stroke:none;stroke-width:1px;stroke-linecap:butt;stroke-linejoin:miter;stroke-opacity:1"
       d="m 110,2 v 2 5 h 2 V 4 h 5 V 2 h -5 z m 9,0 5,5 V 2 Z m 3,7 v 5 h -5 v 2 h 5 2 V 14 9 Z m -12,2 v 5 h 5 z"
       id="path1094"
       inkscape:connector-curvature="0" />
  </g>
  <g
     transform="translate(-90,18)"
     id="maximize">
    <rect
       transform="rotate(90)"
       y="-126"
       x="-5.6286339e-17"
       height="18"
       width="18"
       id="rect1098"
       style="fill:#eeeeee;fill-opacity:0;stroke:none;stroke-width:4.09425926;stroke-linecap:round;stroke-linejoin:round;stroke-miterlimit:4;stroke-dasharray:none;stroke-opacity:1" />
    <path
       style="fill:#eeeeee;fill-opacity:1;stroke:none;stroke-width:1px;stroke-linecap:butt;stroke-linejoin:miter;stroke-opacity:1"
       d="M 20 20 L 20 34 L 34 34 L 34 27 L 32 27 L 32 32 L 22 32 L 22 22 L 27 22 L 27 20 L 20 20 z M 29 20 L 30.792969 21.792969 L 25.636719 26.949219 L 27.050781 28.363281 L 32.207031 23.207031 L 34 25 L 34 20 L 29 20 z "
       transform="translate(90,-18)"
       id="path1100" />
  </g>
  <g
     id="unmaximize">
    <rect
       style="fill:#eeeeee;fill-opacity:0;stroke:none;stroke-width:4.09425926;stroke-linecap:round;stroke-linejoin:round;stroke-miterlimit:4;stroke-dasharray:none;stroke-opacity:1"
       id="rect1112"
       width="18"
       height="18"
       x="18"
       y="-54"
       transform="rotate(90)" />
    <path
       id="path1122"
       d="M 38 20 L 38 34 L 52 34 L 52 27 L 50 27 L 50 32 L 40 32 L 40 22 L 45 22 L 45 20 L 38 20 z M 50.583984 20.001953 L 45.792969 24.792969 L 44 23 L 44 28 L 49 28 L 47.207031 26.207031 L 51.998047 21.416016 L 50.583984 20.001953 z "
       style="fill:#eeeeee;fill-opacity:1;stroke:none;stroke-width:1px;stroke-linecap:butt;stroke-linejoin:miter;stroke-opacity:1" />
  </g>
  <g
     id="status">
    <rect
       transform="rotate(90)"
       y="-72"
       x="18"
       height="18"
       width="18"
       id="rect1129"
       style="fill:#eeeeee;fill-opacity:0;stroke:none;stroke-width:4.09425926;stroke-linecap:round;stroke-linejoin:round;stroke-miterlimit:4;stroke-dasharray:none;stroke-opacity:1" />
    <path
       id="rect1137"
       d="M 56 20 L 56 34 L 70 34 L 70 20 L 56 20 z M 58 22 L 68 22 L 68 26.001953 L 66.308594 26.001953 L 65.039062 23.464844 L 61.978516 28.566406 L 60.267578 26.001953 L 58 26.001953 L 58 22 z M 64.960938 25.541016 L 65.691406 27.001953 L 68 27.001953 L 68 32 L 58 32 L 58 27.001953 L 59.732422 27.001953 L 62.021484 30.4375 L 64.960938 25.541016 z "
       style="opacity:1;fill:#eeeeee;fill-opacity:1;stroke:none;stroke-width:45.35433197;stroke-linecap:round;stroke-linejoin:round;stroke-miterlimit:4;stroke-dasharray:none;stroke-opacity:1" />
  </g>
  <g
     id="return-to-source">
    <rect
       style="fill:#eeeeee;fill-opacity:0;stroke:none;stroke-width:4.09425926;stroke-linecap:round;stroke-linejoin:round;stroke-miterlimit:4;stroke-dasharray:none;stroke-opacity:1"
       id="rect1153"
       width="18"
       height="18"
       x="-90"
       y="18"
       transform="scale(-1,1)" />
    <path
       style="fill:#eeeeee;fill-opacity:1;stroke:none;stroke-width:1px;stroke-linecap:butt;stroke-linejoin:miter;stroke-opacity:1"
       d="M 77 20 L 81 24 L 85 20 L 77 20 z M 74 26 L 74 28 L 76 28 L 76 26 L 74 26 z M 78 26 L 78 28 L 80 28 L 80 26 L 78 26 z M 82 26 L 82 28 L 84 28 L 84 26 L 82 26 z M 86 26 L 86 28 L 88 28 L 88 26 L 86 26 z M 81 30 L 77 34 L 85 34 L 81 30 z "
       id="path1169" />
  </g>
  <g
     id="collapse">
    <rect
       transform="scale(-1,1)"
       y="18"
       x="-108"
       height="18"
       width="18"
       id="rect1184"
       style="fill:#eeeeee;fill-opacity:0;stroke:none;stroke-width:4.09425926;stroke-linecap:round;stroke-linejoin:round;stroke-miterlimit:4;stroke-dasharray:none;stroke-opacity:1" />
    <path
       id="path1186"
       d="M 95 20 L 99 24 L 103 20 L 95 20 z M 92 26 L 92 28 L 106 28 L 106 26 L 92 26 z M 99 30 L 95 34 L 103 34 L 99 30 z "
       style="fill:#eeeeee;fill-opacity:1;stroke:none;stroke-width:1px;stroke-linecap:butt;stroke-linejoin:miter;stroke-opacity:1" />
  </g>
  <g
     id="restore">
    <rect
       style="fill:#eeeeee;fill-opacity:0;stroke:none;stroke-width:4.09425926;stroke-linecap:round;stroke-linejoin:round;stroke-miterlimit:4;stroke-dasharray:none;stroke-opacity:1"
       id="rect1208"
       width="18"
       height="18"
       x="-126"
       y="18"
       transform="scale(-1,1)" />
    <path
       inkscape:connector-curvature="0"
       id="path1220"
       d="m 113,24 4,-4 4,4 z"
       style="fill:#eeeeee;fill-opacity:1;stroke:none;stroke-width:1px;stroke-linecap:butt;stroke-linejoin:miter;stroke-opacity:1" />
    <path
       id="path1218"
       d="m 110,26 v 2 h 14 v -2 z"
       style="fill:#eeeeee;fill-opacity:1;stroke:none;stroke-width:1px;stroke-linecap:butt;stroke-linejoin:miter;stroke-opacity:1" />
    <path
       inkscape:connector-curvature="0"
       id="path1210"
       d="m 117,34 -4,-4 h 8 z"
       style="fill:#eeeeee;fill-opacity:1;stroke:none;stroke-width:1px;stroke-linecap:butt;stroke-linejoin:miter;stroke-opacity:1" />
  </g>
  <g
     id="delete"
     transform="translate(17.999957)">
    <rect
       transform="matrix(0,1,1,0,0,0)"
       y="0"
       x="36"
       height="18"
       width="18"
       id="rect1228"
       style="fill:#eeeeee;fill-opacity:0;stroke:none;stroke-width:4.09425926;stroke-linecap:round;stroke-linejoin:round;stroke-miterlimit:4;stroke-dasharray:none;stroke-opacity:1" />
    <path
       sodipodi:nodetypes="ccccccccccccccccccccccc"
       inkscape:connector-curvature="0"
       id="rect818"
       d="m 7.9999566,37.999771 v 1.000022 H 2.9998488 v 2.000043 H 3.9998703 V 52.000073 H 14.000086 V 40.999836 h 1.000022 V 38.999793 H 9.9999998 v -1.000022 z m -2.0000429,4.000086 2.0000431,-3e-5 V 50 l -2.0000431,3e-5 z M 10,41.999827 l 2.000043,3e-5 V 50.00003 L 10,50 Z"
       style="fill:#ef5350;fill-opacity:1;stroke:none;stroke-width:8.00521088;stroke-linecap:round;stroke-linejoin:round;stroke-miterlimit:4;stroke-dasharray:none;stroke-dashoffset:200.12594604;stroke-opacity:1;paint-order:fill markers stroke" />
  </g>
  <g
     id="help">
    <path
       id="rect954"
       d="m 9,38 c -3.8780839,0 -7.000151,3.122067 -7.000151,7.000151 0,3.878084 3.1220671,7.000151 7.000151,7.000151 3.878084,0 7.000151,-3.122067 7.000151,-7.000151 C 16.000151,41.122067 12.878084,38 9,38 Z m 0,2.000043 c 2.770064,0 5.000108,2.230044 5.000108,5.000108 0,2.770064 -2.230044,5.000108 -5.000108,5.000108 -2.7700643,0 -5.0001081,-2.230044 -5.0001081,-5.000108 0,-2.770064 2.2300438,-5.000108 5.0001081,-5.000108 z m 0,1.000022 c -0.5540117,0 -1.0000215,0.446009 -1.0000215,1.000021 0,0.554013 0.4460098,1.000022 1.0000215,1.000022 0.5540117,0 1.000022,-0.446009 1.000022,-1.000022 0,-0.554012 -0.4460103,-1.000021 -1.000022,-1.000021 z m -1.0000215,3.000064 v 5.000108 h 2.0000435 v -5.000108 z"
       style="fill:#eeeeee;fill-opacity:1;stroke:none;stroke-width:8.00521183;stroke-linecap:round;stroke-linejoin:round;stroke-miterlimit:4;stroke-dasharray:none;stroke-dashoffset:200.12594604;stroke-opacity:1;paint-order:fill markers stroke"
       inkscape:connector-curvature="0" />
    <rect
       transform="matrix(0,1,1,0,0,0)"
       y="0"
       x="36"
       height="18"
       width="18"
       id="rect1252"
       style="fill:#eeeeee;fill-opacity:0;stroke:none;stroke-width:4.09425926;stroke-linecap:round;stroke-linejoin:round;stroke-miterlimit:4;stroke-dasharray:none;stroke-opacity:1" />
  </g>
  <g
     id="add"
     transform="translate(36,36)">
    <rect
       y="2.220446e-16"
       x="-6.6613381e-16"
       height="18"
       width="18"
       id="rect965-6"
       style="fill:#eeeeee;fill-opacity:0;stroke:none;stroke-width:4.09425926;stroke-linecap:round;stroke-linejoin:round;stroke-miterlimit:4;stroke-dasharray:none;stroke-opacity:1" />
    <path
       inkscape:connector-curvature="0"
       id="rect893"
       d="M 8,2 V 8 H 2 v 2 h 6 v 6 h 2 v -6 h 6 V 8 H 10 V 2 Z"
       style="opacity:1;fill:#eeeeee;fill-opacity:1;stroke:none;stroke-width:34.01574707;stroke-linecap:round;stroke-linejoin:round;stroke-miterlimit:4;stroke-dasharray:none;stroke-opacity:1" />
  </g>
  <g
     transform="translate(54,36)"
     id="remove">
    <rect
       style="fill:#eeeeee;fill-opacity:0;stroke:none;stroke-width:4.09425926;stroke-linecap:round;stroke-linejoin:round;stroke-miterlimit:4;stroke-dasharray:none;stroke-opacity:1"
       id="rect1292"
       width="18"
       height="18"
       x="-6.6613381e-16"
       y="2.220446e-16" />
    <path
       style="opacity:1;fill:#eeeeee;fill-opacity:1;stroke:none;stroke-width:34.01574707;stroke-linecap:round;stroke-linejoin:round;stroke-miterlimit:4;stroke-dasharray:none;stroke-opacity:1"
       d="M 56 44 L 56 46 L 62 46 L 64 46 L 70 46 L 70 44 L 64 44 L 62 44 L 56 44 z "
       transform="translate(-54,-36)"
       id="path1294" />
  </g>
  <g
     id="filter">
    <path
       id="rect820"
       d="M 74.067391,37.999542 74.933818,39.499596 80,48.267067 v 2.732905 L 82.000069,52 v -3.732148 l 5.932228,-10.26831 z M 77.533904,40 h 6.931872 l -3.466913,6.000197 z"
       style="fill:#eeeeee;fill-opacity:1;stroke:none;stroke-width:8.00530243;stroke-linecap:round;stroke-linejoin:round;stroke-miterlimit:4;stroke-dasharray:none;stroke-dashoffset:200.12594604;stroke-opacity:1;paint-order:fill markers stroke"
       inkscape:connector-curvature="0" />
    <rect
       y="36"
       x="72"
       height="18"
       width="18"
       id="rect1310"
       style="fill:#eeeeee;fill-opacity:0;stroke:none;stroke-width:4.09425926;stroke-linecap:round;stroke-linejoin:round;stroke-miterlimit:4;stroke-dasharray:none;stroke-opacity:1" />
  </g>
  <g
     id="close"
     transform="translate(90,36)">
    <rect
       y="2.220446e-16"
       x="-6.6613381e-16"
       height="18"
       width="18"
       id="rect965-7"
       style="fill:#eeeeee;fill-opacity:0;stroke:none;stroke-width:4.09425926;stroke-linecap:round;stroke-linejoin:round;stroke-miterlimit:4;stroke-dasharray:none;stroke-opacity:1" />
    <path
       inkscape:connector-curvature="0"
       id="rect980"
       d="M 4.0507812,2.6367188 2.6367188,4.0507812 7.5859375,9 2.6367188,13.949219 4.0507812,15.363281 9,10.414062 13.949219,15.363281 15.363281,13.949219 10.414062,9 15.363281,4.0507812 13.949219,2.6367188 9,7.5859375 Z"
       style="opacity:1;fill:#ef5350;fill-opacity:1;stroke:none;stroke-width:32.07035446;stroke-linecap:round;stroke-linejoin:round;stroke-miterlimit:4;stroke-dasharray:none;stroke-opacity:1" />
  </g>
  <g
     id="configure"
     transform="translate(38,-20)">
    <rect
       y="20"
       x="-20"
       height="18"
       width="18"
       id="rect953"
       style="fill:#eeeeee;fill-opacity:0;stroke:none;stroke-width:4.09425926;stroke-linecap:round;stroke-linejoin:round;stroke-miterlimit:4;stroke-dasharray:none;stroke-opacity:1" />
    <g
       transform="translate(-22,18)"
       id="g961">
      <defs
         id="defs957">
        <style
           type="text/css"
           id="style955">
   .ColorScheme-Text { color:#424242; } .ColorScheme-Highlight { color:#eeeeee; }
  </style>
      </defs>
      <path
         id="path959"
         d="M 8,4 C 8.742188,4 9.386719,4.402344 9.730469,5 H 18 V 7 H 9.730469 C 9.386719,7.597656 8.742188,8 8,8 7.257812,8 6.613281,7.597656 6.269531,7 H 4 V 5 H 6.269531 C 6.613281,4.402344 7.257812,4 8,4 Z M 8,5 C 7.445312,5 7,5.445312 7,6 7,6.554688 7.445312,7 8,7 8.554688,7 9,6.554688 9,6 9,5.445312 8.554688,5 8,5 Z m 6,4 c 0.742188,0 1.386719,0.402344 1.730469,1 H 18 v 2 H 15.730469 C 15.386719,12.597656 14.742188,13 14,13 13.257812,13 12.613281,12.597656 12.269531,12 H 4 v -2 h 8.269531 C 12.613281,9.402344 13.257812,9 14,9 Z m 0,1 c -0.554688,0 -1,0.445312 -1,1 0,0.554688 0.445312,1 1,1 0.554688,0 1,-0.445312 1,-1 0,-0.554688 -0.445312,-1 -1,-1 z m -3,4 c 0.742188,0 1.386719,0.402344 1.730469,1 H 18 v 2 H 12.730469 C 12.386719,17.597656 11.742188,18 11,18 10.257812,18 9.613281,17.597656 9.269531,17 H 4 V 15 H 9.269531 C 9.613281,14.402344 10.257812,14 11,14 Z m 0,1 c -0.554688,0 -1,0.445312 -1,1 0,0.554688 0.445312,1 1,1 0.554688,0 1,-0.445312 1,-1 0,-0.554688 -0.445312,-1 -1,-1 z m 0,0"
         class="ColorScheme-Text"
         style="color:#424242;fill:#eeeeee"
         inkscape:connector-curvature="0" />
    </g>
  </g>
</svg>
