<?xml version="1.0" encoding="UTF-8" standalone="no"?>
<svg
   xmlns:osb="http://www.openswatchbook.org/uri/2009/osb"
   xmlns:dc="http://purl.org/dc/elements/1.1/"
   xmlns:cc="http://creativecommons.org/ns#"
   xmlns:rdf="http://www.w3.org/1999/02/22-rdf-syntax-ns#"
   xmlns:svg="http://www.w3.org/2000/svg"
   xmlns="http://www.w3.org/2000/svg"
   xmlns:xlink="http://www.w3.org/1999/xlink"
   xmlns:sodipodi="http://sodipodi.sourceforge.net/DTD/sodipodi-0.dtd"
   xmlns:inkscape="http://www.inkscape.org/namespaces/inkscape"
   id="svg2"
   width="128"
   height="128"
   version="1"
   sodipodi:docname="containment-controls.svg"
   inkscape:version="0.92.4 5da689c313, 2019-01-14">
  <metadata
     id="metadata92">
    <rdf:RDF>
      <cc:Work
         rdf:about="">
        <dc:format>image/svg+xml</dc:format>
        <dc:type
           rdf:resource="http://purl.org/dc/dcmitype/StillImage" />
      </cc:Work>
    </rdf:RDF>
  </metadata>
  <sodipodi:namedview
     pagecolor="#ffffff"
     bordercolor="#666666"
     borderopacity="1"
     objecttolerance="10"
     gridtolerance="10"
     guidetolerance="10"
     inkscape:pageopacity="0"
     inkscape:pageshadow="2"
     inkscape:window-width="1920"
     inkscape:window-height="1023"
     id="namedview90"
     showgrid="false"
     inkscape:zoom="5.2149125"
     inkscape:cx="85.277099"
     inkscape:cy="5.418533"
     inkscape:window-x="0"
     inkscape:window-y="28"
     inkscape:window-maximized="1"
     inkscape:current-layer="svg2">
    <inkscape:grid
       type="xygrid"
       id="grid899" />
  </sodipodi:namedview>
  <defs
     id="defs4">
    <linearGradient
       id="linearGradient908">
      <stop
         id="stop904"
         style="stop-color:#424242;stop-opacity:1"
         offset="0" />
      <stop
         id="stop906"
         style="stop-color:#616161;stop-opacity:1"
         offset="1" />
    </linearGradient>
    <linearGradient
       id="linearGradient907">
      <stop
         offset="0"
         style="stop-color:#5e35b1;stop-opacity:1"
         id="stop903" />
      <stop
         offset="1"
         style="stop-color:#7e57c2;stop-opacity:1"
         id="stop905" />
    </linearGradient>
    <linearGradient
       id="linearGradient4303">
      <stop
         id="stop4305"
         style="stop-color:#00626d;stop-opacity:1"
         offset="0" />
      <stop
         id="stop4307"
         style="stop-color:#00bcd4;stop-opacity:1"
         offset="1" />
    </linearGradient>
    <linearGradient
       id="linearGradient4291">
      <stop
         id="stop4293"
         style="stop-color:#007584;stop-opacity:1"
         offset="0" />
      <stop
         id="stop4295"
         style="stop-color:#00bcd4;stop-opacity:1"
         offset="1" />
    </linearGradient>
    <linearGradient
       id="linearGradient6476"
       osb:paint="solid">
      <stop
         id="stop6478"
         style="stop-color:#ffffff;stop-opacity:1;"
         offset="0" />
    </linearGradient>
    <linearGradient
       id="linearGradient6476-1"
       osb:paint="solid">
      <stop
         id="stop6478-5"
         style="stop-color:#ffffff;stop-opacity:1;"
         offset="0" />
    </linearGradient>
    <linearGradient
       id="linearGradient4297"
       x1="266"
       x2="266"
       y1="108"
       y2="112"
       gradientUnits="userSpaceOnUse"
       xlink:href="#linearGradient4291" />
    <linearGradient
       id="linearGradient4301"
       x1="115"
       x2="115"
       y1="103"
       y2="107"
       gradientUnits="userSpaceOnUse"
       xlink:href="#linearGradient908" />
    <linearGradient
       id="linearGradient4315"
       x1="266"
       x2="266"
       y1="121"
       y2="118"
       gradientUnits="userSpaceOnUse"
       xlink:href="#linearGradient4291" />
    <linearGradient
       id="linearGradient4317"
       x1="101"
       x2="101"
       y1="118"
       y2="114"
       gradientUnits="userSpaceOnUse"
       xlink:href="#linearGradient908" />
    <linearGradient
       id="linearGradient4325"
       x1="268"
       x2="268"
       y1="112"
       y2="108"
       gradientUnits="userSpaceOnUse"
       xlink:href="#linearGradient4303" />
    <linearGradient
       id="linearGradient4333"
       x1="91"
       x2="95"
       y1="80.5"
       y2="80.5"
       gradientUnits="userSpaceOnUse"
       xlink:href="#linearGradient908" />
    <linearGradient
       id="linearGradient4341"
       x1="106"
       x2="102"
       y1="67"
       y2="67"
       gradientUnits="userSpaceOnUse"
       xlink:href="#linearGradient908" />
  </defs>
  <rect
     id="hint-stretch-borders"
     style="opacity:0.65;fill:#023812;fill-opacity:1;fill-rule:nonzero;stroke:none;stroke-width:1;stroke-linecap:round;stroke-linejoin:round;stroke-miterlimit:4;stroke-dasharray:none;stroke-dashoffset:0;stroke-opacity:1"
     width="5.221"
     height="5.403"
     x="-10"
     y="0" />
  <g
     id="north-center"
     transform="translate(-152,-4)">
    <path
       id="path3269"
       style="opacity:1;fill:#616161;fill-opacity:1;fill-rule:nonzero;stroke:none;stroke-width:1;stroke-linecap:round;stroke-linejoin:round;stroke-miterlimit:4;stroke-dashoffset:0;stroke-opacity:1"
       d="m 264,112 0,5 5,0 0,-5 -5,0 z" />
  </g>
  <g
     id="north-top"
     style="fill-opacity:1;fill:url(#linearGradient4297)"
     transform="translate(-152,-5)">
    <path
       id="path3273"
       style="opacity:1;fill:#616161;fill-opacity:1;fill-rule:nonzero;stroke:none;stroke-width:1;stroke-linecap:round;stroke-linejoin:round;stroke-miterlimit:4;stroke-dashoffset:0;stroke-opacity:1"
       d="m 112,103 0,1 0,1 0,2 5,0 0,-2 0,-1 0,-1 -5,0 z"
       transform="translate(152,5)" />
  </g>
  <g
     id="north-bottom"
     transform="translate(-152,-3)">
    <path
       id="path3283"
       style="opacity:1;fill:#616161;fill-opacity:1;fill-rule:nonzero;stroke:none;stroke-width:1;stroke-linecap:round;stroke-linejoin:round;stroke-miterlimit:4;stroke-dashoffset:0;stroke-opacity:1"
       d="m 112,114 0,3 0,1 5,0 0,-1 0,-3 -5,0 z"
       transform="translate(152,3)" />
  </g>
  <g
     id="south-center"
     transform="translate(-165,-4)">
    <path
       id="path4084"
       style="opacity:1;fill:#616161;fill-opacity:1;fill-rule:nonzero;stroke:none"
       d="m 264,112 0,5 5,0 0,-5 -5,0 z" />
  </g>
  <g
     id="south-top"
     transform="translate(-165,-5)">
    <path
       id="path4088"
       style="opacity:1;fill:#616161;fill-opacity:1;fill-rule:nonzero;stroke:none"
       d="m 99,103 0,1 0,1 0,2 5,0 0,-2 0,-1 0,-1 -5,0 z"
       transform="translate(165,5)" />
  </g>
  <g
     id="south-bottom"
     style="fill-opacity:1;fill:url(#linearGradient4315)"
     transform="translate(-165,-3)">
    <path
       id="path4098"
       style="opacity:1;fill:#616161;fill-opacity:1;fill-rule:nonzero;stroke:none"
       d="m 99,114 0,3 0,1 5,0 0,-1 0,-3 -5,0 z"
       transform="translate(165,3)" />
  </g>
  <g
     id="east-center"
     transform="matrix(0,-1,1,0,-16,334)">
    <path
       id="path4106"
       style="opacity:1;fill:#616161;fill-opacity:1;fill-rule:nonzero;stroke:none"
       d="m 264,112 0,5 5,0 0,-5 -5,0 z" />
  </g>
  <g
     id="east-left"
     transform="matrix(0,-1,1,0,-17,334)">
    <path
       id="path4110"
       style="opacity:1;fill:#616161;fill-opacity:1;fill-rule:nonzero;stroke:none"
       d="m 91,65 0,5 1,0 3,0 0,-5 -3,0 -1,0 z"
       transform="matrix(0,1,-1,0,334,17)" />
  </g>
  <g
     id="east-right"
     transform="matrix(0,-1,1,0,-15,334)">
    <path
       id="path4120"
       style="opacity:1;fill:#616161;fill-opacity:1;fill-rule:nonzero;stroke:none"
       d="m 102,65 0,5 3,0 1,0 0,-5 -1,0 -3,0 z"
       transform="matrix(0,1,-1,0,334,15)" />
  </g>
  <g
     id="west-center"
     transform="matrix(0,-1,1,0,-16,347)">
    <path
       id="path4128"
       style="opacity:1;fill:#616161;fill-opacity:1;fill-rule:nonzero;stroke:none"
       d="m 264,112 0,5 5,0 0,-5 -5,0 z" />
  </g>
  <g
     id="west-left"
     style="fill-opacity:1;fill:url(#linearGradient4325)"
     transform="matrix(0,-1,1,0,-17,347)">
    <path
       id="path4132"
       style="opacity:1;fill:#616161;fill-opacity:1;fill-rule:nonzero;stroke:none"
       d="m 91,78 0,5 1,0 3,0 0,-5 -3,0 -1,0 z"
       transform="matrix(0,1,-1,0,347,17)" />
  </g>
  <g
     id="west-right"
     transform="matrix(0,-1,1,0,-15,347)">
    <path
       id="path4143"
       style="opacity:1;fill:#616161;fill-opacity:1;fill-rule:nonzero;stroke:none"
       d="m 102,78 0,5 3,0 1,0 0,-5 -1,0 -3,0 z"
       transform="matrix(0,1,-1,0,347,15)" />
  </g>
  <g
     id="vertical-centerindicator"
     transform="translate(1,15)">
    <rect
       id="rect4223-8"
       style="opacity:0.2;fill:#000000;fill-opacity:1;fill-rule:nonzero;stroke:none"
       width="42"
       height="1"
       x="11"
       y="32" />
    <rect
       id="rect4209-5"
       style="opacity:1;fill:#b39ddb;fill-opacity:1;fill-rule:nonzero;stroke:none"
       width="42"
       height="1"
       x="11"
       y="33" />
    <rect
       id="rect2706-6"
       style="opacity:1;fill:#b39ddb;fill-opacity:1;fill-rule:nonzero;stroke:none"
       width="42"
       height="1"
       x="11"
       y="31" />
  </g>
  <g
     id="horizontal-centerindicator"
     transform="translate(-4,17)">
    <rect
       id="rect4227-2"
       style="opacity:0.2;fill:#000000;fill-opacity:1;fill-rule:nonzero;stroke:none"
       width="42"
       height="1"
       x="-31"
       y="8"
       transform="matrix(0,-1,1,0,0,0)" />
    <rect
       id="rect4229-5"
       style="opacity:1;fill:#b39ddb;fill-opacity:1;fill-rule:nonzero;stroke:none"
       width="42"
       height="1"
       x="-31"
       y="9"
       transform="matrix(0,-1,1,0,0,0)" />
    <rect
       id="rect2721-2"
       style="opacity:1;fill:#b39ddb;fill-opacity:1;fill-rule:nonzero;stroke:none"
       width="42"
       height="1"
       x="-31"
       y="7"
       transform="matrix(0,-1,1,0,0,0)" />
  </g>
  <g
     id="west-minslider"
     style="enable-background:new;fill:#eeeeee"
     transform="translate(5.0312,68.003199)">
    <g
       id="layer12"
       transform="translate(-405,100)"
       style="fill:#eeeeee">
      <path
         id="path5861"
         style="opacity:1;fill:#eeeeee;fill-opacity:1"
         d="m 418.9688,-89.003199 h -4 v 5 h -4 v -5 h -4 l 6,-6 z M 415,-98.0032 c 0,1.1046 -0.89543,2 -2,2 -1.10457,0 -2,-0.89543 -2,-2 0,-1.10457 0.89543,-2 2,-2 1.10457,0 2,0.89543 2,2 z"
         inkscape:connector-curvature="0"
         sodipodi:nodetypes="ccccccccsssss" />
    </g>
  </g>
  <g
     id="north-offsetslider"
     style="enable-background:new;fill:#eeeeee"
     transform="translate(37,108.0004)">
    <g
       id="layer12-3"
       transform="translate(-385,98.003)"
       style="fill:#eeeeee">
      <path
         id="path5867"
         style="opacity:1;fill:#eeeeee;fill-opacity:1"
         d="m 387,-90.0034 h 4.0211 l -0.0211,6 h 4 l 0.0211,-6 h 4.019 l -6.0406,-6 z"
         inkscape:connector-curvature="0"
         sodipodi:nodetypes="cccccccc" />
    </g>
  </g>
  <g
     id="north-maxslider"
     style="enable-background:new;fill:#eeeeee"
     transform="translate(6.9988,89.968849)">
    <g
       id="layer12-0"
       transform="translate(-325,99.003)"
       style="fill:#eeeeee">
      <path
         id="path5831"
         style="opacity:1;fill:#eeeeee;fill-opacity:1"
         d="m 330.0012,-92.971849 -5,-0.03125 v 4.00005 l 5,0.0312 v 4 l 6,-6 -6,-6 z m 9,-0.03115 c -1.1046,0 -2,0.89543 -2,2 0,1.10457 0.89543,2 2,2 1.10457,0 2,-0.89543 2,-2 0,-1.10457 -0.89543,-2 -2,-2 z"
         inkscape:connector-curvature="0"
         sodipodi:nodetypes="ccccccccsssss" />
    </g>
  </g>
  <g
     id="east-offsetslider"
     style="enable-background:new;fill:#eeeeee"
     transform="translate(5.0016,107.9598)">
    <g
       id="layer12-8"
       transform="translate(-305,99.003)"
       style="fill:#eeeeee">
      <path
         id="path5825"
         style="opacity:1;fill:#eeeeee;fill-opacity:1"
         d="m 312.9984,-97.003 -0.0315,4.0402 -5.96855,-0.0211 v 4 l 5.96855,0.0211 0.0315,4 6,-6 z"
         inkscape:connector-curvature="0"
         sodipodi:nodetypes="cccccccc" />
    </g>
  </g>
  <g
     id="east-minslider"
     style="enable-background:new;fill:#eeeeee"
     transform="translate(22.0312,68.003199)">
    <g
       id="g4409"
       transform="translate(-405,100)"
       style="fill:#eeeeee">
      <path
         id="path4411"
         style="opacity:1;fill:#eeeeee;fill-opacity:1"
         d="m 418.9688,-89.003199 h -4.0312 l 0.0312,4.999999 h -4 l -0.0312,-4.999999 h -3.9688 l 6,-6 z M 415,-98.0032 c 0,1.1046 -0.89543,2 -2,2 -1.10457,0 -2,-0.89543 -2,-2 0,-1.10457 0.89543,-2 2,-2 1.10457,0 2,0.89543 2,2 z"
         inkscape:connector-curvature="0"
         sodipodi:nodetypes="ccccccccsssss" />
    </g>
  </g>
  <g
     id="west-maxslider"
     style="enable-background:new;fill:#eeeeee"
     transform="matrix(1,0,0,-1,38.0312,83.996799)">
    <g
       id="g4415"
       transform="translate(-405,100)"
       style="fill:#eeeeee">
      <path
         id="path4417"
         style="opacity:1;fill:#eeeeee;fill-opacity:1"
         d="m 418.9688,-89.003201 h -4 v 5 h -4 v -5 h -4 l 6,-6 z M 415,-98.0032 c 0,1.1046 -0.89543,2 -2,2 -1.10457,0 -2,-0.89543 -2,-2 0,-1.10457 0.89543,-2 2,-2 1.10457,0 2,0.89543 2,2 z"
         inkscape:connector-curvature="0"
         sodipodi:nodetypes="ccccccccsssss" />
    </g>
  </g>
  <g
     id="east-maxslider"
     style="enable-background:new;fill:#eeeeee"
     transform="matrix(1,0,0,-1,55.0312,83.996799)">
    <g
       id="g4421"
       transform="translate(-405,100)"
       style="fill:#eeeeee">
      <path
         id="path4423"
         style="opacity:1;fill:#eeeeee;fill-opacity:1"
         d="m 418.9688,-89.003201 h -4 v 5 h -4 v -5 h -4 l 6.0312,-6 z M 415,-98.0032 c 0,1.1046 -0.89543,2 -2,2 -1.10457,0 -2,-0.89543 -2,-2 0,-1.10457 0.89543,-2 2,-2 1.10457,0 2,0.89543 2,2 z"
         inkscape:connector-curvature="0"
         sodipodi:nodetypes="ccccccccsssss" />
    </g>
  </g>
  <g
     id="south-maxslider"
     style="enable-background:new;fill:#eeeeee"
     transform="translate(25.9988,89.968849)">
    <g
       id="g4427"
       transform="translate(-325,99.003)"
       style="fill:#eeeeee">
      <path
         id="path4429"
         style="opacity:1;fill:#eeeeee;fill-opacity:1"
         d="m 330.0012,-92.971849 -5,-0.03125 v 4.00005 l 5,0.0312 v 4 l 6,-6 -6,-6 z m 9,-0.03115 c -1.1046,0 -2,0.89543 -2,2 0,1.10457 0.89543,2 2,2 1.10457,0 2,-0.89543 2,-2 0,-1.10457 -0.89543,-2 -2,-2 z"
         inkscape:connector-curvature="0"
         sodipodi:nodetypes="ccccccccsssss" />
    </g>
  </g>
  <g
     id="north-minslider"
     style="enable-background:new;fill:#eeeeee"
     transform="matrix(-1,0,0,1,61.0012,89.968849)">
    <g
       id="g4433"
       transform="translate(-325,99.003)"
       style="fill:#eeeeee">
      <path
         id="path4435"
         style="opacity:1;fill:#eeeeee;fill-opacity:1"
         d="m 330.0012,-92.940599 -5,-0.03125 v 4 l 5,0.0312 v 3.968799 l 6,-5.999999 -6,-6.031201 z m 9,-0.0624 c -1.1046,0 -2,0.89543 -2,2 0,1.10457 0.89543,2 2,2 1.10457,0 2,-0.89543 2,-2 0,-1.10457 -0.89543,-2 -2,-2 z"
         inkscape:connector-curvature="0"
         sodipodi:nodetypes="ccccccccsssss" />
    </g>
  </g>
  <g
     id="south-minslider"
     style="enable-background:new;fill:#eeeeee"
     transform="matrix(-1,0,0,1,80.0012,89.968849)">
    <g
       id="g4439"
       transform="translate(-325,99.003)"
       style="fill:#eeeeee">
      <path
         id="path4441"
         style="opacity:1;fill:#eeeeee;fill-opacity:1"
         d="m 330.0012,-92.940599 -5,-0.03125 v 4 l 5,0.0312 v 3.9688 l 6,-6 -6,-6 z m 9,-0.0624 c -1.1046,0 -2,0.89543 -2,2 0,1.10457 0.89543,2 2,2 1.10457,0 2,-0.89543 2,-2 0,-1.10457 -0.89543,-2 -2,-2 z"
         inkscape:connector-curvature="0"
         sodipodi:nodetypes="ccccccccsssss" />
    </g>
  </g>
  <g
     id="west-offsetslider"
     style="enable-background:new;fill:#eeeeee"
     transform="matrix(-1,0,0,1,37.2109,107.9598)">
    <g
       id="g4445"
       transform="translate(-305,99.003)"
       style="fill:#eeeeee">
      <path
         id="path4447"
         style="opacity:1;fill:#eeeeee;fill-opacity:1"
         d="m 313.2109,-97.003 v 4.0613 l -6,-0.0211 v 4 l 6,0.0211 v 3.9789 l 6,-6 z"
         inkscape:connector-curvature="0"
         sodipodi:nodetypes="cccccccc" />
    </g>
  </g>
  <g
     id="south-offsetslider"
     style="enable-background:new;fill:#eeeeee"
     transform="matrix(1,0,0,-1,52,123.7871)">
    <g
       id="g4451"
       transform="translate(-385,98.003)"
       style="fill:#eeeeee">
      <path
         id="path4453"
         style="opacity:1;fill:#eeeeee;fill-opacity:1"
         d="m 387,-90.215 4,-9e-4 -0.0211,6 h 4 l 0.0211,-6 h 4 l -6,-6 z"
         inkscape:connector-curvature="0"
         sodipodi:nodetypes="cccccccc" />
    </g>
  </g>
</svg>
