<?xml version="1.0" encoding="UTF-8" standalone="no"?>
<svg
   xmlns:dc="http://purl.org/dc/elements/1.1/"
   xmlns:cc="http://creativecommons.org/ns#"
   xmlns:rdf="http://www.w3.org/1999/02/22-rdf-syntax-ns#"
   xmlns:svg="http://www.w3.org/2000/svg"
   xmlns="http://www.w3.org/2000/svg"
   xmlns:sodipodi="http://sodipodi.sourceforge.net/DTD/sodipodi-0.dtd"
   xmlns:inkscape="http://www.inkscape.org/namespaces/inkscape"
   id="svg2"
   width="128"
   height="128"
   version="1"
   sodipodi:docname="line.svg"
   inkscape:version="0.92.4 5da689c313, 2019-01-14">
  <metadata
     id="metadata21">
    <rdf:RDF>
      <cc:Work
         rdf:about="">
        <dc:format>image/svg+xml</dc:format>
        <dc:type
           rdf:resource="http://purl.org/dc/dcmitype/StillImage" />
        <dc:title></dc:title>
      </cc:Work>
    </rdf:RDF>
  </metadata>
  <sodipodi:namedview
     pagecolor="#ffffff"
     bordercolor="#666666"
     borderopacity="1"
     objecttolerance="10"
     gridtolerance="10"
     guidetolerance="10"
     inkscape:pageopacity="0"
     inkscape:pageshadow="2"
     inkscape:window-width="1920"
     inkscape:window-height="1051"
     id="namedview19"
     showgrid="false"
     inkscape:zoom="7.36"
     inkscape:cx="64"
     inkscape:cy="85.73913"
     inkscape:window-x="0"
     inkscape:window-y="0"
     inkscape:window-maximized="1"
     inkscape:current-layer="svg2" />
  <defs
     id="defs4" />
  <g
     id="layer1">
    <g
       id="vertical-line"
       transform="translate(-4.96875,0.40625)">
      <path
         id="path2993"
         d="m 32.96875,13.59375 0,40 3,0 0,-40 -3,0 z"
         style="opacity:0.01000001;fill:#000000;fill-opacity:0.2;stroke:none" />
      <path
         id="path3785"
         d="m 33.96875,13.59375 0,40 1,0 0,-40 -1,0 z"
         style="fill:#000000;fill-opacity:0.1;stroke:none" />
      <path
         id="path2998"
         d="m 33.96875,13.59375 0,40 1,0 0,-40 -1,0 z"
         style="fill:#eeeeee;fill-opacity:0.14901961;stroke:none" />
    </g>
    <g
       id="horizontal-line"
       transform="translate(-0.690972,0.471)">
      <path
         id="path3767"
         d="m 75.690972,55.529 -40,0 0,3 40,0 0,-3 z"
         style="opacity:0.01000001;fill:#000000;fill-opacity:0.2;stroke:none" />
      <path
         id="path2992"
         d="m 75.690972,56.529 -40,0 0,1 40,0 0,-1 z"
         style="fill:#000000;fill-opacity:0.1;stroke:none" />
      <path
         id="path3787"
         d="m 75.690972,56.529 -40,0 0,1 40,0 0,-1 z"
         style="fill:#eeeeee;fill-opacity:0.14901961;stroke:none" />
    </g>
  </g>
</svg>
